<svg width="1556" height="5503" viewBox="0 0 1556 5503" fill="none" xmlns="http://www.w3.org/2000/svg">
<path d="M1360.5 3C1360.5 3 611.732 218.887 327 584C76.7231 904.931 3 1574.5 3 1574.5C3 1574.5 639.623 1557.84 959 1765C1258.66 1959.37 1506 2498 1506 2498C1506 2498 845.007 2659.69 530 2933.5C285.271 3146.22 43 3606 43 3606C43 3606 695.062 3623.76 1015 3849C1311.73 4057.9 1552.5 4607 1552.5 4607C1552.5 4607 846.679 4648.44 508.5 4904C272.138 5082.62 38.5 5499.5 38.5 5499.5" stroke="white" stroke-width="3"/>
</svg>
