<svg width="1555" height="4608" viewBox="0 0 1555 4608" fill="none" xmlns="http://www.w3.org/2000/svg">
<path fill-rule="evenodd" clip-rule="evenodd" d="M1362.84 2.38672L1362.46 0.935547L1362.46 0.936523L1362.45 0.938721L1362.42 0.94751L1362.29 0.982178L1361.77 1.12012L1361.14 1.28638L1360.53 1.45142L1359.71 1.67114C1358.97 1.87183 1358.08 2.11353 1357.04 2.39648C1356.28 2.60522 1355.44 2.83618 1354.52 3.08984C1353.64 3.33154 1352.69 3.59351 1351.68 3.87598L1352.48 6.76611C1356 5.78784 1358.69 5.05518 1360.49 4.56763C1361.4 4.32373 1362.08 4.14111 1362.54 4.01953L1363.05 3.88281L1363.18 3.84888L1363.21 3.84058L1363.22 3.83838L1363.22 3.83789L1362.84 2.38672ZM1329.78 10.1414C1323.26 12.0479 1315.85 14.2517 1307.61 16.7544L1308.48 19.625C1316.71 17.1252 1324.11 14.9243 1330.62 13.0208L1329.78 10.1414ZM1285.82 23.4739C1279 25.6099 1271.79 27.8984 1264.21 30.3406L1265.12 33.196C1272.7 30.7566 1279.91 28.4702 1286.72 26.3369L1285.82 23.4739ZM1242.55 37.4058C1235.53 39.7266 1228.26 42.1592 1220.75 44.7039L1221.71 47.5452C1229.21 45.0029 1236.48 42.5728 1243.49 40.2544L1242.55 37.4058ZM1199 52.1624C1192.04 54.5762 1184.91 57.0764 1177.63 59.6628L1178.63 62.49C1185.91 59.906 1193.03 57.4082 1199.98 54.9966L1199 52.1624ZM1155.93 67.4526C1148.94 69.9922 1141.82 72.6052 1134.58 75.2922L1135.62 78.1047C1142.85 75.4204 1149.97 72.8096 1156.96 70.2725L1155.93 67.4526ZM1113.15 83.3308C1106.11 85.999 1098.98 88.7329 1091.75 91.5327L1092.83 94.3301C1100.05 91.533 1107.18 88.8015 1114.21 86.136L1113.15 83.3308ZM1070.52 99.843C1063.49 102.626 1056.38 105.469 1049.2 108.371L1050.32 111.152C1057.5 108.253 1064.6 105.413 1071.63 102.633L1070.52 99.843ZM1.75263 1510.56C1.36875 1514.33 1.09443 1517.21 0.91597 1519.15C0.875759 1519.59 0.840408 1519.98 0.809769 1520.32C0.772415 1520.74 0.742065 1521.08 0.718449 1521.35L0.670376 1521.91L0.65855 1522.05L0.65556 1522.09L0.654755 1522.1L0.654541 1522.1L2.14941 1522.22L3.64432 1522.35L3.64455 1522.34L3.64523 1522.34L3.64806 1522.3L3.65968 1522.16C3.67006 1522.04 3.68582 1521.86 3.70713 1521.61C3.73475 1521.3 3.77172 1520.88 3.81855 1520.36C3.84391 1520.08 3.87216 1519.77 3.90337 1519.43C4.08092 1517.5 4.35434 1514.62 4.73724 1510.87L1.75263 1510.56ZM1028.12 116.979C1021.11 119.869 1014.05 122.814 1006.93 125.815L1008.09 128.579C1015.21 125.582 1022.27 122.639 1029.26 119.752L1028.12 116.979ZM7.17249 1464.49C6.0534 1473.05 5.10128 1480.76 4.29919 1487.54L7.27844 1487.9C8.07912 1481.12 9.02974 1473.43 10.1472 1464.88L7.17249 1464.49ZM985.962 134.743C979 137.739 971.992 140.785 964.943 143.883L966.15 146.63C973.192 143.535 980.193 140.491 987.148 137.499L985.962 134.743ZM13.698 1418.41C12.4752 1426.45 11.3546 1434.1 10.3297 1441.33L13.3 1441.75C14.3235 1434.53 15.4426 1426.89 16.6639 1418.86L13.698 1418.41ZM944.072 153.152C937.163 156.253 930.219 159.402 923.243 162.6L924.493 165.327C931.461 162.132 938.398 158.987 945.301 155.889L944.072 153.152ZM21.1273 1372.49C19.7723 1380.4 18.4985 1388.05 17.3021 1395.45L20.2636 1395.93C21.4585 1388.54 22.7307 1380.89 24.0842 1373L21.1273 1372.49ZM902.472 172.224C895.619 175.433 888.741 178.689 881.842 181.99L883.137 184.696C890.029 181.398 896.899 178.147 903.744 174.941L902.472 172.224ZM29.4222 1326.6C27.9345 1334.43 26.5173 1342.08 25.1679 1349.54L28.12 1350.08C29.4679 1342.62 30.8834 1334.98 32.3694 1327.16L29.4222 1326.6ZM861.185 191.983C854.392 195.305 847.583 198.672 840.76 202.082L842.102 204.766C848.916 201.359 855.718 197.996 862.503 194.678L861.185 191.983ZM38.4893 1281.11C36.8824 1288.81 35.3388 1296.39 33.856 1303.83L36.7981 1304.41C38.2792 1296.98 39.8211 1289.42 41.426 1281.72L38.4893 1281.11ZM820.257 212.448C813.521 215.891 806.777 219.377 800.027 222.906L801.417 225.565C808.159 222.04 814.895 218.558 821.622 215.119L820.257 212.448ZM48.4059 1235.6C46.6575 1243.29 44.9688 1250.88 43.338 1258.37L46.2692 1259.01C47.8981 1251.53 49.5849 1243.95 51.3313 1236.27L48.4059 1235.6ZM779.776 233.617C773.078 237.199 766.379 240.825 759.681 244.492L761.122 247.124C767.811 243.461 774.502 239.84 781.191 236.262L779.776 233.617ZM59.1179 1190.39C57.2469 1197.98 55.4319 1205.49 53.6716 1212.92L56.5908 1213.61C58.3491 1206.19 60.1618 1198.69 62.0306 1191.11L59.1179 1190.39ZM739.681 255.573C733.037 259.298 726.398 263.065 719.767 266.874L721.262 269.475C727.883 265.672 734.513 261.91 741.148 258.19L739.681 255.573ZM70.7026 1145.22C68.6791 1152.82 66.7105 1160.35 64.7958 1167.81L67.7017 1168.56C69.6142 1161.1 71.5803 1153.58 73.6014 1146L70.7026 1145.22ZM700.022 278.354C693.45 282.222 686.889 286.132 680.342 290.083L681.893 292.652C688.43 288.706 694.981 284.802 701.544 280.939L700.022 278.354ZM83.093 1100.47C80.9341 1107.99 78.8286 1115.45 76.7754 1122.87L79.6667 1123.67C81.7173 1116.26 83.8202 1108.81 85.9764 1101.3L83.093 1100.47ZM660.855 301.996C654.377 306.008 647.915 310.06 641.475 314.154L643.084 316.686C649.515 312.598 655.966 308.552 662.434 304.547L660.855 301.996ZM96.3835 1055.91C94.0854 1063.34 91.8396 1070.73 89.6451 1078.09L92.52 1078.95C94.7116 1071.6 96.9544 1064.21 99.2496 1056.79L96.3835 1055.91ZM622.245 326.541C615.864 330.707 609.507 334.915 603.176 339.163L604.848 341.654C611.168 337.413 617.515 333.212 623.885 329.053L622.245 326.541ZM110.602 1011.57C108.142 1018.97 105.735 1026.35 103.38 1033.69L106.236 1034.61C108.589 1027.27 110.992 1019.91 113.449 1012.52L110.602 1011.57ZM125.767 967.571C123.143 974.92 120.57 982.254 118.05 989.568L120.886 990.546C123.403 983.241 125.972 975.918 128.592 968.58L125.767 967.571ZM584.265 352.033C577.987 356.367 571.74 360.741 565.525 365.157L567.263 367.603C573.466 363.195 579.702 358.828 585.969 354.502L584.265 352.033ZM141.906 923.973C139.119 931.24 136.384 938.5 133.701 945.749L136.515 946.79C139.194 939.552 141.924 932.303 144.707 925.047L141.906 923.973ZM546.985 378.529C540.823 383.04 534.697 387.593 528.612 392.188L530.419 394.582C536.493 389.996 542.607 385.452 548.757 380.949L546.985 378.529ZM159.092 880.748C156.132 887.929 153.226 895.112 150.373 902.291L153.16 903.399C156.01 896.231 158.911 889.061 161.865 881.89L159.092 880.748ZM510.469 406.103C504.446 410.797 498.467 415.532 492.534 420.31L494.416 422.646C500.336 417.879 506.302 413.153 512.313 408.469L510.469 406.103ZM177.371 837.958C174.228 845.054 171.139 852.158 168.103 859.266L170.862 860.445C173.893 853.349 176.977 846.257 180.114 839.172L177.371 837.958ZM474.828 434.811C468.968 439.693 463.159 444.617 457.403 449.584L459.363 451.855C465.105 446.9 470.902 441.987 476.748 437.116L474.828 434.811ZM196.797 795.669C193.457 802.68 190.171 809.706 186.939 816.742L189.665 817.994C192.891 810.97 196.171 803.958 199.505 796.959L196.797 795.669ZM440.185 464.714C434.502 469.8 428.877 474.93 423.312 480.103L425.355 482.301C430.905 477.14 436.517 472.023 442.186 466.949L440.185 464.714ZM217.427 753.953C213.88 760.863 210.389 767.794 206.954 774.743L209.643 776.073C213.072 769.137 216.556 762.219 220.096 755.323L217.427 753.953ZM406.679 495.874C401.189 501.185 395.764 506.54 390.408 511.939L392.538 514.052C397.879 508.668 403.289 503.327 408.765 498.031L406.679 495.874ZM239.318 712.897C235.557 719.688 231.853 726.505 228.206 733.347L230.853 734.758C234.493 727.93 238.189 721.127 241.942 714.351L239.318 712.897ZM374.468 528.358C369.198 533.906 364.002 539.499 358.883 545.137L361.105 547.153C366.207 541.532 371.388 535.956 376.643 530.424L374.468 528.358ZM256.61 682.58C254.645 685.926 252.695 689.279 250.759 692.641L253.359 694.138C255.29 690.784 257.236 687.438 259.197 684.1C261.113 680.838 263.057 677.588 265.028 674.35L262.466 672.79C260.486 676.041 258.534 679.305 256.61 682.58ZM343.729 562.23C338.712 568.025 333.779 573.866 328.933 579.755L331.249 581.661C336.08 575.792 340.997 569.97 345.997 564.193L343.729 562.23ZM287.47 634.421C283.1 640.709 278.832 647.045 274.669 653.43L277.182 655.069C281.328 648.709 285.58 642.397 289.933 636.133L287.47 634.421ZM314.657 597.56C309.938 603.606 305.31 609.7 300.779 615.841L303.193 617.623C307.708 611.503 312.319 605.431 317.022 599.406L314.657 597.56ZM116.107 1585.28C123.142 1585.3 130.589 1585.36 138.42 1585.45L138.457 1582.45C130.616 1582.36 123.16 1582.3 116.117 1582.28L116.107 1585.28ZM71.769 1585.57C78.2696 1585.46 85.648 1585.37 93.8354 1585.32L93.8162 1582.32C85.6178 1582.37 78.2287 1582.46 71.7179 1582.57L71.769 1585.57ZM160.795 1585.82C168.013 1585.97 175.49 1586.16 183.207 1586.38L183.294 1583.38C175.568 1583.16 168.084 1582.97 160.857 1582.82L160.795 1585.82ZM38.5 1585L38.5709 1586.5H38.5709L38.5714 1586.5H38.5732L38.581 1586.5L38.613 1586.5L38.7417 1586.49L39.2565 1586.47C39.7133 1586.45 40.3961 1586.42 41.2982 1586.38C43.1024 1586.31 45.7839 1586.21 49.2894 1586.1L49.1959 1583.1C45.6819 1583.21 42.9921 1583.31 41.1798 1583.38C40.2737 1583.42 39.5869 1583.45 39.1263 1583.47L38.6056 1583.49L38.474 1583.5L38.4407 1583.5L38.4321 1583.5L38.4291 1583.5L38.5 1585ZM205.261 1587.11C212.499 1587.38 219.914 1587.69 227.496 1588.04L227.632 1585.04C220.043 1584.69 212.619 1584.39 205.373 1584.12L205.261 1587.11ZM249.914 1589.15C257.157 1589.54 264.53 1589.97 272.023 1590.43L272.209 1587.44C264.708 1586.97 257.327 1586.55 250.076 1586.15L249.914 1589.15ZM294.24 1591.91C301.592 1592.43 309.045 1592.98 316.591 1593.58L316.828 1590.59C309.273 1589.99 301.812 1589.44 294.451 1588.92L294.24 1591.91ZM338.638 1595.42C345.99 1596.07 353.419 1596.76 360.919 1597.48L361.208 1594.5C353.699 1593.77 346.261 1593.08 338.901 1592.44L338.638 1595.42ZM383.007 1599.72C390.337 1600.5 397.726 1601.32 405.168 1602.18L405.512 1599.2C398.061 1598.34 390.662 1597.52 383.323 1596.74L383.007 1599.72ZM427.289 1604.84C434.602 1605.75 441.958 1606.71 449.352 1607.71L449.754 1604.74C442.35 1603.73 434.984 1602.78 427.662 1601.86L427.289 1604.84ZM471.452 1610.81C478.748 1611.87 486.076 1612.97 493.429 1614.12L493.892 1611.16C486.528 1610.01 479.19 1608.9 471.884 1607.84L471.452 1610.81ZM515.468 1617.69C522.747 1618.91 530.047 1620.17 537.361 1621.48L537.889 1618.52C530.564 1617.21 523.253 1615.95 515.963 1614.73L515.468 1617.69ZM559.308 1625.54C566.568 1626.92 573.837 1628.36 581.112 1629.84L581.71 1626.9C574.424 1625.41 567.142 1623.98 559.871 1622.59L559.308 1625.54ZM602.935 1634.42C610.171 1635.99 617.406 1637.61 624.638 1639.28L625.312 1636.36C618.068 1634.68 610.819 1633.06 603.571 1631.49L602.935 1634.42ZM646.311 1644.44C653.514 1646.2 660.708 1648.02 667.888 1649.9L668.645 1646.99C661.45 1645.12 654.242 1643.29 647.026 1641.52L646.311 1644.44ZM689.385 1655.67C696.544 1657.66 703.683 1659.69 710.799 1661.79L711.646 1658.91C704.514 1656.81 697.359 1654.77 690.186 1652.78L689.385 1655.67ZM732.088 1668.24C739.186 1670.46 746.255 1672.74 753.291 1675.07L754.236 1672.23C747.183 1669.88 740.097 1667.6 732.983 1665.38L732.088 1668.24ZM774.331 1682.27C781.349 1684.75 788.329 1687.29 795.265 1689.89L796.319 1687.08C789.363 1684.47 782.365 1681.93 775.329 1679.44L774.331 1682.27ZM816.001 1697.91C822.916 1700.67 829.782 1703.49 836.594 1706.39L837.767 1703.63C830.934 1700.72 824.048 1697.89 817.113 1695.12L816.001 1697.91ZM856.957 1715.32C863.739 1718.39 870.46 1721.53 877.114 1724.75L878.419 1722.05C871.742 1718.82 864.999 1715.67 858.195 1712.59L856.957 1715.32ZM897.016 1734.69C903.626 1738.1 910.163 1741.59 916.62 1745.16L918.071 1742.53C911.588 1738.95 905.027 1735.45 898.392 1732.02L897.016 1734.69ZM935.941 1756.21C942.332 1760 948.636 1763.87 954.847 1767.83L956.458 1765.3C950.22 1761.32 943.889 1757.44 937.471 1753.63L935.941 1756.21ZM973.433 1780.11C979.549 1784.31 985.562 1788.6 991.467 1792.97L993.253 1790.56C987.319 1786.16 981.276 1781.86 975.131 1777.64L973.433 1780.11ZM1009.12 1806.59C1014.9 1811.24 1020.57 1815.99 1026.11 1820.84L1028.09 1818.58C1022.51 1813.7 1016.81 1808.93 1011 1804.25L1009.12 1806.59ZM1042.53 1835.83C1045.2 1838.38 1047.84 1840.96 1050.44 1843.56C1052.99 1846.11 1055.54 1848.69 1058.09 1851.29L1060.23 1849.19C1057.68 1846.58 1055.12 1844 1052.56 1841.44C1049.94 1838.82 1047.29 1836.23 1044.6 1833.66L1042.53 1835.83ZM1073.35 1867.17C1078.32 1872.44 1083.3 1877.81 1088.27 1883.27L1090.48 1881.25C1085.5 1875.78 1080.52 1870.4 1075.53 1865.11L1073.35 1867.17ZM1102.91 1899.59C1107.73 1905.05 1112.55 1910.58 1117.36 1916.18L1119.63 1914.23C1114.82 1908.62 1109.99 1903.07 1105.16 1897.61L1102.91 1899.59ZM1131.58 1932.97C1136.25 1938.55 1140.9 1944.19 1145.55 1949.88L1147.87 1947.98C1143.22 1942.28 1138.55 1936.64 1133.88 1931.05L1131.58 1932.97ZM1159.36 1966.99C1163.91 1972.7 1168.46 1978.46 1172.99 1984.26L1175.35 1982.41C1170.82 1976.61 1166.27 1970.84 1161.7 1965.12L1159.36 1966.99ZM1186.42 2001.62C1190.87 2007.43 1195.3 2013.27 1199.71 2019.14L1202.11 2017.33C1197.69 2011.46 1193.26 2005.61 1188.8 1999.8L1186.42 2001.62ZM1212.85 2036.76C1217.2 2042.65 1221.53 2048.56 1225.84 2054.49L1228.27 2052.73C1223.96 2046.8 1219.62 2040.88 1215.26 2034.98L1212.85 2036.76ZM1238.7 2072.33C1242.96 2078.29 1247.2 2084.26 1251.41 2090.24L1253.86 2088.51C1249.65 2082.53 1245.41 2076.55 1241.14 2070.58L1238.7 2072.33ZM1264.02 2108.27C1268.21 2114.31 1272.38 2120.34 1276.5 2126.37L1278.98 2124.67C1274.85 2118.64 1270.68 2112.6 1266.49 2106.56L1264.02 2108.27ZM1288.85 2144.51C1292.98 2150.62 1297.07 2156.72 1301.13 2162.8L1303.62 2161.13C1299.57 2155.05 1295.47 2148.95 1291.33 2142.83L1288.85 2144.51ZM1313.28 2181.13C1317.33 2187.27 1321.34 2193.38 1325.3 2199.47L1327.81 2197.83C1323.85 2191.74 1319.84 2185.62 1315.79 2179.47L1313.28 2181.13ZM1337.27 2217.96C1341.28 2224.19 1345.24 2230.37 1349.14 2236.5L1351.67 2234.89C1347.77 2228.75 1343.81 2222.57 1339.8 2216.34L1337.27 2217.96ZM1360.88 2255.05C1364.82 2261.31 1368.7 2267.51 1372.52 2273.64L1375.07 2272.05C1371.25 2265.92 1367.37 2259.72 1363.42 2253.45L1360.88 2255.05ZM1384.14 2292.39C1388.05 2298.74 1391.89 2305 1395.65 2311.17L1398.21 2309.6C1394.45 2303.44 1390.61 2297.17 1386.69 2290.82L1384.14 2292.39ZM1407.04 2329.96C1410.91 2336.36 1414.67 2342.63 1418.34 2348.77L1420.91 2347.23C1417.25 2341.09 1413.48 2334.81 1409.61 2328.41L1407.04 2329.96ZM1429.54 2367.63C1433.38 2374.13 1437.09 2380.44 1440.67 2386.55L1443.26 2385.04C1439.68 2378.92 1435.97 2372.61 1432.12 2366.1L1429.54 2367.63ZM1451.73 2405.57C1455.61 2412.27 1459.28 2418.66 1462.74 2424.7L1465.35 2423.21C1461.88 2417.17 1458.21 2410.77 1454.33 2404.07L1451.73 2405.57ZM1473.66 2443.9C1477.62 2450.9 1481.17 2457.24 1484.3 2462.84L1486.92 2461.38C1483.79 2455.78 1480.23 2449.43 1476.27 2442.42L1473.66 2443.9ZM1495.02 2482.23C1496.72 2485.32 1498 2487.69 1498.87 2489.29C1499.3 2490.09 1499.63 2490.69 1499.85 2491.1L1500.1 2491.56L1500.16 2491.67L1500.17 2491.7L1500.18 2491.71L1500.18 2491.71L1501.5 2491L1502.82 2490.29L1502.82 2490.29L1502.82 2490.28L1502.8 2490.25L1502.74 2490.14L1502.49 2489.67C1502.35 2489.42 1502.18 2489.09 1501.96 2488.69L1501.51 2487.86C1500.64 2486.26 1499.35 2483.89 1497.65 2480.79L1495.02 2482.23ZM1502.65 2502.08C1500.87 2502.48 1498.24 2503.09 1494.8 2503.91L1494.11 2500.99C1497.56 2500.17 1500.2 2499.56 1501.97 2499.15C1502.86 2498.95 1503.54 2498.79 1503.99 2498.69L1504.5 2498.58L1504.63 2498.55L1504.66 2498.54L1504.67 2498.54L1504.67 2498.54L1505 2500L1505.33 2501.46L1505.33 2501.46L1505.32 2501.47L1505.29 2501.47L1505.16 2501.5L1504.65 2501.62C1504.2 2501.72 1503.53 2501.87 1502.65 2502.08ZM1472.94 2509.19C1466.49 2510.77 1459.17 2512.6 1451.03 2514.66L1450.29 2511.75C1458.43 2509.69 1465.77 2507.86 1472.22 2506.27L1472.94 2509.19ZM1429.15 2520.29C1422.3 2522.07 1415.06 2523.98 1407.44 2526.02L1406.67 2523.12C1414.29 2521.08 1421.54 2519.17 1428.39 2517.39L1429.15 2520.29ZM1385.84 2531.85C1378.89 2533.74 1371.7 2535.73 1364.28 2537.8L1363.47 2534.91C1370.9 2532.84 1378.1 2530.85 1385.05 2528.95L1385.84 2531.85ZM1342.68 2543.89C1335.63 2545.89 1328.41 2547.97 1321.02 2550.12L1320.19 2547.24C1327.57 2545.09 1334.8 2543.01 1341.86 2541L1342.68 2543.89ZM1299.38 2556.47C1292.38 2558.55 1285.25 2560.68 1278.01 2562.87L1277.14 2560C1284.39 2557.81 1291.52 2555.68 1298.53 2553.6L1299.38 2556.47ZM1256.51 2569.44C1249.42 2571.63 1242.23 2573.87 1234.96 2576.16L1234.06 2573.3C1241.34 2571.01 1248.53 2568.77 1255.63 2566.58L1256.51 2569.44ZM1213.68 2582.92C1206.62 2585.19 1199.48 2587.5 1192.27 2589.86L1191.34 2587.01C1198.55 2584.65 1205.69 2582.33 1212.77 2580.06L1213.68 2582.92ZM1170.95 2596.91C1163.92 2599.25 1156.84 2601.64 1149.71 2604.06L1148.74 2601.23C1155.88 2598.8 1162.96 2596.41 1170 2594.06L1170.95 2596.91ZM1128.37 2611.4C1121.38 2613.83 1114.35 2616.3 1107.28 2618.81L1106.28 2615.98C1113.35 2613.47 1120.39 2611 1127.38 2608.57L1128.37 2611.4ZM1086.1 2626.39C1079.1 2628.93 1072.08 2631.49 1065.03 2634.1L1063.99 2631.28C1071.05 2628.68 1078.07 2626.11 1085.08 2623.57L1086.1 2626.39ZM1043.99 2641.96C1037.01 2644.59 1030.01 2647.26 1023 2649.97L1021.92 2647.17C1028.94 2644.46 1035.95 2641.79 1042.93 2639.15L1043.99 2641.96ZM1002.1 2658.12C995.148 2660.86 988.186 2663.64 981.221 2666.45L980.098 2663.67C987.071 2660.86 994.04 2658.08 1001 2655.33L1002.1 2658.12ZM960.458 2674.93C953.544 2677.78 946.632 2680.67 939.726 2683.59L938.557 2680.83C945.471 2677.9 952.391 2675.01 959.313 2672.15L960.458 2674.93ZM919.098 2692.42C912.232 2695.4 905.376 2698.41 898.536 2701.45L897.318 2698.7C904.167 2695.66 911.031 2692.65 917.905 2689.67L919.098 2692.42ZM878.067 2710.66C871.252 2713.77 864.458 2716.91 857.688 2720.08L856.415 2717.37C863.194 2714.19 869.998 2711.04 876.822 2707.93L878.067 2710.66ZM837.416 2729.71C830.659 2732.97 823.931 2736.25 817.238 2739.57L815.905 2736.89C822.609 2733.56 829.347 2730.27 836.114 2727.01L837.416 2729.71ZM797.211 2749.65C790.519 2753.07 783.866 2756.52 777.258 2760.01L775.859 2757.35C782.479 2753.86 789.143 2750.41 795.846 2746.98L797.211 2749.65ZM757.53 2770.57C750.914 2774.18 744.349 2777.81 737.84 2781.48L736.367 2778.87C742.889 2775.19 749.467 2771.55 756.096 2767.94L757.53 2770.57ZM718.408 2792.63C711.908 2796.42 705.47 2800.25 699.101 2804.12L697.545 2801.55C703.929 2797.68 710.381 2793.84 716.895 2790.04L718.408 2792.63ZM680.017 2815.92C673.666 2819.93 667.391 2823.97 661.198 2828.05L659.548 2825.55C665.758 2821.46 672.049 2817.4 678.416 2813.38L680.017 2815.92ZM642.538 2840.62C636.358 2844.88 630.27 2849.17 624.281 2853.5L622.523 2851.07C628.531 2846.73 634.638 2842.42 640.836 2838.15L642.538 2840.62ZM606.213 2866.9C603.256 2869.15 600.326 2871.41 597.424 2873.68C594.581 2875.91 591.738 2878.16 588.896 2880.44L587.017 2878.1C589.869 2875.81 592.722 2873.55 595.576 2871.32C598.488 2869.04 601.428 2866.77 604.396 2864.51L606.213 2866.9ZM571.861 2894.47C566.33 2899.14 560.806 2903.91 555.289 2908.78L553.304 2906.53C558.837 2901.65 564.378 2896.86 569.926 2892.18L571.861 2894.47ZM538.925 2923.52C533.561 2928.45 528.207 2933.46 522.865 2938.56L520.795 2936.39C526.15 2931.28 531.517 2926.25 536.895 2921.31L538.925 2923.52ZM507.106 2953.85C501.899 2958.99 496.706 2964.2 491.527 2969.48L489.386 2967.38C494.576 2962.09 499.78 2956.87 504.998 2951.72L507.106 2953.85ZM476.278 2985.25C471.236 2990.54 466.209 2995.89 461.199 3001.3L458.999 2999.26C464.017 2993.84 469.054 2988.48 474.106 2983.18L476.278 2985.25ZM446.35 3017.53C441.451 3022.95 436.57 3028.43 431.71 3033.94L429.459 3031.96C434.328 3026.43 439.216 3020.95 444.124 3015.52L446.35 3017.53ZM417.24 3050.55C412.467 3056.1 407.716 3061.68 402.987 3067.29L400.693 3065.35C405.428 3059.73 410.187 3054.15 414.967 3048.6L417.24 3050.55ZM388.885 3084.2C384.221 3089.85 379.581 3095.53 374.966 3101.24L372.634 3099.35C377.254 3093.64 381.901 3087.95 386.572 3082.29L388.885 3084.2ZM361.2 3118.41C356.637 3124.16 352.101 3129.92 347.594 3135.7L345.228 3133.86C349.741 3128.07 354.282 3122.3 358.85 3116.55L361.2 3118.41ZM334.126 3153.13C329.662 3158.95 325.227 3164.79 320.825 3170.63L318.43 3168.82C322.836 3162.98 327.275 3157.13 331.745 3151.3L334.126 3153.13ZM307.625 3188.28C303.246 3194.19 298.901 3200.09 294.592 3205.99L292.17 3204.22C296.483 3198.31 300.832 3192.4 305.215 3186.49L307.625 3188.28ZM281.661 3223.82C277.356 3229.81 273.089 3235.78 268.863 3241.74L266.416 3240.01C270.646 3234.04 274.917 3228.06 279.226 3222.07L281.661 3223.82ZM256.213 3259.71C251.971 3265.77 247.774 3271.81 243.622 3277.83L241.153 3276.13C245.308 3270.11 249.509 3264.06 253.754 3257.99L256.213 3259.71ZM231.216 3295.94C227.046 3302.07 222.927 3308.16 218.859 3314.21L216.369 3312.54C220.44 3306.48 224.562 3300.38 228.736 3294.25L231.216 3295.94ZM206.626 3332.54C202.553 3338.68 198.536 3344.77 194.579 3350.82L192.07 3349.17C196.03 3343.13 200.049 3337.03 204.126 3330.88L206.626 3332.54ZM182.499 3369.37C178.461 3375.61 174.491 3381.79 170.591 3387.89L168.064 3386.27C171.966 3380.17 175.939 3373.99 179.98 3367.74L182.499 3369.37ZM158.865 3406.34C154.855 3412.69 150.928 3418.95 147.089 3425.1L144.543 3423.52C148.386 3417.36 152.315 3411.1 156.329 3404.74L158.865 3406.34ZM135.459 3443.85C131.528 3450.23 127.7 3456.48 123.981 3462.58L121.419 3461.02C125.141 3454.91 128.971 3448.66 132.905 3442.28L135.459 3443.85ZM112.642 3481.31C108.73 3487.81 104.959 3494.11 101.333 3500.21L98.7544 3498.68C102.383 3492.58 106.157 3486.26 110.071 3479.76L112.642 3481.31ZM90.1099 3519.21C86.2026 3525.87 82.5066 3532.21 79.0304 3538.21L76.4344 3536.71C79.9134 3530.7 83.6124 3524.35 87.5227 3517.69L90.1099 3519.21ZM68.097 3557.22C63.9865 3564.42 60.3165 3570.91 57.11 3576.62L54.4942 3575.15C57.7041 3569.44 61.3775 3562.94 65.4917 3555.74L68.097 3557.22ZM41.3221 3605.21L40 3604.5L38.6779 3603.79L38.6782 3603.79L38.6792 3603.79L38.6831 3603.78L38.6986 3603.75L38.76 3603.64C38.8145 3603.54 38.8958 3603.39 39.0039 3603.19C39.22 3602.78 39.5427 3602.19 39.9701 3601.4C40.8249 3599.82 42.0981 3597.49 43.7729 3594.44L46.4021 3595.88C44.73 3598.93 43.4594 3601.26 42.6071 3602.83C42.181 3603.62 41.8594 3604.21 41.6446 3604.61C41.5371 3604.81 41.4564 3604.96 41.4025 3605.06L41.342 3605.17L41.327 3605.2L41.3233 3605.21L41.3224 3605.21L41.3222 3605.21H41.3221ZM42 3608.5L41.9417 3610H41.9418H41.9423L41.9442 3610L41.952 3610L41.9841 3610L42.1133 3610.01C42.2283 3610.01 42.4007 3610.02 42.6298 3610.03C43.0881 3610.05 43.773 3610.08 44.6781 3610.12C46.4883 3610.2 49.1795 3610.33 52.6997 3610.51L52.8575 3607.52C49.33 3607.33 46.6318 3607.2 44.8147 3607.12C43.9061 3607.08 43.2178 3607.05 42.7562 3607.03C42.5254 3607.02 42.3513 3607.01 42.2347 3607.01L42.103 3607L42.0697 3607L42.0612 3607H42.059H42.0584H42.0583L42 3608.5ZM75.2547 3611.85C81.7561 3612.27 89.1356 3612.78 97.3272 3613.38L97.5479 3610.39C89.3471 3609.78 81.9587 3609.28 75.4486 3608.85L75.2547 3611.85ZM119.608 3615.11C126.644 3615.69 134.095 3616.33 141.935 3617.03L142.202 3614.04C134.355 3613.34 126.896 3612.7 119.852 3612.12L119.608 3615.11ZM164.331 3619.11C171.491 3619.8 178.908 3620.54 186.565 3621.34L186.874 3618.35C179.21 3617.56 171.786 3616.82 164.619 3616.12L164.331 3619.11ZM208.633 3623.7C215.876 3624.5 223.299 3625.34 230.892 3626.23L231.241 3623.25C223.642 3622.36 216.211 3621.52 208.963 3620.72L208.633 3623.7ZM253.253 3628.93C260.45 3629.82 267.778 3630.76 275.229 3631.73L275.619 3628.76C268.161 3627.78 260.826 3626.85 253.623 3625.95L253.253 3628.93ZM297.472 3634.72C304.746 3635.73 312.122 3636.77 319.593 3637.85L320.023 3634.88C312.545 3633.8 305.162 3632.75 297.882 3631.75L297.472 3634.72ZM341.658 3641.12C348.984 3642.24 356.391 3643.39 363.873 3644.58L364.345 3641.62C356.856 3640.43 349.442 3639.27 342.109 3638.16L341.658 3641.12ZM385.804 3648.15C393.135 3649.37 400.529 3650.63 407.982 3651.93L408.496 3648.97C401.037 3647.67 393.635 3646.41 386.296 3645.19L385.804 3648.15ZM429.856 3655.82C437.166 3657.15 444.524 3658.52 451.925 3659.92L452.485 3656.97C445.075 3655.57 437.71 3654.2 430.393 3652.87L429.856 3655.82ZM473.787 3664.16C481.076 3665.6 488.401 3667.08 495.759 3668.6L496.365 3665.66C489 3664.14 481.666 3662.66 474.37 3661.22L473.787 3664.16ZM517.575 3673.2C524.843 3674.76 532.137 3676.36 539.452 3678L540.108 3675.07C532.784 3673.43 525.482 3671.83 518.206 3670.26L517.575 3673.2ZM561.2 3682.97C568.444 3684.66 575.704 3686.39 582.977 3688.16L583.686 3685.25C576.404 3683.48 569.134 3681.74 561.882 3680.05L561.2 3682.97ZM604.638 3693.53C611.853 3695.36 619.077 3697.23 626.304 3699.13L627.069 3696.23C619.832 3694.32 612.599 3692.45 605.374 3690.63L604.638 3693.53ZM647.861 3704.93C655.042 3706.9 662.222 3708.91 669.399 3710.97L670.224 3708.08C663.037 3706.03 655.846 3704.01 648.656 3702.04L647.861 3704.93ZM690.836 3717.22C697.974 3719.35 705.104 3721.52 712.221 3723.73L713.111 3720.86C705.982 3718.65 698.841 3716.48 691.692 3714.35L690.836 3717.22ZM733.519 3730.48C740.605 3732.78 747.675 3735.11 754.725 3737.5L755.685 3734.65C748.623 3732.27 741.541 3729.93 734.443 3727.63L733.519 3730.48ZM775.859 3744.79C782.883 3747.26 789.882 3749.78 796.853 3752.35L797.889 3749.53C790.905 3746.96 783.893 3744.44 776.857 3741.96L775.859 3744.79ZM817.793 3760.23C824.742 3762.9 831.658 3765.62 838.537 3768.39L839.657 3765.61C832.763 3762.83 825.833 3760.11 818.87 3757.43L817.793 3760.23ZM859.242 3776.91C866.104 3779.8 872.923 3782.74 879.697 3785.73L880.908 3782.99C874.119 3779.99 867.283 3777.04 860.407 3774.15L859.242 3776.91ZM900.109 3794.96C906.865 3798.09 913.569 3801.27 920.218 3804.5L921.53 3801.8C914.864 3798.56 908.142 3795.37 901.37 3792.24L900.109 3794.96ZM940.272 3814.5C946.9 3817.89 953.466 3821.34 959.966 3824.84L961.389 3822.2C954.87 3818.69 948.285 3815.23 941.639 3811.83L940.272 3814.5ZM979.576 3835.7C986.051 3839.38 992.453 3843.12 998.775 3846.93L1000.32 3844.35C993.977 3840.54 987.555 3836.78 981.06 3833.09L979.576 3835.7ZM1017.82 3858.72C1024.11 3862.73 1030.31 3866.8 1036.42 3870.94L1038.1 3868.45C1031.97 3864.3 1025.75 3860.21 1019.44 3856.19L1017.82 3858.72ZM1054.76 3883.76C1060.81 3888.13 1066.77 3892.57 1072.61 3897.07L1074.44 3894.7C1068.57 3890.17 1062.59 3885.71 1056.51 3881.32L1054.76 3883.76ZM1090.06 3911.01C1092.91 3913.37 1095.73 3915.74 1098.52 3918.14C1101.28 3920.5 1104.02 3922.88 1106.75 3925.29L1108.73 3923.03C1105.99 3920.62 1103.24 3918.23 1100.48 3915.86C1097.67 3913.45 1094.84 3911.07 1091.97 3908.7L1090.06 3911.01ZM1123.03 3939.94C1128.37 3944.86 1133.68 3949.86 1138.94 3954.93L1141.02 3952.76C1135.74 3947.68 1130.42 3942.67 1125.06 3937.74L1123.03 3939.94ZM1154.55 3970.28C1159.68 3975.43 1164.78 3980.65 1169.83 3985.93L1172 3983.86C1166.93 3978.57 1161.82 3973.33 1156.67 3968.16L1154.55 3970.28ZM1184.81 4001.88C1189.76 4007.24 1194.66 4012.65 1199.52 4018.11L1201.76 4016.11C1196.89 4010.64 1191.97 4005.22 1187.02 3999.84L1184.81 4001.88ZM1213.92 4034.57C1218.68 4040.1 1223.39 4045.68 1228.06 4051.29L1230.37 4049.37C1225.69 4043.74 1220.96 4038.16 1216.2 4032.62L1213.92 4034.57ZM1241.94 4068.21C1246.52 4073.9 1251.07 4079.61 1255.56 4085.36L1257.92 4083.51C1253.42 4077.75 1248.87 4072.02 1244.27 4066.33L1241.94 4068.21ZM1268.94 4102.69C1273.36 4108.5 1277.74 4114.34 1282.07 4120.2L1284.48 4118.42C1280.14 4112.55 1275.76 4106.7 1271.32 4100.87L1268.94 4102.69ZM1294.99 4137.89C1299.25 4143.82 1303.47 4149.77 1307.65 4155.72L1310.11 4153.99C1305.92 4148.03 1301.7 4142.08 1297.42 4136.14L1294.99 4137.89ZM1320.13 4173.74C1324.27 4179.79 1328.35 4185.84 1332.39 4191.89L1334.88 4190.23C1330.84 4184.17 1326.75 4178.11 1322.61 4172.05L1320.13 4173.74ZM1344.42 4210.15C1348.43 4216.31 1352.39 4222.46 1356.29 4228.6L1358.83 4226.99C1354.91 4220.84 1350.95 4214.68 1346.93 4208.51L1344.42 4210.15ZM1367.94 4247.12C1371.81 4253.35 1375.63 4259.57 1379.4 4265.76L1381.96 4264.21C1378.19 4258 1374.37 4251.78 1370.49 4245.54L1367.94 4247.12ZM1390.7 4284.58C1394.46 4290.89 1398.15 4297.18 1401.79 4303.43L1404.38 4301.92C1400.74 4295.66 1397.04 4289.37 1393.28 4283.04L1390.7 4284.58ZM1412.69 4322.38C1416.35 4328.81 1419.95 4335.2 1423.48 4341.53L1426.1 4340.07C1422.56 4333.73 1418.97 4327.34 1415.3 4320.9L1412.69 4322.38ZM1434.05 4360.7C1437.57 4367.16 1441.03 4373.56 1444.41 4379.89L1447.05 4378.47C1443.67 4372.14 1440.21 4365.73 1436.68 4359.26L1434.05 4360.7ZM1454.68 4399.3C1458.13 4405.9 1461.5 4412.4 1464.78 4418.8L1467.45 4417.43C1464.16 4411.03 1460.79 4404.52 1457.34 4397.91L1454.68 4399.3ZM1474.69 4438.34C1478.03 4445 1481.27 4451.54 1484.41 4457.92L1487.1 4456.6C1483.96 4450.21 1480.72 4443.67 1477.37 4436.99L1474.69 4438.34ZM1493.96 4477.58C1497.23 4484.36 1500.36 4490.95 1503.35 4497.32L1506.07 4496.04C1503.07 4489.66 1499.93 4483.07 1496.67 4476.28L1493.96 4477.58ZM1512.59 4517.19C1515.82 4524.2 1518.85 4530.89 1521.68 4537.21L1524.42 4535.98C1521.58 4529.65 1518.55 4522.96 1515.32 4515.94L1512.59 4517.19ZM1530.58 4557.31C1533.8 4564.67 1536.65 4571.32 1539.14 4577.19L1541.9 4576.02C1539.41 4570.14 1536.55 4563.48 1533.33 4556.11L1530.58 4557.31ZM1547.61 4597.57C1548.94 4600.82 1549.93 4603.32 1550.6 4605C1550.93 4605.84 1551.18 4606.48 1551.35 4606.9L1551.54 4607.38L1551.59 4607.5L1551.6 4607.53L1551.6 4607.54L1551.6 4607.54L1553 4607L1554.4 4606.46L1554.4 4606.46L1554.39 4606.45L1554.38 4606.42L1554.33 4606.29L1554.14 4605.81C1553.98 4605.38 1553.72 4604.74 1553.39 4603.89C1552.72 4602.2 1551.72 4599.7 1550.39 4596.44L1547.61 4597.57Z" fill="black"/>
</svg>
