<svg width="96" height="58" viewBox="0 0 96 58" fill="none" xmlns="http://www.w3.org/2000/svg">
<path d="M43.1932 16.834L45.6482 19.0713L45.3106 19.8736L43.2545 19.7965L44.7736 21.2006L44.436 22.0029L41.1371 21.864L41.4593 21.0771L43.6842 21.1851L42.027 19.6885L42.3186 18.9787L44.5434 19.0867L42.8863 17.59L43.1932 16.834Z" fill="#EC4860"./>
<path d="M46.7682 14.6421L45.51 16.6325C45.6941 16.7097 45.8782 16.6942 46.0623 16.6171C46.2311 16.5399 46.3999 16.4165 46.5073 16.2005C46.5994 16.0616 46.6454 15.9228 46.6761 15.7839C46.7068 15.645 46.7068 15.5062 46.6761 15.3519L47.3819 15.213C47.52 15.6296 47.4279 16.0925 47.1211 16.5708C46.9369 16.864 46.7221 17.0954 46.4459 17.2497C46.1851 17.404 45.9089 17.4811 45.6327 17.4657C45.3565 17.4657 45.0803 17.3731 44.8195 17.2034C44.5586 17.0491 44.3745 16.8177 44.2364 16.5708C44.0983 16.3239 44.0523 16.0462 44.0676 15.753C44.083 15.4599 44.175 15.1821 44.3438 14.9198C44.4973 14.6575 44.7121 14.4724 44.9576 14.3181C45.2031 14.1792 45.4639 14.1175 45.7401 14.1329C46.0163 14.1484 46.2925 14.2409 46.5687 14.4107C46.584 14.5187 46.6607 14.565 46.7682 14.6421ZM44.7888 15.9073C44.8195 16.0771 44.9115 16.2468 45.0496 16.3702L45.8629 15.0587C45.6787 14.9816 45.4946 14.9661 45.3258 15.0124C45.157 15.0741 45.0036 15.1667 44.9116 15.3519C44.8195 15.5525 44.7734 15.7222 44.7888 15.9073Z" fill="#EC4860"./>
<path d="M47.6579 11.0323C47.9188 10.9397 48.1796 10.9243 48.4405 10.986C48.7167 11.0477 48.9622 11.1712 49.2077 11.3872C49.4532 11.6032 49.6219 11.8346 49.6987 12.0969C49.7907 12.3592 49.8214 12.6215 49.76 12.8838C49.6987 13.1461 49.5912 13.393 49.3918 13.609C49.1156 13.9331 48.7934 14.0874 48.4405 14.0874L48.7013 14.3188L48.1336 14.9668L44.9114 12.1278L45.5098 11.4335L46.6452 12.421C46.5992 12.0815 46.722 11.7575 46.9828 11.4643C47.1669 11.2792 47.3971 11.1249 47.6579 11.0323ZM48.9315 12.6524C48.9161 12.4364 48.7934 12.2358 48.6092 12.0661C48.4098 11.8964 48.195 11.8038 47.9955 11.8192C47.7807 11.8346 47.5966 11.9272 47.4431 12.0969C47.2897 12.2667 47.2283 12.4672 47.2436 12.6833C47.259 12.8993 47.3817 13.0999 47.5659 13.2696C47.7653 13.4393 47.9801 13.5319 48.1796 13.5165C48.3944 13.501 48.5786 13.4085 48.732 13.2387C48.9008 13.069 48.9468 12.8684 48.9315 12.6524Z" fill="#EC4860"./>
<path d="M54.2098 5.61597L55.0383 8.84075L54.3325 9.31907L52.6754 8.11556L53.1664 10.1368L52.4606 10.6152L49.7754 8.67102L50.4659 8.19271L52.2611 9.51965L51.7087 7.34408L52.3378 6.91205L54.1331 8.239L53.5807 6.06342L54.2098 5.61597Z" fill="#EC4860"./>
<path d="M58.4145 5.7852L56.2663 6.74183C56.3891 6.89612 56.5425 7.00413 56.7267 7.03499C56.9108 7.08128 57.1256 7.05042 57.3404 6.94241C57.4785 6.86527 57.6166 6.78812 57.7087 6.69554C57.8161 6.58753 57.8774 6.47953 57.9388 6.34066L58.5986 6.61839C58.4758 7.05042 58.1536 7.37444 57.6319 7.60589C57.3097 7.76018 57.0028 7.80647 56.696 7.79104C56.3891 7.77561 56.1282 7.68303 55.8981 7.52874C55.6679 7.37444 55.4838 7.143 55.361 6.84984C55.2383 6.57211 55.1923 6.29437 55.223 6.00121C55.2536 5.72348 55.3457 5.46118 55.5298 5.22973C55.6986 4.99829 55.9288 4.81313 56.2203 4.70512C56.4965 4.58169 56.7727 4.5354 57.0489 4.5354C57.3251 4.55083 57.5859 4.64341 57.8007 4.81313C58.0309 4.96743 58.215 5.2143 58.3378 5.50746C58.3378 5.56918 58.3684 5.64633 58.4145 5.7852ZM56.0822 5.73891C56.0055 5.8932 55.9902 6.07836 56.0362 6.27894L57.4325 5.64633C57.3251 5.49203 57.187 5.3686 57.0028 5.30688C56.8341 5.24516 56.6499 5.27602 56.4658 5.35317C56.2817 5.44574 56.1589 5.56918 56.0822 5.73891Z" fill="#EC4860"./>
<path d="M61.1454 3.25576C61.4063 3.3329 61.6364 3.45634 61.8359 3.65692C62.02 3.85751 62.1735 4.10438 62.2655 4.41298C62.3576 4.72157 62.3576 5.01473 62.2962 5.27703C62.2195 5.53933 62.0967 5.77078 61.8973 5.97136C61.7131 6.15652 61.4676 6.29538 61.1915 6.37253C60.7772 6.49597 60.4396 6.44968 60.1481 6.24909L60.2401 6.60397L59.4116 6.81999L58.2761 2.66943L59.1507 2.43799L59.5497 3.9038C59.7031 3.59521 59.9639 3.39462 60.3475 3.28662C60.6084 3.19404 60.8846 3.19404 61.1454 3.25576ZM61.3142 5.32332C61.4216 5.13816 61.437 4.90672 61.3602 4.64442C61.2835 4.39755 61.1761 4.21239 60.9766 4.08895C60.7925 3.96552 60.5777 3.96552 60.3629 4.0118C60.1481 4.07352 59.964 4.19696 59.8719 4.39754C59.7798 4.59813 59.7491 4.81414 59.8258 5.07645C59.9026 5.32332 60.01 5.50847 60.2094 5.63191C60.3936 5.75535 60.6084 5.75535 60.8232 5.70906C61.038 5.63191 61.2068 5.5239 61.3142 5.32332Z" fill="#EC4860"./>
<path d="M69.5844 2.39121L68.495 5.52342L67.6204 5.53885L66.8992 3.61015L66.2087 5.55427L65.3341 5.5697L64.1833 2.45293L65.0273 2.4375L65.7945 4.53592L66.531 2.40664L67.2828 2.39121L68.05 4.48963L68.7865 2.36035L69.5844 2.39121Z" fill="#EC4860"./>
<path d="M72.9757 4.86037L70.6588 4.47463C70.6742 4.67521 70.7509 4.84494 70.8736 4.96837C71.0117 5.10724 71.1958 5.18439 71.426 5.23068C71.5794 5.26154 71.7329 5.26154 71.8556 5.23068C71.9937 5.19982 72.1165 5.1381 72.2392 5.06095L72.6228 5.6627C72.2699 5.94044 71.8249 6.04844 71.2726 5.94044C70.9197 5.87872 70.6281 5.77071 70.3826 5.57013C70.1371 5.38497 69.953 5.16896 69.8609 4.89123C69.7535 4.62892 69.7228 4.33576 69.7842 4.02717C69.8456 3.71858 69.953 3.47171 70.1371 3.25569C70.3212 3.03968 70.5361 2.86995 70.8276 2.7928C71.1038 2.70023 71.3953 2.66937 71.7022 2.73108C72.0091 2.7928 72.2699 2.88538 72.4847 3.07054C72.6995 3.24026 72.8683 3.4717 72.9604 3.73401C73.0678 3.99631 73.0831 4.28947 73.0218 4.61349C73.0371 4.64435 73.0218 4.7215 72.9757 4.86037ZM71.0731 3.51799C70.9197 3.61057 70.8123 3.74944 70.7355 3.95002L72.2546 4.21232C72.2546 4.01174 72.1932 3.84201 72.0858 3.70315C71.963 3.56428 71.8096 3.4717 71.6255 3.44085C71.4107 3.39456 71.2265 3.42542 71.0731 3.51799Z" fill="#EC4860"./>
<path d="M76.6426 4.27352C76.8267 4.4741 76.9495 4.70555 76.9955 4.98328C77.0569 5.26101 77.0262 5.53875 76.9188 5.84734C76.8114 6.15593 76.6733 6.4028 76.4585 6.58796C76.259 6.77311 76.0288 6.89655 75.7527 6.94284C75.4918 6.98913 75.2156 6.9737 74.9394 6.88112C74.5251 6.75768 74.2643 6.51081 74.1415 6.18679L74.0188 6.52624L73.2056 6.24851L74.5558 2.15967L75.4151 2.45283L74.9394 3.88778C75.231 3.73348 75.5685 3.70263 75.9368 3.82606C76.2436 3.93407 76.4738 4.07294 76.6426 4.27352ZM75.6452 6.09421C75.8294 5.9862 75.9675 5.81648 76.0442 5.56961C76.1362 5.32273 76.1209 5.10672 76.0288 4.8907C75.9368 4.70555 75.7833 4.55125 75.5685 4.48954C75.3537 4.41239 75.1389 4.42782 74.9548 4.53582C74.7706 4.64383 74.6325 4.81356 74.5558 5.06043C74.4638 5.3073 74.4791 5.52332 74.5712 5.73933C74.6632 5.92449 74.8167 6.07878 75.0315 6.1405C75.2616 6.21765 75.4611 6.20222 75.6452 6.09421Z" fill="#EC4860"./>
<path d="M84.1613 8.23924L81.5375 10.2451L80.801 9.7822L81.2613 7.77635L79.6042 9.01072L78.8677 8.54783L79.6195 5.30762L80.3407 5.7705L79.819 7.94607L81.5989 6.57284L82.2433 6.98944L81.7216 9.16501L83.5015 7.79178L84.1613 8.23924Z" fill="#EC4860"./>
<path d="M85.6341 12.189L83.9156 10.5689C83.8082 10.7387 83.7929 10.9238 83.8236 11.109C83.8696 11.2941 83.977 11.4793 84.1458 11.6336C84.2685 11.757 84.3759 11.8187 84.514 11.8804C84.6521 11.9267 84.7749 11.9576 84.9283 11.9576V12.6673C84.4987 12.7136 84.0537 12.5439 83.6394 12.1582C83.3786 11.9267 83.1945 11.649 83.1024 11.3713C82.995 11.0935 82.9643 10.8004 83.041 10.5226C83.1024 10.2449 83.2252 9.99803 83.44 9.76659C83.6394 9.55057 83.8849 9.38085 84.1611 9.3037C84.4373 9.22655 84.7135 9.21112 84.9897 9.28827C85.2659 9.36542 85.5114 9.50428 85.7415 9.7203C85.9564 9.92088 86.1251 10.1678 86.2019 10.4301C86.2786 10.6924 86.3093 10.9701 86.2479 11.2478C86.1865 11.5256 86.0484 11.7724 85.8183 12.0193C85.8029 12.0502 85.7569 12.081 85.6341 12.189ZM84.7749 10.0135C84.6061 9.99803 84.422 10.0597 84.2685 10.1832L85.3886 11.2324C85.5114 11.0781 85.5421 10.8929 85.5114 10.7078C85.4807 10.5226 85.404 10.3683 85.2659 10.2295C85.1278 10.106 84.959 10.0289 84.7749 10.0135Z" fill="#EC4860"./>
<path d="M89.0099 13.7472C89.056 14.0095 89.0253 14.2719 88.9025 14.5342C88.7798 14.7965 88.611 15.0125 88.3655 15.2131C88.12 15.4136 87.8591 15.5371 87.583 15.5834C87.3068 15.6297 87.0459 15.5988 86.8004 15.4754C86.5549 15.3674 86.3401 15.1976 86.156 14.9816C85.8951 14.6422 85.7877 14.2873 85.8798 13.9633L85.6036 14.1793L85.0819 13.4849L88.4576 10.8311L89.0099 11.5408L87.8131 12.482C88.1507 12.5129 88.4422 12.6672 88.6877 12.9912C88.8565 13.2381 88.9792 13.4849 89.0099 13.7472ZM87.184 14.7039C87.3988 14.7193 87.6136 14.6576 87.8131 14.5033C88.0126 14.349 88.1353 14.1484 88.1814 13.9324C88.2121 13.7164 88.1507 13.5158 88.0126 13.3306C87.8591 13.1455 87.6904 13.0375 87.4755 13.0221C87.2607 13.0066 87.0459 13.0683 86.8465 13.2226C86.647 13.3769 86.5242 13.5775 86.4782 13.7935C86.4322 14.0095 86.5089 14.2101 86.647 14.3953C86.7851 14.5804 86.9692 14.6885 87.184 14.7039Z" fill="#EC4860"./>
<path d="M93.0759 21.2316L89.777 21.4476L89.424 20.6452L90.9124 19.2257L88.8563 19.3337L88.5034 18.5314L90.8971 16.2478L91.2346 17.0347L89.5928 18.5622L91.8177 18.4234L92.1246 19.1177L90.4981 20.6452L92.723 20.4909L93.0759 21.2316Z" fill="#EC4860"./>
<path d="M92.1401 25.3509L91.6031 23.0519C91.4343 23.1445 91.2962 23.2679 91.2195 23.4531C91.1427 23.6228 91.1274 23.8388 91.1888 24.0702C91.2348 24.2245 91.2808 24.3634 91.3576 24.4868C91.4343 24.6103 91.5263 24.6874 91.6644 24.78L91.2655 25.3663C90.8666 25.1657 90.6057 24.78 90.483 24.2245C90.3909 23.8851 90.3909 23.5611 90.4676 23.2679C90.5443 22.9747 90.6671 22.7279 90.8666 22.5273C91.066 22.3267 91.3115 22.1878 91.6184 22.1107C91.9099 22.0335 92.2015 22.049 92.4623 22.1415C92.7385 22.2341 92.9687 22.373 93.1681 22.589C93.3523 22.805 93.4904 23.0673 93.5671 23.3605C93.6438 23.6536 93.6438 23.9468 93.5671 24.2091C93.4904 24.4868 93.3676 24.7028 93.1528 24.9189C92.9533 25.104 92.6925 25.2429 92.3703 25.3355C92.3703 25.3046 92.2935 25.32 92.1401 25.3509ZM92.6158 23.0519C92.4623 22.9439 92.2935 22.8976 92.0941 22.913L92.447 24.4097C92.6311 24.3325 92.7692 24.2245 92.8613 24.0548C92.9533 23.9005 92.9687 23.7154 92.9226 23.5148C92.8613 23.3142 92.7692 23.1445 92.6158 23.0519Z" fill="#EC4860"./>
<path d="M94.104 28.4982C93.9813 28.745 93.8125 28.9456 93.5977 29.0999C93.3675 29.2542 93.0913 29.3468 92.7691 29.3622C92.4469 29.3931 92.1707 29.3468 91.9099 29.2388C91.6644 29.1154 91.4649 28.9456 91.3115 28.7296C91.158 28.4982 91.0813 28.2513 91.0506 27.9581C91.0199 27.5261 91.1273 27.2021 91.3728 26.9398L91.0046 26.9706L90.9279 26.1066L95.2088 25.7517L95.2855 26.6621L93.7818 26.7855C94.0427 26.9861 94.2114 27.2947 94.2421 27.6958C94.2728 27.989 94.2114 28.2513 94.104 28.4982ZM92.048 28.313C92.2014 28.4519 92.4316 28.4982 92.6924 28.4827C92.9532 28.4673 93.1527 28.3593 93.3062 28.205C93.4442 28.0507 93.5056 27.8501 93.4903 27.6187C93.4749 27.3872 93.3675 27.2021 93.2141 27.0632C93.0607 26.9244 92.8305 26.8781 92.5697 26.8935C92.3088 26.9089 92.1093 27.0169 91.9559 27.1712C91.8178 27.3255 91.7564 27.5261 91.7718 27.7576C91.7871 27.989 91.8792 28.1587 92.048 28.313Z" fill="#EC4860"./>
<path d="M93.3677 37.016L90.4984 35.3496L90.6519 34.4855L92.6772 34.1306L90.8973 33.0814L91.0508 32.2174L94.3037 31.6465L94.1656 32.4797L91.9714 32.8346L93.9048 33.9609L93.782 34.717L91.5878 35.0719L93.5212 36.1982L93.3677 37.016Z" fill="#EC4860"./>
<path d="M90.3295 39.9163L91.1427 37.7099C90.9586 37.679 90.7591 37.7253 90.6057 37.8333C90.4522 37.9413 90.3295 38.111 90.2374 38.327C90.1761 38.4659 90.1454 38.6202 90.1454 38.7591C90.1454 38.8979 90.1761 39.0368 90.2374 39.1757L89.5776 39.438C89.3628 39.0368 89.3628 38.5893 89.547 38.0493C89.6697 37.7099 89.8385 37.4476 90.0686 37.247C90.2835 37.0464 90.529 36.9075 90.8205 36.8458C91.0967 36.7841 91.3882 36.8149 91.6644 36.9384C91.9559 37.0464 92.1861 37.2161 92.3702 37.4321C92.539 37.6481 92.6618 37.9104 92.7078 38.1882C92.7538 38.4813 92.7078 38.7591 92.6157 39.0522C92.5237 39.3454 92.3549 39.5768 92.1554 39.7774C91.9559 39.9626 91.7104 40.086 91.4342 40.1323C91.1581 40.1786 90.8665 40.1477 90.5597 40.0397C90.5443 40.0089 90.4676 39.978 90.3295 39.9163ZM91.9866 38.2807C91.9253 38.111 91.8179 37.9722 91.6337 37.8642L91.0967 39.3145C91.2808 39.3608 91.4803 39.33 91.6184 39.2374C91.7718 39.1448 91.8946 39.0059 91.9713 38.8054C92.048 38.6202 92.048 38.435 91.9866 38.2807Z" fill="#EC4860"./>
<path d="M90.222 43.6512C89.9919 43.8055 89.7464 43.8672 89.4702 43.8672C89.194 43.8672 88.9178 43.7901 88.6416 43.6358C88.3654 43.4815 88.1506 43.2809 87.9972 43.0494C87.8437 42.818 87.7823 42.5557 87.7823 42.2934C87.7823 42.0157 87.8591 41.7534 87.9818 41.5065C88.1813 41.1207 88.4575 40.9047 88.8104 40.843L88.4882 40.6733L88.9024 39.9172L92.6464 42.0002L92.2167 42.7871L90.8971 42.0619C91.0046 42.386 90.9739 42.7254 90.7744 43.0649C90.6363 43.2963 90.4522 43.5123 90.222 43.6512ZM88.6263 42.3243C88.6876 42.5248 88.8257 42.71 89.0712 42.818C89.3014 42.9569 89.5162 42.9723 89.731 42.926C89.9305 42.8643 90.0993 42.7563 90.2067 42.5403C90.3294 42.3397 90.3294 42.1237 90.2834 41.9231C90.222 41.7225 90.0839 41.5373 89.8384 41.4293C89.6083 41.2905 89.3935 41.275 89.1786 41.3213C88.9792 41.383 88.8104 41.4911 88.703 41.7071C88.5802 41.9231 88.5649 42.1237 88.6263 42.3243Z" fill="#EC4860"./>
<path d="M84.9283 50.3309L83.4553 47.353L84.0537 46.7203L85.941 47.5535L85.0511 45.6866L85.6495 45.054L88.6876 46.3963L88.1045 47.0135L86.0791 46.1032L87.0765 48.1244L86.5548 48.6799L84.5141 47.7696L85.5114 49.7908L84.9283 50.3309Z" fill="#EC4860"./>
<path d="M80.8008 51.0576L82.7035 49.6689C82.55 49.5301 82.3812 49.4838 82.1971 49.4838C82.013 49.4838 81.8135 49.5609 81.614 49.6844C81.476 49.7924 81.3839 49.8849 81.3072 49.9929C81.2304 50.1164 81.1844 50.2398 81.1691 50.3941L80.4633 50.2552C80.5093 49.8232 80.7548 49.422 81.1998 49.0826C81.476 48.882 81.7828 48.7431 82.0744 48.6969C82.3812 48.6506 82.6574 48.6814 82.9183 48.7894C83.1791 48.9129 83.3939 49.0826 83.5934 49.3295C83.7622 49.5763 83.8696 49.8386 83.9003 50.1318C83.931 50.4095 83.8849 50.6873 83.7622 50.9496C83.6394 51.2119 83.4553 51.4279 83.1945 51.6285C82.949 51.7982 82.6881 51.9216 82.4119 51.9525C82.1357 51.9988 81.8749 51.9525 81.614 51.8445C81.3532 51.7211 81.1384 51.5359 80.9389 51.2736C80.9236 51.2427 80.8929 51.181 80.8008 51.0576ZM83.1024 50.6101C83.1484 50.4404 83.1177 50.2552 83.0257 50.0701L81.7982 50.9804C81.9516 51.1193 82.1051 51.1965 82.2738 51.2119C82.4426 51.2273 82.6267 51.1656 82.7802 51.0422C82.9336 50.9341 83.0564 50.7799 83.1024 50.6101Z" fill="#EC4860"./>
<path d="M78.6528 54.0965C78.3766 54.081 78.1311 54.0039 77.9009 53.8496C77.6708 53.7107 77.4713 53.4793 77.3332 53.1861C77.1798 52.8929 77.1184 52.6152 77.1338 52.3375C77.1491 52.0598 77.2258 51.8129 77.3639 51.5814C77.502 51.35 77.7168 51.1648 77.9777 51.0414C78.3613 50.8562 78.6988 50.8254 79.021 50.9488L78.8676 50.6248L79.6348 50.2236L81.5988 54.0502L80.8009 54.4668L80.1105 53.1244C80.0184 53.4484 79.8036 53.7107 79.4507 53.8804C79.1898 54.0502 78.929 54.1119 78.6528 54.0965ZM78.0544 52.1215C77.993 52.3221 78.0237 52.5535 78.1464 52.7849C78.2692 53.0164 78.4226 53.1707 78.6221 53.2324C78.8216 53.3095 79.0364 53.2941 79.2359 53.1707C79.4353 53.0627 79.5734 52.9084 79.6348 52.7078C79.6962 52.5072 79.6655 52.2758 79.5427 52.0443C79.42 51.8129 79.2665 51.6586 79.0671 51.5969C78.8676 51.5197 78.6528 51.5351 78.4533 51.6586C78.2539 51.7512 78.1311 51.89 78.0544 52.1215Z" fill="#EC4860"./>
<path d="M70.5819 56.7347L70.9808 53.4328L71.8248 53.2476L72.9295 54.9912L73.2057 52.9391L74.0496 52.7539L75.8295 55.5467L75.0009 55.7318L73.8195 53.834L73.5433 56.0713L72.8068 56.2564L71.6253 54.3586L71.3491 56.5804L70.5819 56.7347Z" fill="#EC4860"./>
<path d="M66.7456 55.0382L69.0932 54.9302C69.0472 54.7451 68.9398 54.5908 68.771 54.4982C68.6022 54.4056 68.4027 54.3593 68.1726 54.3593C68.0191 54.3593 67.8657 54.4056 67.7583 54.4519C67.6355 54.5136 67.5281 54.5908 67.4207 54.6988L66.9297 54.205C67.2059 53.8501 67.6202 53.665 68.1879 53.6496C68.5408 53.6341 68.8631 53.6959 69.1239 53.8039C69.4001 53.9273 69.6149 54.1125 69.7837 54.3439C69.9371 54.5753 70.0292 54.8531 70.0445 55.1617C70.0599 55.4703 69.9985 55.748 69.8757 55.9949C69.753 56.2417 69.5535 56.4423 69.308 56.5966C69.0625 56.7509 68.7863 56.8281 68.4641 56.8435C68.1572 56.8589 67.881 56.7972 67.6355 56.6892C67.39 56.5658 67.1906 56.3806 67.0218 56.1492C66.8684 55.9177 66.7916 55.6245 66.7763 55.3005C66.7456 55.2697 66.7456 55.1925 66.7456 55.0382ZM68.9091 55.9486C69.0472 55.8251 69.1239 55.6708 69.1392 55.4703L67.6049 55.5474C67.6509 55.7326 67.743 55.9023 67.881 56.0103C68.0345 56.1337 68.2033 56.1646 68.3874 56.1646C68.6022 56.1183 68.771 56.072 68.9091 55.9486Z" fill="#EC4860"./>
<path d="M63.2934 56.3799C63.0786 56.2256 62.9098 56.0096 62.8024 55.7627C62.695 55.5159 62.649 55.2227 62.695 54.8987C62.7411 54.5747 62.8178 54.3124 62.9866 54.0809C63.14 53.8649 63.3548 53.6797 63.6003 53.5872C63.8458 53.4792 64.122 53.4329 64.3982 53.4637C64.8278 53.51 65.1194 53.6797 65.3342 53.9729L65.3802 53.618L66.2395 53.7106L65.7791 58L64.8738 57.9074L65.0273 56.3954C64.7818 56.6114 64.4442 56.7194 64.0453 56.6731C63.7691 56.6268 63.5082 56.5496 63.2934 56.3799ZM63.8765 54.3895C63.7231 54.5438 63.6156 54.729 63.585 54.9913C63.5543 55.2536 63.6156 55.4696 63.7384 55.6547C63.8612 55.8245 64.0453 55.9325 64.2754 55.9479C64.5056 55.9787 64.7051 55.917 64.8738 55.7782C65.0426 55.6239 65.1347 55.4387 65.1654 55.1764C65.1961 54.9141 65.15 54.6981 65.0119 54.5129C64.8739 54.3432 64.7051 54.2352 64.4749 54.2198C64.2448 54.2043 64.0453 54.2506 63.8765 54.3895Z" fill="#EC4860"./>
<path d="M55.1151 54.0807L57.2786 51.5503L58.0918 51.8589L58.0611 53.9265L59.4267 52.3681L60.24 52.6767L60.1939 55.994L59.396 55.6854L59.4574 53.4481L57.9844 55.1454L57.2633 54.8677L57.3093 52.6304L55.8516 54.3276L55.1151 54.0807Z" fill="#EC4860"./>
<path d="M52.8445 50.5321L54.8546 51.7356C54.9159 51.5505 54.9159 51.3653 54.8239 51.1802C54.7318 50.995 54.6091 50.8562 54.3942 50.7327C54.2408 50.6401 54.1181 50.6093 53.98 50.5784C53.8419 50.5476 53.7038 50.563 53.5503 50.5939L53.3969 49.8841C53.8112 49.7452 54.2715 49.8224 54.7472 50.1155C55.054 50.2853 55.2688 50.5167 55.453 50.779C55.6064 51.0413 55.6985 51.3036 55.6985 51.5968C55.6985 51.8745 55.6218 52.1522 55.4683 52.4145C55.3149 52.6768 55.1001 52.8774 54.8546 53.0163C54.6091 53.1552 54.3329 53.2015 54.0567 53.2015C53.7651 53.186 53.489 53.0934 53.2281 52.9391C52.9673 52.7849 52.7678 52.5843 52.6144 52.3374C52.4609 52.106 52.3995 51.8436 52.4149 51.5505C52.4149 51.2728 52.5069 50.9796 52.6757 50.7019C52.7218 50.7173 52.7678 50.6556 52.8445 50.5321ZM54.1487 52.4917C54.3175 52.4608 54.4863 52.3683 54.6091 52.214L53.2895 51.4271C53.2128 51.6122 53.1974 51.7974 53.2588 51.9671C53.3202 52.1368 53.4276 52.2757 53.6117 52.3837C53.7805 52.4763 53.98 52.5225 54.1487 52.4917Z" fill="#EC4860"./>
<path d="M49.2233 49.7296C49.1158 49.4827 49.1005 49.2204 49.1465 48.9427C49.2079 48.665 49.3153 48.4181 49.5301 48.1712C49.7296 47.9244 49.9598 47.7392 50.2206 47.6621C50.4815 47.554 50.7423 47.5386 51.0031 47.5849C51.264 47.6312 51.5095 47.7392 51.7397 47.9398C52.0772 48.2175 52.2306 48.5261 52.2306 48.881L52.4608 48.6033L53.1206 49.1587L50.374 52.4761L49.6682 51.8898L50.6195 50.7171C50.282 50.7634 49.9598 50.6554 49.6529 50.4085C49.4841 50.2079 49.3307 49.9765 49.2233 49.7296ZM50.8037 48.4181C50.5889 48.449 50.3894 48.557 50.2359 48.7576C50.0672 48.9581 49.9904 49.1742 50.0058 49.3902C50.0211 49.6062 50.1285 49.7913 50.2973 49.9302C50.4661 50.0691 50.6809 50.1308 50.8804 50.1154C51.0952 50.0845 51.2947 49.9765 51.4481 49.7759C51.6169 49.5753 51.6936 49.3593 51.6783 49.1433C51.6629 48.9273 51.5555 48.7421 51.3867 48.6033C51.218 48.4335 51.0185 48.3872 50.8037 48.4181Z" fill="#EC4860"./>
<path d="M47.4587 19.2097L49.4227 20.9995L49.1619 21.6476L47.5201 21.5859L48.7322 22.7122L48.4714 23.3603L45.8169 23.2523L46.0777 22.6197L47.8576 22.7122L46.5227 21.5087L46.7529 20.9378L48.5328 21.0304L47.1978 19.8269L47.4587 19.2097Z" fill="#EC4860"./>
<path d="M50.3282 17.4669L49.3155 19.0716C49.469 19.1333 49.6071 19.1179 49.7605 19.0561C49.8986 18.9944 50.0214 18.8864 50.1288 18.7321C50.2055 18.6241 50.2515 18.5161 50.2669 18.4081C50.2822 18.3001 50.2822 18.1921 50.2669 18.0686L50.8192 17.9606C50.9267 18.3001 50.8499 18.6704 50.6198 19.0561C50.4663 19.2876 50.2975 19.4727 50.0827 19.5962C49.8679 19.7196 49.6531 19.7813 49.423 19.7813C49.2081 19.7813 48.978 19.7196 48.7632 19.5653C48.5484 19.4419 48.3949 19.2567 48.3029 19.0561C48.2108 18.8556 48.1494 18.6395 48.1801 18.3927C48.1954 18.1612 48.2722 17.9298 48.3949 17.7292C48.5177 17.5132 48.6864 17.3589 48.8859 17.2509C49.0854 17.1429 49.3002 17.0812 49.515 17.0966C49.7298 17.112 49.96 17.1737 50.1748 17.3126C50.1748 17.3589 50.2362 17.3897 50.3282 17.4669ZM48.7478 18.4698C48.7785 18.6087 48.8399 18.7321 48.9626 18.8401L49.6071 17.7909C49.4536 17.7292 49.3155 17.7138 49.1775 17.7601C49.0394 17.8063 48.9166 17.8835 48.8399 18.0378C48.7632 18.1767 48.7325 18.3155 48.7478 18.4698Z" fill="#EC4860"./>
<path d="M51.0337 14.5656C51.2485 14.4885 51.448 14.4885 51.6628 14.5348C51.8776 14.5811 52.0771 14.6891 52.2765 14.8588C52.476 15.0285 52.5988 15.2291 52.6755 15.4297C52.7522 15.6457 52.7675 15.8463 52.7215 16.0623C52.6755 16.2783 52.5834 16.4789 52.43 16.6486C52.2152 16.9109 51.9543 17.0344 51.6781 17.0189L51.8929 17.2041L51.4326 17.7287L48.8549 15.4605L49.3305 14.9051L50.2358 15.7074C50.2051 15.4451 50.2972 15.1828 50.4967 14.9514C50.6501 14.7662 50.8342 14.6273 51.0337 14.5656ZM52.0617 15.8617C52.0464 15.692 51.9543 15.5377 51.8009 15.3988C51.6321 15.26 51.4787 15.1828 51.3099 15.1982C51.1411 15.2137 50.9877 15.2754 50.8649 15.4297C50.7422 15.5685 50.6961 15.7228 50.6961 15.8926C50.7115 16.0623 50.8035 16.2166 50.957 16.3555C51.1258 16.4943 51.2792 16.5715 51.448 16.556C51.6168 16.5406 51.7702 16.4789 51.8929 16.3246C52.031 16.1857 52.0771 16.0314 52.0617 15.8617Z" fill="#EC4860"./>
<path d="M56.2968 10.2139L56.9566 12.7906L56.3889 13.1763L55.0539 12.2043L55.4375 13.8244L54.8698 14.2101L52.7217 12.6517L53.2741 12.266L54.7164 13.3306L54.2714 11.5871L54.7778 11.2477L56.2201 12.3123L55.7751 10.5687L56.2968 10.2139Z" fill="#EC4860"./>
<path d="M59.6571 10.3683L57.9385 11.1398C58.0306 11.2633 58.1534 11.3558 58.3068 11.3713C58.4602 11.4021 58.629 11.3867 58.7978 11.2941C58.9206 11.2324 59.0126 11.1707 59.0893 11.0935C59.1661 11.0164 59.2274 10.9238 59.2735 10.8158L59.7952 11.0318C59.6877 11.3713 59.4422 11.649 59.0126 11.8187C58.7518 11.9422 58.5063 11.9885 58.2608 11.973C58.0153 11.9576 57.8005 11.8959 57.6163 11.757C57.4322 11.6336 57.2941 11.4484 57.1867 11.217C57.0946 11.001 57.0486 10.7695 57.0793 10.5381C57.0946 10.3221 57.1867 10.106 57.3248 9.92089C57.4629 9.73573 57.647 9.59687 57.8772 9.50429C58.092 9.41171 58.3221 9.36542 58.537 9.38085C58.7518 9.39628 58.9666 9.47343 59.1507 9.59687C59.3348 9.7203 59.4729 9.90546 59.5803 10.1523C59.5957 10.1832 59.6264 10.2449 59.6571 10.3683ZM57.7851 10.3221C57.7237 10.4455 57.7084 10.5844 57.7544 10.7541L58.8745 10.2449C58.7978 10.1215 58.6751 10.0289 58.537 9.98261C58.3989 9.93632 58.2608 9.96718 58.1073 10.0135C57.9539 10.0906 57.8465 10.1832 57.7851 10.3221Z" fill="#EC4860"./>
<path d="M61.8357 8.33198C62.0505 8.3937 62.2346 8.5017 62.3881 8.64057C62.5415 8.81029 62.6642 9.01088 62.7256 9.24232C62.8023 9.4892 62.8023 9.72064 62.7563 9.93665C62.6949 10.1527 62.5875 10.3378 62.4494 10.4921C62.296 10.6464 62.0965 10.7544 61.8817 10.8161C61.5595 10.9087 61.268 10.8779 61.0378 10.7081L61.1145 10.9859L60.4547 11.171L59.5494 7.83823L60.2553 7.65308L60.5775 8.82572C60.7002 8.57885 60.915 8.40912 61.2219 8.33198C61.406 8.28569 61.6362 8.28569 61.8357 8.33198ZM61.9891 9.99837C62.0658 9.84408 62.0812 9.67435 62.0198 9.45834C61.9584 9.25775 61.8664 9.10346 61.7129 9.01088C61.5595 8.9183 61.3907 8.90287 61.2219 8.94916C61.0531 8.99545 60.915 9.10346 60.823 9.25775C60.7463 9.41205 60.7309 9.58177 60.7923 9.79779C60.8537 9.99837 60.9457 10.1527 61.0992 10.2452C61.2526 10.3378 61.4214 10.3533 61.5902 10.307C61.759 10.2452 61.8971 10.1527 61.9891 9.99837Z" fill="#EC4860"./>
<path d="M68.6022 7.6377L67.7276 10.1527L67.0218 10.1681L66.4387 8.62519L65.8863 10.1836L65.1805 10.199L64.2599 7.69942L64.935 7.68398L65.5488 9.36581L66.1318 7.66855L66.7456 7.65313L67.3593 9.33495L67.9424 7.6377H68.6022Z" fill="#EC4860"./>
<path d="M71.3337 9.61235L69.4771 9.30376C69.4925 9.47349 69.5538 9.59693 69.6459 9.70493C69.7533 9.81294 69.9067 9.87466 70.0909 9.92095C70.2136 9.93638 70.3364 9.93638 70.4438 9.92095C70.5512 9.89009 70.6586 9.8438 70.7507 9.79751L71.0575 10.2758C70.7813 10.4918 70.4131 10.5844 69.9681 10.5073C69.6919 10.461 69.4618 10.3684 69.2623 10.2141C69.0628 10.0598 68.9247 9.89009 68.848 9.67407C68.7713 9.45806 68.7406 9.22661 68.7866 8.97974C68.8327 8.73287 68.9247 8.53228 69.0628 8.36256C69.2163 8.19283 69.3851 8.05397 69.6152 7.99225C69.83 7.9151 70.0755 7.89967 70.321 7.94596C70.5665 7.99225 70.7813 8.0694 70.9501 8.20826C71.1189 8.34713 71.257 8.51685 71.3337 8.73287C71.4104 8.94888 71.4258 9.18033 71.3798 9.44263C71.3798 9.44263 71.3644 9.50435 71.3337 9.61235ZM69.7993 8.54771C69.6766 8.62486 69.5845 8.73287 69.5385 8.88716L70.7507 9.08775C70.7507 8.91802 70.7046 8.79459 70.6126 8.67115C70.5205 8.54771 70.3977 8.48599 70.2443 8.45514C70.0602 8.43971 69.9221 8.47057 69.7993 8.54771Z" fill="#EC4860"./>
<path d="M74.2643 9.14989C74.4177 9.31962 74.5098 9.50477 74.5405 9.72078C74.5865 9.9368 74.5712 10.1682 74.4791 10.4151C74.4024 10.662 74.2796 10.8626 74.1109 11.0014C73.9421 11.1557 73.758 11.2483 73.5431 11.2792C73.3283 11.31 73.1135 11.31 72.8834 11.2329C72.5611 11.1249 72.3463 10.9397 72.2389 10.6774L72.1469 10.9397L71.4871 10.7237L72.5611 7.45264L73.2516 7.68408L72.868 8.8413C73.0982 8.71786 73.3744 8.687 73.6659 8.79501C73.9421 8.87216 74.1262 8.99559 74.2643 9.14989ZM73.4664 10.6157C73.6199 10.5386 73.7273 10.3997 73.7886 10.1991C73.8654 9.99852 73.85 9.82879 73.7733 9.65907C73.6966 9.50477 73.5738 9.39676 73.405 9.33505C73.2363 9.27333 73.0675 9.28876 72.914 9.3659C72.7606 9.44305 72.6532 9.58192 72.5918 9.7825C72.5151 9.98309 72.5305 10.1528 72.6072 10.3225C72.6839 10.4768 72.8066 10.5848 72.9754 10.6466C73.1442 10.7083 73.313 10.6928 73.4664 10.6157Z" fill="#EC4860"./>
<path d="M80.2795 12.3282L78.1774 13.9329L77.5943 13.5626L77.9626 11.9579L76.643 12.9454L76.0599 12.5751L76.6583 9.98291L77.2261 10.3532L76.8118 12.0968L78.2388 11.0013L78.7605 11.3407L78.3462 13.0843L79.7731 11.9888L80.2795 12.3282Z" fill="#EC4860"./>
<path d="M81.4609 15.4912L80.0799 14.1951C80.0032 14.334 79.9725 14.4729 80.0186 14.6272C80.0493 14.7815 80.1413 14.9203 80.2794 15.0438C80.3715 15.1363 80.4635 15.1981 80.5709 15.2444C80.6783 15.2752 80.7858 15.3061 80.8932 15.3061V15.877C80.5403 15.9078 80.1873 15.769 79.8651 15.4758C79.6503 15.2906 79.5122 15.0592 79.4355 14.8432C79.3588 14.6272 79.3281 14.3803 79.3895 14.1643C79.4355 13.9483 79.5429 13.7477 79.7117 13.5471C79.8805 13.3774 80.0799 13.2385 80.2948 13.1768C80.5096 13.1151 80.7397 13.0996 80.9545 13.1614C81.1693 13.2231 81.3688 13.3311 81.5683 13.5162C81.7371 13.686 81.8752 13.8866 81.9365 14.0871C82.0133 14.3031 82.0133 14.5192 81.9672 14.7506C81.9212 14.9666 81.7984 15.1672 81.6143 15.3678C81.6143 15.3678 81.5529 15.4141 81.4609 15.4912ZM80.7704 13.7477C80.6323 13.7323 80.4942 13.7785 80.3561 13.8865L81.2614 14.7352C81.3535 14.6117 81.3842 14.4729 81.3688 14.3186C81.3381 14.1643 81.2921 14.0563 81.1694 13.9328C81.0619 13.8094 80.9238 13.7631 80.7704 13.7477Z" fill="#EC4860"./>
<path d="M84.1765 16.7418C84.2072 16.9578 84.1918 17.1584 84.0998 17.3744C84.0077 17.5904 83.8696 17.7601 83.6702 17.9144C83.4707 18.0842 83.2559 18.1767 83.0411 18.2076C82.8262 18.2385 82.6114 18.223 82.412 18.1304C82.2125 18.0533 82.0437 17.9144 81.8903 17.7293C81.6755 17.467 81.5987 17.1738 81.6601 16.9115L81.4453 17.0812L81.031 16.5258L83.7315 14.3965L84.1765 14.9674L83.2252 15.7234C83.486 15.7389 83.7315 15.8777 83.931 16.1246C84.0537 16.3252 84.1458 16.5258 84.1765 16.7418ZM82.7035 17.4978C82.8723 17.5133 83.0411 17.467 83.2098 17.3281C83.3786 17.2047 83.4707 17.0504 83.5014 16.8652C83.5167 16.6955 83.4707 16.5412 83.3786 16.3869C83.2559 16.2326 83.1178 16.1555 82.949 16.14C82.7802 16.1246 82.6114 16.1709 82.4426 16.3098C82.2739 16.4332 82.1818 16.5875 82.1511 16.7726C82.1204 16.9424 82.1818 17.0967 82.2739 17.251C82.3966 17.4053 82.5347 17.4978 82.7035 17.4978Z" fill="#EC4860"./>
<path d="M87.4293 22.728L84.7748 22.8977L84.4986 22.2497L85.6954 21.1079L84.0537 21.2005L83.7775 20.5524L85.6954 18.7163L85.9716 19.3489L84.6521 20.5679L86.432 20.4598L86.6774 21.0153L85.3732 22.2343L87.1531 22.1108L87.4293 22.728Z" fill="#EC4860"./>
<path d="M86.6777 26.0306L86.2481 24.1945C86.11 24.2717 86.0026 24.3642 85.9412 24.5185C85.8798 24.6574 85.8645 24.8271 85.9258 25.0123C85.9565 25.1357 86.0026 25.2437 86.0639 25.3363C86.1253 25.4289 86.202 25.506 86.3094 25.5677L86.0026 26.0306C85.6803 25.8609 85.4809 25.5677 85.3735 25.1203C85.2967 24.858 85.2967 24.5957 85.3581 24.3642C85.4195 24.1328 85.5269 23.9322 85.6803 23.7625C85.8491 23.5928 86.0486 23.4847 86.2787 23.4385C86.5089 23.3767 86.7391 23.3922 86.9539 23.4539C87.1687 23.531 87.3682 23.639 87.5216 23.8088C87.675 23.9785 87.7824 24.1945 87.8438 24.426C87.9052 24.6574 87.9052 24.8888 87.8438 25.1049C87.7824 25.3209 87.675 25.506 87.5063 25.6757C87.3375 25.83 87.138 25.9381 86.8772 25.9998C86.8618 25.9998 86.8004 26.0152 86.6777 26.0306ZM87.0613 24.1945C86.9385 24.1174 86.8004 24.0711 86.647 24.0711L86.9232 25.2591C87.0766 25.1974 87.184 25.1049 87.2454 24.9814C87.3068 24.858 87.3221 24.7191 87.2914 24.5494C87.2454 24.3951 87.184 24.2717 87.0613 24.1945Z" fill="#EC4860"./>
<path d="M88.258 28.5604C88.166 28.761 88.0279 28.9307 87.8437 29.0387C87.6596 29.1621 87.4295 29.2393 87.184 29.2547C86.9231 29.2856 86.7083 29.2393 86.4935 29.1467C86.294 29.0541 86.1252 28.9153 86.0178 28.7301C85.8951 28.545 85.8337 28.3444 85.803 28.1129C85.7723 27.7735 85.8644 27.4957 86.0638 27.3106L85.7723 27.3414L85.7109 26.6471L89.1326 26.3694L89.194 27.0946L87.9972 27.1872C88.212 27.3569 88.3347 27.6038 88.3654 27.9123C88.3808 28.1438 88.3347 28.3598 88.258 28.5604ZM86.6162 28.4061C86.739 28.5141 86.9231 28.5604 87.1226 28.545C87.3374 28.5295 87.4908 28.4524 87.6136 28.3135C87.7363 28.1901 87.7824 28.0358 87.767 27.8506C87.7517 27.6655 87.675 27.5266 87.5369 27.4032C87.4141 27.2952 87.23 27.2489 87.0305 27.2643C86.8157 27.2797 86.6623 27.3569 86.5395 27.4957C86.4168 27.6192 86.3707 27.7735 86.3861 27.9586C86.4014 28.1438 86.4628 28.2827 86.6162 28.4061Z" fill="#EC4860"./>
<path d="M87.6596 35.3805L85.358 34.0535L85.4808 33.3592L87.1072 33.066L85.6802 32.2329L85.803 31.5385L88.4115 31.0911L88.3041 31.7545L86.5395 32.0477L88.0892 32.9426L87.9818 33.5598L86.2173 33.853L87.767 34.7479L87.6596 35.3805Z" fill="#EC4860"./>
<path d="M85.2199 37.7104L85.8644 35.936C85.7109 35.9205 85.5575 35.9514 85.4348 36.0285C85.312 36.1057 85.2199 36.2446 85.1432 36.4297C85.0972 36.5531 85.0665 36.6612 85.0665 36.7692C85.0665 36.8772 85.0972 36.9852 85.1432 37.0932L84.6215 37.3092C84.4528 37.0006 84.4374 36.6303 84.5908 36.1983C84.6829 35.9205 84.821 35.72 85.0051 35.5502C85.1739 35.3805 85.3734 35.2725 85.6035 35.2262C85.8184 35.1799 86.0639 35.1953 86.2787 35.2879C86.5088 35.3651 86.693 35.5039 86.8464 35.6891C86.9845 35.8588 87.0766 36.0748 87.1226 36.2908C87.1533 36.5223 87.1226 36.7537 87.0459 36.9852C86.9691 37.2166 86.831 37.4018 86.6776 37.5561C86.5088 37.7104 86.3094 37.8029 86.0945 37.8338C85.8797 37.8647 85.6342 37.8492 85.3887 37.7567C85.4041 37.7721 85.3427 37.7567 85.2199 37.7104ZM86.5549 36.3834C86.5088 36.2446 86.4168 36.1365 86.2787 36.0594L85.849 37.2166C86.0025 37.2475 86.1559 37.232 86.2633 37.1549C86.3861 37.0778 86.4781 36.9697 86.5395 36.8154C86.6009 36.6766 86.6009 36.5223 86.5549 36.3834Z" fill="#EC4860"./>
<path d="M85.143 40.7036C84.9588 40.827 84.7594 40.8733 84.5446 40.8887C84.3297 40.8887 84.0996 40.827 83.8848 40.7036C83.67 40.5802 83.4858 40.4259 83.3631 40.2407C83.2403 40.0556 83.1943 39.8395 83.179 39.639C83.179 39.4229 83.2403 39.2069 83.3477 39.0063C83.5165 38.6977 83.7313 38.528 84.0075 38.4817L83.7467 38.312L84.0842 37.6948L87.0916 39.3612L86.7387 39.9938L85.68 39.4075C85.7567 39.6698 85.7414 39.9321 85.5726 40.2098C85.4805 40.4104 85.3271 40.5802 85.143 40.7036ZM83.8694 39.639C83.9155 39.8087 84.0382 39.9475 84.2223 40.0401C84.4065 40.1481 84.5906 40.1636 84.744 40.1327C84.9128 40.0864 85.0356 39.9938 85.1276 39.8241C85.2197 39.6544 85.235 39.5001 85.189 39.3304C85.143 39.1606 85.0202 39.0218 84.8361 38.9292C84.652 38.8212 84.4678 38.8058 84.3144 38.8366C84.1456 38.8829 84.0229 38.9755 83.9308 39.1452C83.8234 39.2995 83.8081 39.4692 83.8694 39.639Z" fill="#EC4860"./>
<path d="M80.908 46.0412L79.7266 43.6496L80.2022 43.1405L81.7059 43.8039L80.9848 42.3073L81.4604 41.7981L83.8848 42.8782L83.4244 43.3719L81.798 42.6313L82.5959 44.2514L82.1816 44.6989L80.5398 43.9582L81.3377 45.5783L80.908 46.0412Z" fill="#EC4860"./>
<path d="M77.594 46.6276L79.1131 45.5167C78.9903 45.4086 78.8522 45.3624 78.6988 45.3624C78.5453 45.3624 78.3919 45.4241 78.2385 45.5321C78.1311 45.6092 78.0543 45.7018 77.993 45.779C77.9316 45.8715 77.9009 45.9795 77.8702 46.103L77.3025 45.9795C77.3332 45.6247 77.5327 45.3161 77.9009 45.0383C78.1157 44.8686 78.3612 44.7606 78.6067 44.7297C78.8522 44.6989 79.067 44.7143 79.2819 44.7915C79.4967 44.884 79.6654 45.0229 79.8189 45.2235C79.957 45.4241 80.049 45.6401 80.0644 45.8715C80.0951 46.0875 80.049 46.319 79.957 46.535C79.8649 46.751 79.7115 46.9207 79.4967 47.075C79.2972 47.2139 79.0824 47.3065 78.8676 47.3373C78.6528 47.3682 78.4379 47.3373 78.2231 47.2448C78.0083 47.1522 77.8395 46.9979 77.6861 46.7819C77.6861 46.7819 77.6707 46.7202 77.594 46.6276ZM79.4353 46.2727C79.466 46.1338 79.4506 45.995 79.3739 45.8407L78.3919 46.5659C78.5147 46.6893 78.6374 46.7356 78.7755 46.751C78.9136 46.7665 79.0517 46.7202 79.1898 46.6276C79.3125 46.535 79.4046 46.4116 79.4353 46.2727Z" fill="#EC4860"./>
<path d="M75.8753 49.0662C75.6605 49.0508 75.461 49.0045 75.2615 48.8657C75.0774 48.7422 74.924 48.5725 74.8012 48.341C74.6785 48.1096 74.6324 47.8782 74.6324 47.6621C74.6478 47.4461 74.6938 47.2455 74.8166 47.045C74.9393 46.8598 75.0928 46.7209 75.3076 46.6129C75.6145 46.4586 75.8906 46.4278 76.1515 46.5358L76.0287 46.2735L76.6425 45.9495L78.2229 49.0199L77.5785 49.344L77.0261 48.2639C76.9494 48.5262 76.7806 48.7268 76.5044 48.8811C76.3049 49.0199 76.0901 49.0662 75.8753 49.0662ZM75.3843 47.477C75.3383 47.6467 75.369 47.8164 75.461 48.0016C75.5531 48.1868 75.6758 48.3102 75.8446 48.3565C76.0134 48.4182 76.1668 48.4028 76.3356 48.3102C76.5044 48.233 76.5965 48.0942 76.6425 47.9399C76.6885 47.7702 76.6578 47.6004 76.5658 47.4153C76.4737 47.2301 76.351 47.1067 76.1822 47.045C76.0134 46.9832 75.86 46.9987 75.6912 47.0913C75.5531 47.1838 75.4457 47.3073 75.3843 47.477Z" fill="#EC4860"./>
<path d="M69.4006 51.1802L69.7229 48.5418L70.398 48.3875L71.2879 49.7762L71.5027 48.1406L72.1779 47.9863L73.6049 50.2236L72.9451 50.3779L71.9938 48.8504L71.7789 50.6402L71.1805 50.7791L70.2445 49.267L70.0297 51.0568L69.4006 51.1802Z" fill="#EC4860"./>
<path d="M66.3317 49.8076L68.2036 49.715C68.1729 49.5607 68.0809 49.4527 67.9428 49.3601C67.82 49.2829 67.6512 49.2367 67.4671 49.2367C67.3444 49.2367 67.2216 49.2675 67.1295 49.3138C67.0375 49.3601 66.9454 49.4218 66.8687 49.5144L66.4698 49.1132C66.6846 48.8355 67.0221 48.6812 67.4825 48.6658C67.7586 48.6503 68.0195 48.6966 68.2343 48.7892C68.4491 48.8972 68.6332 49.0361 68.756 49.2212C68.8787 49.4064 68.9555 49.6378 68.9708 49.8847C68.9862 50.1316 68.9401 50.3476 68.8327 50.5482C68.7253 50.7488 68.5719 50.9185 68.3724 51.0265C68.1729 51.1499 67.9581 51.2116 67.6973 51.2271C67.4518 51.2425 67.2369 51.1962 67.0375 51.1036C66.838 51.0111 66.6692 50.8568 66.5465 50.6716C66.4237 50.4865 66.3623 50.255 66.347 49.9927C66.3317 50.0081 66.3317 49.9464 66.3317 49.8076ZM68.0655 50.5482C68.1729 50.4556 68.2343 50.3322 68.2496 50.1624L67.0221 50.2242C67.0528 50.3785 67.1295 50.5019 67.2523 50.5945C67.375 50.687 67.5131 50.7179 67.6666 50.7179C67.82 50.687 67.9581 50.6407 68.0655 50.5482Z" fill="#EC4860"./>
<path d="M63.5545 50.9033C63.3857 50.7799 63.2476 50.6101 63.1555 50.4096C63.0788 50.209 63.0328 49.9775 63.0788 49.7152C63.1095 49.4529 63.1862 49.2523 63.3089 49.0518C63.4317 48.882 63.6005 48.7277 63.8 48.6506C63.9994 48.5734 64.2142 48.5271 64.4444 48.558C64.782 48.5889 65.0275 48.7277 65.1962 48.9592L65.2269 48.6814L65.9174 48.7586L65.5492 52.1994L64.828 52.1222L64.9507 50.9187C64.7513 51.0885 64.4904 51.181 64.1682 51.1502C63.9534 51.1039 63.7386 51.0267 63.5545 50.9033ZM64.0301 49.2986C63.9074 49.4221 63.8153 49.5764 63.8 49.7769C63.7846 49.993 63.8306 50.1627 63.9227 50.3016C64.0148 50.4404 64.1682 50.5176 64.3523 50.533C64.5365 50.5484 64.6899 50.5021 64.828 50.3941C64.9661 50.2707 65.0428 50.1164 65.0582 49.9158C65.0735 49.7152 65.0428 49.5301 64.9354 49.3912C64.828 49.2523 64.6899 49.1752 64.5058 49.1598C64.3216 49.1443 64.1682 49.1906 64.0301 49.2986Z" fill="#EC4860"./>
<path d="M57.0181 49.0498L58.7519 47.0286L59.4117 47.2754L59.3964 48.9264L60.4858 47.6766L61.1456 47.9235L61.0995 50.5928L60.4551 50.3459L60.5165 48.5561L59.335 49.9139L58.7673 49.6979L58.8133 47.9081L57.6472 49.2659L57.0181 49.0498Z" fill="#EC4860"./>
<path d="M55.1921 46.2114L56.8032 47.1834C56.8492 47.0291 56.8492 46.8903 56.7725 46.736C56.6958 46.5817 56.6037 46.4737 56.4349 46.3657C56.3122 46.2885 56.2201 46.2576 56.1127 46.2422C56.0053 46.2268 55.8979 46.2268 55.7752 46.2576L55.6524 45.7022C55.99 45.5942 56.3582 45.6559 56.7418 45.8873C56.9873 46.0262 57.1561 46.1959 57.3096 46.4119C57.4323 46.628 57.509 46.8285 57.509 47.0754C57.509 47.2914 57.4476 47.5229 57.3249 47.7389C57.2021 47.9549 57.0334 48.1092 56.8339 48.2172C56.6344 48.3252 56.4196 48.3715 56.1895 48.3715C55.9593 48.3561 55.7291 48.2944 55.5297 48.1555C55.3148 48.032 55.1614 47.8778 55.0387 47.6772C54.9159 47.492 54.8699 47.276 54.8699 47.0446C54.8699 46.8285 54.9313 46.5817 55.0847 46.3657C55.1 46.3657 55.1307 46.3194 55.1921 46.2114ZM56.2355 47.7697C56.3736 47.7389 56.4963 47.6772 56.6037 47.5383L55.545 46.9057C55.4836 47.06 55.4683 47.1989 55.5297 47.3377C55.5757 47.4766 55.6678 47.5846 55.8059 47.6617C55.9439 47.7697 56.0974 47.8006 56.2355 47.7697Z" fill="#EC4860"./>
<path d="M52.2918 45.5645C52.2151 45.364 52.1997 45.1479 52.2304 44.9319C52.2764 44.7159 52.3685 44.5153 52.5373 44.3148C52.7061 44.1142 52.8902 43.9753 53.0897 43.8982C53.3045 43.821 53.5039 43.8056 53.7187 43.8364C53.9336 43.8673 54.133 43.9599 54.3018 44.1142C54.578 44.3302 54.7008 44.5771 54.7008 44.8702L54.8849 44.6542L55.4066 45.1017L53.2124 47.7556L52.6447 47.2927L53.4119 46.3515C53.151 46.3823 52.8902 46.3052 52.6447 46.1046C52.5066 45.9503 52.3685 45.7651 52.2918 45.5645ZM53.5653 44.5153C53.3965 44.5462 53.2431 44.6233 53.105 44.7931C52.9669 44.9628 52.9055 45.1171 52.9209 45.3022C52.9362 45.472 53.0129 45.6263 53.151 45.7343C53.2891 45.8577 53.4579 45.904 53.6113 45.8886C53.7801 45.8577 53.9336 45.7806 54.0717 45.6108C54.2098 45.4411 54.2711 45.2868 54.2558 45.1017C54.2404 44.9319 54.1637 44.7776 54.0256 44.6696C53.8875 44.5308 53.7341 44.4845 53.5653 44.5153Z" fill="#EC4860"./>
<path d="M52.0312 21.5398L53.5503 22.9285L53.3508 23.4222L52.0773 23.3759L53.0132 24.24L52.8138 24.7337L50.7577 24.6411L50.9572 24.1474L52.3381 24.2091L51.3101 23.2679L51.4942 22.8359L52.8751 22.8976L51.8471 21.9564L52.0312 21.5398Z" fill="#EC4860"./>
<path d="M54.2561 20.1663L53.4735 21.4007C53.5963 21.447 53.7037 21.4315 53.8111 21.3852C53.9185 21.339 54.0259 21.2618 54.0873 21.1229C54.1487 21.0458 54.1794 20.9532 54.1947 20.8606C54.21 20.7835 54.21 20.6909 54.1947 20.5983L54.6243 20.5212C54.701 20.7835 54.655 21.0612 54.4709 21.3698C54.3481 21.555 54.2254 21.6938 54.0566 21.7864C53.8878 21.879 53.719 21.9253 53.5503 21.9253C53.3815 21.9253 53.2127 21.879 53.0439 21.7556C52.8751 21.663 52.7677 21.5241 52.6757 21.3698C52.5989 21.2155 52.5529 21.0458 52.5682 20.8606C52.5836 20.6755 52.645 20.5058 52.737 20.336C52.8291 20.1663 52.9672 20.0583 53.1206 19.9657C53.2741 19.8886 53.4428 19.8423 53.6116 19.8423C53.7804 19.8577 53.9492 19.904 54.1333 20.012C54.1333 20.0892 54.1794 20.12 54.2561 20.1663ZM53.0132 20.9532C53.0286 21.0612 53.0899 21.1692 53.182 21.2464L53.6883 20.4286C53.5656 20.3823 53.4582 20.3669 53.3508 20.3978C53.2434 20.4286 53.1513 20.5058 53.0899 20.6138C53.0439 20.7218 53.0132 20.8452 53.0132 20.9532Z" fill="#EC4860"./>
<path d="M54.793 17.9298C54.9618 17.8681 55.1152 17.8681 55.284 17.8989C55.4528 17.9298 55.6062 18.0224 55.7597 18.1458C55.9131 18.2847 56.0205 18.4235 56.0665 18.5933C56.1279 18.763 56.1433 18.9173 56.0972 19.087C56.0512 19.2567 55.9898 19.411 55.8671 19.5499C55.6983 19.7505 55.4988 19.8585 55.284 19.8431L55.4528 19.9819L55.0999 20.3831L53.0898 18.6241L53.4581 18.1921L54.1639 18.8093C54.1332 18.5933 54.2099 18.3927 54.3634 18.223C54.5015 18.0841 54.6396 17.9761 54.793 17.9298ZM55.5909 18.9327C55.5755 18.7938 55.5142 18.6858 55.3914 18.5624C55.2687 18.4544 55.1306 18.3927 55.0078 18.4081C54.8697 18.4235 54.7623 18.4698 54.6703 18.5778C54.5782 18.6858 54.5322 18.8093 54.5475 18.9481C54.5629 19.087 54.6242 19.195 54.747 19.3185C54.8697 19.4265 55.0078 19.4882 55.1306 19.4727C55.2687 19.4573 55.3761 19.411 55.4681 19.303C55.5602 19.1796 55.6062 19.0716 55.5909 18.9327Z" fill="#EC4860"./>
<path d="M58.8744 14.551L59.3808 16.5569L58.9358 16.8655L57.9077 16.1094L58.2146 17.3592L57.7697 17.6678L56.0972 16.4643L56.5268 16.1557L57.6469 16.9735L57.294 15.6157L57.6776 15.3534L58.7977 16.1711L58.4448 14.8133L58.8744 14.551Z" fill="#EC4860"./>
<path d="M61.4831 14.674L60.1482 15.2758C60.2249 15.3683 60.317 15.4455 60.4397 15.4609C60.5625 15.4918 60.6852 15.4764 60.8233 15.3992C60.9154 15.3529 60.9921 15.3066 61.0535 15.2449C61.1148 15.1832 61.1609 15.106 61.1916 15.0289L61.6059 15.1986C61.5291 15.4609 61.3297 15.6769 61.0074 15.8158C60.808 15.9084 60.6238 15.9392 60.4244 15.9392C60.2402 15.9238 60.0715 15.8775 59.9334 15.7695C59.7953 15.6769 59.6725 15.5381 59.5958 15.3529C59.5191 15.1832 59.4884 15.0135 59.5191 14.8283C59.5344 14.6586 59.5958 14.4889 59.7032 14.35C59.8106 14.2111 59.9487 14.0877 60.1328 14.026C60.3016 13.9488 60.4704 13.918 60.6545 13.918C60.8233 13.9334 60.9921 13.9951 61.1302 14.0877C61.2683 14.1803 61.391 14.3346 61.4678 14.5197C61.4371 14.5352 61.4524 14.5814 61.4831 14.674ZM60.0254 14.6432C59.9794 14.7357 59.9794 14.8592 59.9947 14.9826L60.8694 14.5969C60.808 14.5043 60.7159 14.4271 60.6085 14.3809C60.5011 14.35 60.3937 14.3654 60.2709 14.4117C60.1635 14.458 60.0715 14.5197 60.0254 14.6432Z" fill="#EC4860"./>
<path d="M63.1711 13.0844C63.3399 13.1307 63.478 13.2078 63.6007 13.3312C63.7235 13.4547 63.8155 13.609 63.8616 13.8096C63.9229 13.9947 63.9229 14.1799 63.8769 14.3496C63.8309 14.5193 63.7542 14.6582 63.6314 14.7816C63.5087 14.9051 63.3552 14.9822 63.1864 15.0285C62.9409 15.1056 62.7108 15.0748 62.542 14.9514L62.6034 15.1674L62.0817 15.3062L61.3759 12.7295L61.9129 12.5752L62.1584 13.4855C62.2505 13.3004 62.4192 13.1615 62.6494 13.0998C62.8335 13.0535 63.0176 13.0535 63.1711 13.0844ZM63.2938 14.3805C63.3552 14.257 63.3706 14.1182 63.3245 13.9639C63.2785 13.8096 63.2018 13.6861 63.0944 13.6244C62.9716 13.5473 62.8489 13.5473 62.7108 13.5781C62.5727 13.609 62.4653 13.7016 62.4039 13.8096C62.3425 13.933 62.3272 14.0719 62.3732 14.2262C62.4192 14.3805 62.496 14.5039 62.6034 14.5656C62.7261 14.6428 62.8489 14.6428 62.987 14.6119C63.1097 14.5656 63.2171 14.5039 63.2938 14.3805Z" fill="#EC4860"./>
<path d="M68.4182 12.5589L67.7431 14.503L67.206 14.5184L66.7611 13.3149L66.3314 14.5184L65.7944 14.5339L65.0732 12.6052L65.5949 12.5897L66.0706 13.9013L66.5309 12.5743L67.0066 12.5589L67.4822 13.8704L67.9425 12.5435L68.4182 12.5589Z" fill="#EC4860"./>
<path d="M70.5357 14.087L69.0934 13.8401C69.1087 13.9636 69.1547 14.0716 69.2315 14.1487C69.3082 14.2259 69.4309 14.2876 69.569 14.3185C69.6611 14.3339 69.7531 14.3339 69.8452 14.3185C69.9219 14.303 70.014 14.2567 70.0754 14.2105L70.3055 14.5808C70.0907 14.7505 69.8145 14.8122 69.4616 14.7505C69.2468 14.7196 69.0627 14.6425 68.9092 14.519C68.7558 14.3956 68.6484 14.2722 68.587 14.1024C68.5256 13.9327 68.5103 13.763 68.541 13.5624C68.5717 13.3773 68.6484 13.223 68.7558 13.0841C68.8785 12.9452 69.0013 12.8526 69.1854 12.7909C69.3542 12.7292 69.5383 12.7138 69.7224 12.7601C69.9066 12.7909 70.0754 12.8526 70.2135 12.9607C70.3515 13.0687 70.4436 13.2075 70.5203 13.3618C70.5817 13.5315 70.5971 13.7013 70.551 13.9019C70.5664 13.9481 70.551 13.9944 70.5357 14.087ZM69.3389 13.2538C69.2468 13.3155 69.1701 13.3927 69.124 13.5161L70.06 13.6704C70.06 13.547 70.0293 13.439 69.9526 13.3464C69.8759 13.2538 69.7838 13.2075 69.6611 13.1767C69.5537 13.1767 69.4463 13.2075 69.3389 13.2538Z" fill="#EC4860"./>
<path d="M72.8066 13.7319C72.9293 13.8553 72.9907 14.0096 73.0214 14.1793C73.0521 14.3491 73.0367 14.5188 72.9754 14.7194C72.914 14.9045 72.8219 15.0588 72.6838 15.1823C72.5611 15.3057 72.4076 15.3674 72.2389 15.3983C72.0701 15.4291 71.9013 15.4137 71.7325 15.3674C71.4717 15.2903 71.3182 15.136 71.2415 14.9354L71.1648 15.1514L70.6584 14.9817L71.487 12.4358L72.024 12.6209L71.7325 13.5159C71.9166 13.4079 72.1161 13.3924 72.3616 13.485C72.5611 13.5159 72.6992 13.6084 72.8066 13.7319ZM72.1928 14.8582C72.3156 14.7965 72.3923 14.6885 72.4383 14.5342C72.4997 14.3799 72.4844 14.2411 72.423 14.1176C72.3616 13.9942 72.2695 13.9016 72.1315 13.8707C71.9934 13.8245 71.8706 13.8399 71.7479 13.9016C71.6251 13.9633 71.5484 14.0713 71.5024 14.2256C71.441 14.3799 71.4563 14.5188 71.5177 14.6422C71.5791 14.7657 71.6711 14.8582 71.8092 14.8891C71.9473 14.9354 72.0701 14.92 72.1928 14.8582Z" fill="#EC4860"./>
<path d="M77.4713 16.1857L75.8449 17.4355L75.3846 17.1423L75.6761 15.8925L74.6481 16.664L74.1877 16.3708L74.6481 14.365L75.093 14.6582L74.7708 16.016L75.8756 15.1673L76.2745 15.4296L75.9523 16.7874L77.057 15.9388L77.4713 16.1857Z" fill="#EC4860"./>
<path d="M78.3918 18.6398L77.3177 17.6369C77.2564 17.7449 77.241 17.8529 77.2717 17.9763C77.3024 18.0998 77.3638 18.2078 77.4712 18.3003C77.5479 18.3775 77.6093 18.4238 77.7013 18.4546C77.7781 18.4855 77.8701 18.5009 77.9622 18.5009V18.9484C77.686 18.9793 77.4251 18.8712 77.1643 18.6398C76.9955 18.5009 76.8881 18.3158 76.8267 18.1461C76.7654 17.9763 76.75 17.7912 76.7961 17.6214C76.8267 17.4517 76.9188 17.2974 77.0415 17.1431C77.1643 17.0043 77.3177 16.9117 77.4865 16.8654C77.6553 16.8191 77.8241 16.8037 78.0082 16.85C78.177 16.8963 78.3304 16.9888 78.4839 17.1277C78.622 17.2511 78.714 17.4054 78.7754 17.5752C78.8368 17.7449 78.8368 17.9146 78.8061 18.0843C78.7754 18.2541 78.6833 18.4084 78.5299 18.5627C78.4992 18.5472 78.4685 18.5781 78.3918 18.6398ZM77.8548 17.2974C77.7474 17.282 77.64 17.3283 77.5326 17.4054L78.223 18.0535C78.2997 17.9609 78.3151 17.8375 78.2997 17.7295C78.2844 17.606 78.2384 17.5134 78.1463 17.4363C78.0696 17.3437 77.9775 17.2974 77.8548 17.2974Z" fill="#EC4860"./>
<path d="M80.494 19.6107C80.5247 19.7804 80.5093 19.9347 80.4326 20.1044C80.3559 20.2742 80.2485 20.3976 80.0951 20.521C79.9416 20.6445 79.7728 20.7216 79.604 20.7525C79.4353 20.7833 79.2665 20.7679 79.113 20.6907C78.9596 20.629 78.8215 20.521 78.7141 20.3822C78.5453 20.1661 78.4839 19.9501 78.5453 19.7495L78.3765 19.8884L78.0543 19.4564L80.1411 17.8054L80.4786 18.2529L79.7421 18.8392C79.957 18.8546 80.1257 18.9626 80.2792 19.1632C80.3866 19.2867 80.4633 19.441 80.494 19.6107ZM79.3585 20.2124C79.4966 20.2279 79.6194 20.1816 79.7421 20.089C79.8649 19.981 79.9416 19.873 79.9723 19.7341C79.9876 19.5953 79.957 19.4872 79.8649 19.3638C79.7728 19.2404 79.6654 19.1787 79.5273 19.1787C79.3892 19.1632 79.2665 19.2095 79.1437 19.3021C79.021 19.4101 78.9443 19.5181 78.9136 19.657C78.8829 19.7958 78.9289 19.9038 79.021 20.0273C79.113 20.1353 79.2205 20.197 79.3585 20.2124Z" fill="#EC4860"./>
<path d="M83.0257 24.2553L80.9696 24.3942L80.7548 23.9005L81.6907 23.021L80.4172 23.0827L80.2024 22.589L81.6907 21.1694L81.9056 21.6632L80.8929 22.6044L82.2738 22.5118L82.4579 22.9438L81.4452 23.885L82.8262 23.7925L83.0257 24.2553Z" fill="#EC4860"./>
<path d="M82.4274 26.8175L82.0898 25.398C81.9824 25.4597 81.9057 25.5368 81.8597 25.6448C81.8136 25.7528 81.8136 25.8763 81.8443 26.0306C81.875 26.1232 81.9057 26.2157 81.9517 26.2774C81.9978 26.3546 82.0591 26.4009 82.1359 26.4626L81.8904 26.8329C81.6449 26.7095 81.4761 26.4626 81.3994 26.1232C81.338 25.9071 81.338 25.7066 81.384 25.5368C81.43 25.3517 81.5068 25.1974 81.6295 25.0739C81.7523 24.9505 81.9057 24.8579 82.1052 24.8116C82.2893 24.7654 82.4734 24.7808 82.6269 24.8271C82.7956 24.8888 82.9491 24.9659 83.0565 25.1048C83.1792 25.2437 83.256 25.398 83.302 25.5831C83.348 25.7683 83.348 25.9534 83.302 26.1077C83.256 26.2774 83.1792 26.4163 83.0411 26.5398C82.9184 26.6632 82.7496 26.7403 82.5501 26.8021C82.5808 26.7866 82.5348 26.8021 82.4274 26.8175ZM82.7343 25.398C82.6422 25.3362 82.5348 25.3054 82.412 25.3054L82.6269 26.2312C82.7496 26.1849 82.8263 26.1077 82.8724 26.0151C82.9337 25.9226 82.9337 25.7991 82.9031 25.6757C82.8724 25.5523 82.8263 25.4597 82.7343 25.398Z" fill="#EC4860"./>
<path d="M83.6547 28.7759C83.578 28.9302 83.4706 29.0536 83.3325 29.1462C83.1944 29.2542 83.0103 29.3005 82.8108 29.316C82.6114 29.3314 82.4426 29.3005 82.2738 29.2388C82.1204 29.1617 81.9976 29.0536 81.9055 28.9148C81.8135 28.7759 81.7674 28.6216 81.7368 28.4365C81.7214 28.1742 81.7828 27.9581 81.9362 27.8039L81.7061 27.8193L81.66 27.2792L84.3145 27.0632L84.3606 27.6341L83.4246 27.7113C83.5934 27.8347 83.6854 28.0353 83.7008 28.2822C83.7621 28.4673 83.7161 28.6216 83.6547 28.7759ZM82.3812 28.6525C82.4733 28.7296 82.6114 28.7759 82.7801 28.7605C82.9489 28.7451 83.0717 28.6833 83.1637 28.5908C83.2558 28.4982 83.2865 28.3747 83.2865 28.2205C83.2711 28.0816 83.2098 27.9736 83.1177 27.881C83.0256 27.8039 82.8875 27.7576 82.7188 27.773C82.55 27.7884 82.4272 27.8501 82.3352 27.9427C82.2431 28.0353 82.2124 28.1587 82.2124 28.313C82.2124 28.4519 82.2738 28.5599 82.3812 28.6525Z" fill="#EC4860"./>
<path d="M83.1946 34.0689L81.4147 33.0351L81.5067 32.4951L82.7649 32.279L81.6602 31.631L81.7522 31.091L83.7776 30.7361L83.6856 31.2607L82.32 31.4767L83.5321 32.171L83.4554 32.6494L82.0898 32.8654L83.302 33.5597L83.1946 34.0689Z" fill="#EC4860"./>
<path d="M81.3073 35.8738L81.8136 34.5005C81.6909 34.4851 81.5835 34.516 81.476 34.5777C81.384 34.6394 81.3073 34.7474 81.2459 34.8863C81.2152 34.9788 81.1845 35.0714 81.1999 35.1486C81.1999 35.2257 81.2152 35.3183 81.2612 35.3955L80.8623 35.5652C80.7242 35.3183 80.7242 35.0406 80.8469 34.7011C80.9237 34.4851 81.0311 34.3308 81.1692 34.2074C81.3073 34.0839 81.4607 33.9914 81.6448 33.9605C81.8136 33.9296 81.9977 33.9451 82.1665 34.0068C82.3506 34.0685 82.4887 34.1765 82.5961 34.3154C82.7036 34.4542 82.7803 34.6085 82.811 34.7937C82.8416 34.9789 82.811 35.1486 82.7496 35.3337C82.6882 35.5189 82.5808 35.6578 82.458 35.7812C82.3353 35.9046 82.1819 35.9663 82.0131 35.9972C81.8443 36.0281 81.6602 36.0126 81.476 35.9355C81.4454 35.9201 81.3993 35.9046 81.3073 35.8738ZM82.3353 34.8554C82.3046 34.7474 82.2279 34.6703 82.1205 34.6085L81.7829 35.5035C81.9057 35.5343 82.0131 35.5189 82.1051 35.4572C82.1972 35.3954 82.2739 35.3183 82.32 35.1949C82.3813 35.0714 82.3813 34.948 82.3353 34.8554Z" fill="#EC4860"./>
<path d="M81.2457 38.1873C81.1076 38.2799 80.9542 38.3262 80.77 38.3262C80.6012 38.3262 80.4325 38.2799 80.2483 38.1873C80.0796 38.0948 79.9415 37.9713 79.8494 37.817C79.7573 37.6782 79.7113 37.5084 79.7113 37.3387C79.7113 37.169 79.7573 36.9993 79.8341 36.845C79.9568 36.6135 80.1256 36.4747 80.3557 36.4284L80.1563 36.3204L80.4171 35.842L82.7494 37.1381L82.4732 37.6319L81.6446 37.1844C81.706 37.385 81.6907 37.601 81.5679 37.817C81.5065 37.9713 81.3838 38.0948 81.2457 38.1873ZM80.2483 37.3696C80.279 37.493 80.3711 37.601 80.5245 37.6782C80.6626 37.7553 80.8007 37.7707 80.9388 37.7553C81.0616 37.7244 81.169 37.6473 81.2303 37.5239C81.3071 37.4004 81.3071 37.2616 81.2764 37.1381C81.2457 37.0147 81.1536 36.9067 81.0002 36.8295C80.8621 36.7524 80.724 36.737 80.5859 36.7524C80.4632 36.7832 80.3557 36.8604 80.2944 36.9838C80.2176 37.1073 80.2177 37.2307 80.2483 37.3696Z" fill="#EC4860"./>
<path d="M77.9623 42.3389L77.0416 40.4874L77.4099 40.1017L78.576 40.6108L78.0236 39.4536L78.3919 39.0679L80.2792 39.9011L79.9109 40.2868L78.6527 39.7159L79.2665 40.9657L78.9443 41.3052L77.6707 40.7343L78.2845 41.9841L77.9623 42.3389Z" fill="#EC4860"./>
<path d="M75.3846 42.786L76.5661 41.9219C76.474 41.8448 76.3666 41.7985 76.2439 41.7985C76.1211 41.7985 76.0137 41.8448 75.8756 41.9219C75.7989 41.9836 75.7375 42.0454 75.6915 42.1071C75.6455 42.1842 75.6148 42.2614 75.5994 42.3539L75.1698 42.2614C75.2005 41.9836 75.3539 41.7368 75.6301 41.5362C75.7989 41.4127 75.9984 41.3202 76.1672 41.3047C76.3513 41.2739 76.5354 41.2893 76.6888 41.351C76.8576 41.4282 76.9804 41.5362 77.1031 41.6905C77.2105 41.8448 77.2719 42.0145 77.2873 42.1842C77.3026 42.3539 77.2719 42.5237 77.1952 42.6934C77.1185 42.8631 77.0111 42.9866 76.8423 43.11C76.6888 43.218 76.5201 43.2952 76.3513 43.3106C76.1825 43.3414 76.0137 43.3106 75.8603 43.2334C75.6915 43.1563 75.5687 43.0483 75.446 42.8786C75.4613 42.9094 75.446 42.8631 75.3846 42.786ZM76.8116 42.5082C76.8423 42.4002 76.8269 42.2922 76.7656 42.1688L75.9984 42.7397C76.0904 42.8323 76.1825 42.8786 76.2899 42.8786C76.3973 42.894 76.5047 42.8477 76.6121 42.7705C76.7195 42.7088 76.7963 42.6163 76.8116 42.5082Z" fill="#EC4860"./>
<path d="M74.0498 44.6695C73.881 44.654 73.7276 44.6232 73.5742 44.5152C73.4361 44.4226 73.3133 44.2837 73.2212 44.114C73.1292 43.9288 73.0831 43.7591 73.0985 43.5894C73.1138 43.4197 73.1445 43.2654 73.2366 43.1111C73.3286 42.9722 73.4514 42.8488 73.6202 42.7716C73.8503 42.6482 74.0652 42.6328 74.2646 42.7099L74.1572 42.5093L74.6329 42.2625L75.8604 44.6386L75.3694 44.9009L74.9398 44.0677C74.8784 44.2683 74.7556 44.438 74.5408 44.546C74.3874 44.654 74.2339 44.6849 74.0498 44.6695ZM73.6816 43.4505C73.6509 43.574 73.6662 43.7128 73.7429 43.8671C73.8197 44.006 73.9117 44.0986 74.0498 44.1449C74.1726 44.1911 74.3107 44.1757 74.4334 44.114C74.5562 44.0523 74.6482 43.9443 74.6789 43.8208C74.7096 43.6974 74.6943 43.5585 74.6175 43.4042C74.5408 43.2654 74.4487 43.1728 74.326 43.1265C74.2032 43.0802 74.0652 43.0956 73.9424 43.1574C73.8043 43.2191 73.7276 43.3117 73.6816 43.4505Z" fill="#EC4860"./>
<path d="M69.0474 46.3197L69.2929 44.2675L69.8146 44.1441L70.505 45.2242L70.6738 43.9435L71.1955 43.8201L72.3003 45.5482L71.7786 45.6716L71.0421 44.4835L70.8733 45.8722L70.413 45.9802L69.6765 44.7921L69.5077 46.1808L69.0474 46.3197Z" fill="#EC4860"./>
<path d="M66.6538 45.2558L68.1115 45.1941C68.0808 45.0706 68.0041 44.978 67.912 44.9163C67.8199 44.8546 67.6819 44.8237 67.5438 44.8237C67.4517 44.8237 67.3596 44.8546 67.2829 44.8855C67.2062 44.9163 67.1448 44.9626 67.0681 45.0398L66.7612 44.7312C66.93 44.5152 67.1909 44.3917 67.5438 44.3763C67.7586 44.3609 67.958 44.4071 68.1268 44.4689C68.2956 44.546 68.4337 44.654 68.5411 44.8083C68.6485 44.9472 68.6945 45.1323 68.7099 45.3175C68.7252 45.5026 68.6792 45.6878 68.6025 45.8421C68.5258 45.9964 68.403 46.1198 68.2496 46.2124C68.0961 46.305 67.9273 46.3513 67.7279 46.3667C67.5438 46.3821 67.3596 46.3358 67.2062 46.2741C67.0528 46.197 66.93 46.089 66.8226 45.9347C66.7305 45.7958 66.6845 45.6107 66.6692 45.4101C66.6538 45.4101 66.6538 45.3638 66.6538 45.2558ZM68.0041 45.8267C68.0808 45.7495 68.1422 45.6569 68.1422 45.5335L67.1908 45.5798C67.2215 45.7032 67.2676 45.7958 67.3596 45.873C67.4517 45.9501 67.5591 45.9655 67.6818 45.9655C67.8046 45.9347 67.912 45.9038 68.0041 45.8267Z" fill="#EC4860"./>
<path d="M64.5057 46.1044C64.3676 46.0118 64.2755 45.873 64.1988 45.7187C64.1374 45.5644 64.1067 45.3792 64.1374 45.1786C64.1681 44.978 64.2141 44.8083 64.3215 44.6695C64.4136 44.5306 64.5517 44.4226 64.7051 44.3609C64.8586 44.2991 65.0273 44.2683 65.1961 44.2837C65.457 44.3146 65.6411 44.4226 65.7792 44.6077L65.8099 44.3917L66.3469 44.4534L66.0707 47.1228L65.503 47.061L65.5951 46.1198C65.4416 46.2587 65.2268 46.3204 64.9967 46.2896C64.8125 46.2587 64.6437 46.197 64.5057 46.1044ZM64.8739 44.87C64.7818 44.9626 64.7051 45.0861 64.6898 45.2403C64.6744 45.4101 64.7051 45.5335 64.7818 45.6569C64.8586 45.765 64.966 45.8267 65.1194 45.8421C65.2575 45.8575 65.3803 45.8267 65.4877 45.7341C65.5951 45.6415 65.6564 45.5181 65.6718 45.3638C65.6871 45.1941 65.6564 45.0706 65.5797 44.9472C65.503 44.8392 65.3956 44.7775 65.2422 44.762C65.1041 44.7466 64.9813 44.7775 64.8739 44.87Z" fill="#EC4860"./>
<path d="M59.4269 44.6681L60.7771 43.0942L61.2835 43.2794L61.2681 44.56L62.1121 43.588L62.6184 43.7731L62.5877 45.8407L62.0967 45.6555L62.1427 44.2669L61.2375 45.3315L60.7925 45.1618L60.8232 43.7731L59.9179 44.8378L59.4269 44.6681Z" fill="#EC4860"./>
<path d="M58.0307 42.4629L59.2736 43.2189C59.3043 43.0955 59.3043 42.9875 59.2582 42.8795C59.1969 42.756 59.1201 42.6789 58.9974 42.6017C58.9053 42.54 58.8286 42.5246 58.7365 42.5092C58.6598 42.4937 58.5678 42.4937 58.4757 42.5246L58.3836 42.0926C58.6445 42.0154 58.9207 42.0617 59.2275 42.2314C59.4117 42.3394 59.5498 42.4783 59.6572 42.6326C59.7646 42.8023 59.8106 42.9566 59.8106 43.1418C59.8106 43.3115 59.7646 43.4812 59.6725 43.6509C59.5804 43.8207 59.4424 43.9441 59.2889 44.0213C59.1355 44.0984 58.9667 44.1447 58.7979 44.1447C58.6138 44.1293 58.445 44.083 58.2762 43.975C58.1074 43.8824 57.9847 43.759 57.8926 43.6047C57.8006 43.4658 57.7545 43.2961 57.7699 43.1109C57.7699 42.9412 57.8159 42.756 57.9387 42.5863C57.9387 42.5863 57.9693 42.54 58.0307 42.4629ZM58.8286 43.6818C58.936 43.6664 59.0434 43.6047 59.1201 43.5121L58.3069 43.0183C58.2609 43.1418 58.2609 43.2498 58.2916 43.3578C58.3222 43.4658 58.399 43.5429 58.5064 43.6047C58.5984 43.6664 58.7212 43.6972 58.8286 43.6818Z" fill="#EC4860"./>
<path d="M55.7751 41.9689C55.7137 41.8146 55.6984 41.6449 55.7291 41.4751C55.7598 41.3054 55.8365 41.1511 55.9592 40.9968C56.082 40.8425 56.2354 40.7345 56.3889 40.6728C56.5577 40.6111 56.7111 40.5957 56.8799 40.6265C57.0487 40.6574 57.2021 40.7191 57.3402 40.8425C57.555 41.0123 57.6471 41.2128 57.6471 41.4289L57.7852 41.2591L58.1994 41.5986L56.4963 43.6661L56.0666 43.2958L56.6651 42.5706C56.4502 42.6015 56.2508 42.5398 56.0666 42.3855C55.9286 42.262 55.8365 42.1232 55.7751 41.9689ZM56.7571 41.1511C56.619 41.1665 56.5116 41.2283 56.4042 41.3671C56.2968 41.4906 56.2508 41.6294 56.2661 41.7529C56.2815 41.8917 56.3428 41.9997 56.4502 42.0923C56.5577 42.1849 56.6804 42.2158 56.8185 42.2158C56.9566 42.2003 57.064 42.1386 57.1714 41.9997C57.2788 41.8763 57.3248 41.7374 57.3095 41.614C57.2942 41.4751 57.2328 41.3671 57.1254 41.2746C57.0026 41.1666 56.8952 41.1357 56.7571 41.1511Z" fill="#EC4860"./>
<path d="M54.7009 23.4219L55.8824 24.4865L55.729 24.8723L54.7469 24.826L55.4681 25.5049L55.3147 25.8906L53.7343 25.8289L53.8877 25.4432L54.9618 25.4894L54.1639 24.7643L54.302 24.4248L55.376 24.4711L54.5782 23.7459L54.7009 23.4219Z" fill="#EC4860"./>
<path d="M56.4043 22.3736L55.8059 23.3302C55.8979 23.3611 55.9746 23.3611 56.0667 23.3148C56.1434 23.2839 56.2202 23.2222 56.2815 23.1142C56.3276 23.0525 56.3582 22.9753 56.3582 22.9136C56.3736 22.8519 56.3736 22.7747 56.3582 22.713L56.6958 22.6513C56.7572 22.8519 56.7112 23.0679 56.5731 23.2994C56.481 23.4382 56.3736 23.5462 56.2508 23.6234C56.1281 23.7005 55.99 23.7314 55.8672 23.7314C55.7291 23.7314 55.6064 23.6851 55.4836 23.6079C55.3609 23.5308 55.2688 23.4228 55.2075 23.2994C55.1461 23.1759 55.1154 23.0525 55.1307 22.9136C55.1307 22.7748 55.1921 22.6359 55.2688 22.5124C55.3456 22.389 55.4376 22.2964 55.5604 22.2193C55.6831 22.1576 55.8059 22.1267 55.944 22.1267C56.0821 22.1267 56.2048 22.173 56.3429 22.2656C56.3122 22.3119 56.3582 22.3273 56.4043 22.3736ZM55.4683 22.9753C55.4837 23.0525 55.5297 23.1296 55.5911 23.2068L55.9747 22.5742C55.8826 22.5433 55.8059 22.5279 55.7138 22.5587C55.6371 22.5896 55.5604 22.6359 55.5143 22.713C55.4683 22.8056 55.453 22.8828 55.4683 22.9753Z" fill="#EC4860"./>
<path d="M56.8339 20.63C56.9566 20.5837 57.0794 20.5837 57.2175 20.6145C57.3556 20.6454 57.463 20.7071 57.5857 20.8151C57.7085 20.9231 57.7852 21.0311 57.8312 21.1546C57.8773 21.278 57.8926 21.4014 57.8619 21.5403C57.8312 21.6637 57.7852 21.7872 57.6932 21.8952C57.5551 22.0495 57.4016 22.1266 57.2328 22.1266L57.3556 22.2346L57.0794 22.5432L55.5297 21.1854L55.8212 20.8614L56.3736 21.3397C56.3582 21.1854 56.4043 21.0311 56.527 20.8768C56.6037 20.7534 56.7111 20.6762 56.8339 20.63ZM57.4476 21.4169C57.4476 21.3089 57.3863 21.2163 57.2942 21.1391C57.2021 21.062 57.0947 21.0157 57.0027 21.0157C56.8953 21.0157 56.8186 21.062 56.7418 21.1546C56.6651 21.2317 56.6344 21.3243 56.6498 21.4323C56.6651 21.5403 56.7111 21.6329 56.8032 21.71C56.8953 21.7872 57.0027 21.8335 57.0947 21.8335C57.2021 21.8335 57.2789 21.7872 57.3556 21.6946C57.4323 21.602 57.4476 21.5094 57.4476 21.4169Z" fill="#EC4860"./>
<path d="M59.979 18.0378L60.3779 19.5808L60.0404 19.8122L59.2425 19.2259L59.4726 20.198L59.1351 20.4294L57.8462 19.5037L58.1838 19.2722L59.043 19.9048L58.7822 18.8556L59.089 18.655L59.9483 19.2876L59.6568 18.2539L59.979 18.0378Z" fill="#EC4860"./>
<path d="M61.9891 18.1305L60.9611 18.5934C61.0225 18.6705 61.0992 18.7168 61.1913 18.7322C61.2833 18.7476 61.3754 18.7322 61.4828 18.6859C61.5595 18.6551 61.6209 18.6088 61.6516 18.5625C61.6976 18.5162 61.7283 18.4545 61.759 18.3928L62.0659 18.5316C62.0045 18.7322 61.851 18.9019 61.6055 19.0099C61.4521 19.0871 61.2987 19.1025 61.1606 19.1025C61.0071 19.1025 60.8844 19.0562 60.777 18.9791C60.6696 18.9019 60.5775 18.7939 60.5161 18.6551C60.4547 18.5162 60.4394 18.3928 60.4548 18.2539C60.4701 18.115 60.5161 17.9916 60.5928 17.8836C60.6696 17.7756 60.7923 17.683 60.9151 17.6367C61.0532 17.575 61.1759 17.5596 61.314 17.5596C61.4521 17.5596 61.5749 17.6213 61.6823 17.6984C61.7897 17.7756 61.8817 17.8836 61.9431 18.0379C61.9585 18.0225 61.9585 18.0533 61.9891 18.1305ZM60.869 18.0996C60.8384 18.1768 60.823 18.2539 60.8537 18.3619L61.5288 18.0533C61.4828 17.9762 61.4061 17.9145 61.3294 17.899C61.2526 17.8682 61.1606 17.8836 61.0685 17.9144C60.9611 17.9607 60.8997 18.007 60.869 18.0996Z" fill="#EC4860"./>
<path d="M63.2935 16.9122C63.4163 16.943 63.5237 17.0047 63.6158 17.0973C63.7078 17.1899 63.7692 17.3133 63.8152 17.4676C63.8613 17.6219 63.8613 17.7608 63.8306 17.8842C63.7999 18.0077 63.7385 18.1157 63.6465 18.2082C63.5544 18.3008 63.4316 18.3625 63.3089 18.3934C63.1094 18.4551 62.9406 18.4243 62.8025 18.3317L62.8486 18.5014L62.4496 18.6094L61.9126 16.619L62.3269 16.511L62.511 17.2053C62.5877 17.051 62.7105 16.9584 62.8946 16.9122C63.0327 16.8813 63.1708 16.8813 63.2935 16.9122ZM63.3856 17.8996C63.4316 17.8071 63.447 17.6991 63.401 17.5756C63.3703 17.4522 63.3089 17.3596 63.2168 17.3133C63.1248 17.2516 63.0327 17.2516 62.9253 17.2825C62.8179 17.3133 62.7412 17.375 62.6951 17.4676C62.6491 17.5602 62.6338 17.6682 62.6798 17.7916C62.7105 17.9151 62.7719 18.0077 62.8639 18.0539C62.956 18.1157 63.048 18.1157 63.1554 18.0848C63.2475 18.0539 63.3242 17.9922 63.3856 17.8996Z" fill="#EC4860"./>
<path d="M67.3445 16.4944L66.8228 17.9911L66.4085 18.0065L66.071 17.0808L65.7334 18.022L65.3191 18.0374L64.7667 16.5407L65.1657 16.5253L65.5339 17.5282L65.8868 16.5099L66.2551 16.4944L66.6233 17.4974L66.9762 16.479L67.3445 16.4944Z" fill="#EC4860"./>
<path d="M68.9705 17.6824L67.8657 17.4972C67.8657 17.5898 67.9117 17.6669 67.9731 17.7286C68.0345 17.7904 68.1266 17.8367 68.234 17.8521C68.3107 17.8675 68.3874 17.8675 68.4488 17.8521C68.5102 17.8367 68.5715 17.8058 68.6329 17.7749L68.817 18.0681C68.6482 18.207 68.4334 18.2533 68.1726 18.207C68.0038 18.1761 67.8657 18.1298 67.743 18.0372C67.6202 17.9447 67.5435 17.8367 67.4975 17.7132C67.4514 17.5898 67.4361 17.4509 67.4668 17.2966C67.4975 17.1423 67.5435 17.0343 67.6356 16.9263C67.7276 16.8183 67.835 16.7411 67.9578 16.6949C68.0805 16.6486 68.234 16.6331 68.3721 16.664C68.5255 16.6949 68.6482 16.7412 68.7557 16.8183C68.8631 16.8954 68.9398 17.0035 68.9858 17.1269C69.0318 17.2503 69.0472 17.3892 69.0165 17.5435C69.0012 17.5743 68.9858 17.6052 68.9705 17.6824ZM68.0498 17.0343C67.9731 17.0806 67.9271 17.1423 67.8964 17.2349L68.6176 17.3583C68.6176 17.2658 68.5869 17.1886 68.5408 17.1115C68.4795 17.0343 68.4027 17.0035 68.3107 16.988C68.2186 16.9726 68.1266 16.988 68.0498 17.0343Z" fill="#EC4860"./>
<path d="M70.7198 17.4054C70.8119 17.4979 70.8733 17.6214 70.8886 17.7448C70.9193 17.8837 70.904 18.0071 70.8579 18.1614C70.8119 18.3157 70.7352 18.4237 70.6431 18.5163C70.551 18.6089 70.4283 18.6706 70.3056 18.686C70.1828 18.7014 70.0447 18.7015 69.922 18.6552C69.7225 18.5934 69.5997 18.4854 69.5384 18.3157L69.477 18.47L69.0934 18.3311L69.7378 16.3716L70.1521 16.5105L69.922 17.2048C70.0601 17.1276 70.2288 17.1122 70.3976 17.1739C70.5357 17.2356 70.6431 17.2974 70.7198 17.4054ZM70.2442 18.2694C70.3362 18.2231 70.3976 18.1306 70.4436 18.0225C70.4897 17.8991 70.4743 17.7911 70.4283 17.6985C70.3823 17.6059 70.3056 17.5442 70.1981 17.4979C70.0907 17.4671 69.9987 17.4671 69.9066 17.5134C69.8145 17.5597 69.7532 17.6522 69.7071 17.7602C69.6611 17.8837 69.6764 17.9917 69.7225 18.0843C69.7685 18.1768 69.8452 18.2386 69.9526 18.2849C70.06 18.3311 70.1521 18.3157 70.2442 18.2694Z" fill="#EC4860"./>
<path d="M74.3258 19.3022L73.0676 20.2743L72.7147 20.0583L72.9295 19.1017L72.1316 19.688L71.7787 19.472L72.1316 17.9136L72.4692 18.1296L72.2237 19.1788L73.0829 18.5308L73.3898 18.7313L73.1443 19.7806L73.9882 19.1325L74.3258 19.3022Z" fill="#EC4860"./>
<path d="M75.0315 21.1848L74.2029 20.4134C74.1569 20.4905 74.1415 20.5831 74.1569 20.6757C74.1722 20.7682 74.2336 20.8454 74.3103 20.9225C74.3717 20.9842 74.4177 21.0151 74.4791 21.046C74.5405 21.0614 74.6019 21.0768 74.6786 21.0768V21.4163C74.4638 21.4317 74.2643 21.3546 74.0648 21.1694C73.9421 21.0614 73.85 20.9225 73.804 20.7837C73.7579 20.6448 73.7426 20.5059 73.7733 20.3825C73.804 20.2436 73.8654 20.1356 73.9728 20.0122C74.0648 19.9042 74.1876 19.827 74.3257 19.7962C74.4638 19.7653 74.5865 19.7499 74.7246 19.7807C74.8627 19.8116 74.9701 19.8887 75.0929 19.9967C75.2003 20.0893 75.277 20.2128 75.323 20.3362C75.369 20.4596 75.3691 20.5985 75.3384 20.7219C75.3077 20.8608 75.2463 20.9688 75.1235 21.0923C75.1235 21.1231 75.0929 21.1385 75.0315 21.1848ZM74.6172 20.151C74.5405 20.151 74.4484 20.1665 74.3717 20.2282L74.9087 20.7374C74.9701 20.6602 74.9855 20.5831 74.9701 20.4905C74.9548 20.3979 74.9241 20.3362 74.8474 20.2591C74.786 20.1819 74.7093 20.151 74.6172 20.151Z" fill="#EC4860"./>
<path d="M76.6579 21.9412C76.6732 22.0646 76.6579 22.188 76.6119 22.3269C76.5505 22.4503 76.4738 22.5583 76.351 22.6509C76.2283 22.7435 76.1055 22.8052 75.9674 22.8206C75.8293 22.8361 75.7066 22.8206 75.5838 22.7743C75.4611 22.7281 75.3537 22.6355 75.2769 22.5429C75.1542 22.3886 75.1082 22.2189 75.1388 22.0492L75.0007 22.1572L74.7552 21.8331L76.3664 20.5525L76.6272 20.8919L76.0748 21.3394C76.2283 21.3548 76.3817 21.432 76.4891 21.5863C76.5812 21.6943 76.6272 21.8023 76.6579 21.9412ZM75.7833 22.3886C75.8907 22.3886 75.9827 22.3732 76.0902 22.296C76.1822 22.2189 76.2436 22.1263 76.2589 22.0183C76.2743 21.9103 76.2436 21.8177 76.1822 21.7251C76.1055 21.6326 76.0288 21.5863 75.9214 21.5708C75.814 21.5708 75.7219 21.5863 75.6145 21.6634C75.5224 21.7406 75.4611 21.8331 75.4457 21.9412C75.4304 22.0492 75.4611 22.1417 75.5224 22.2343C75.5838 22.3423 75.6759 22.3886 75.7833 22.3886Z" fill="#EC4860"./>
<path d="M78.6069 25.5215L77.0265 25.6295L76.8577 25.2437L77.5789 24.5648L76.5969 24.6111L76.4281 24.2254L77.5789 23.1299L77.7477 23.5156L76.9651 24.2408L78.0392 24.1791L78.1926 24.5185L77.4101 25.2437L78.4842 25.1666L78.6069 25.5215Z" fill="#EC4860"./>
<path d="M78.1464 27.4964L77.8855 26.4009C77.8088 26.4472 77.7321 26.5089 77.7014 26.5861C77.6707 26.6632 77.6554 26.7712 77.6861 26.8792C77.7014 26.9564 77.7321 27.0181 77.7628 27.0798C77.7935 27.1415 77.8395 27.1724 77.9162 27.2187L77.7321 27.4964C77.548 27.4038 77.4099 27.2187 77.3485 26.9564C77.3025 26.8021 77.3025 26.6478 77.3332 26.4935C77.3638 26.3546 77.4252 26.2312 77.5326 26.1386C77.6247 26.046 77.7474 25.9843 77.9009 25.938C78.039 25.9072 78.1771 25.9072 78.2998 25.9534C78.4379 25.9997 78.5453 26.0614 78.6374 26.1695C78.7294 26.2775 78.7908 26.4009 78.8215 26.5398C78.8522 26.6786 78.8522 26.8175 78.8215 26.9409C78.7908 27.0798 78.7294 27.1724 78.622 27.2804C78.53 27.373 78.3919 27.4347 78.2384 27.481C78.2538 27.481 78.2231 27.481 78.1464 27.4964ZM78.3765 26.4009C78.2998 26.3546 78.2231 26.3237 78.131 26.3237L78.2998 27.0335C78.3919 27.0027 78.4533 26.9409 78.4993 26.8638C78.5453 26.7866 78.5453 26.7095 78.53 26.6015C78.4993 26.5243 78.4533 26.4472 78.3765 26.4009Z" fill="#EC4860"./>
<path d="M79.0977 29.0076C79.0363 29.131 78.9596 29.2236 78.8522 29.3007C78.7447 29.3779 78.6067 29.4242 78.4532 29.4242C78.2998 29.4396 78.1617 29.4242 78.0389 29.3624C77.9162 29.3007 77.8241 29.2236 77.7474 29.1156C77.6707 29.0076 77.64 28.8841 77.6246 28.7453C77.6093 28.5447 77.6553 28.3749 77.7781 28.2669L77.6093 28.2824L77.5786 27.8658L79.6347 27.696L79.6654 28.1281L78.9442 28.1898C79.067 28.2824 79.1437 28.4367 79.159 28.6218C79.1744 28.7607 79.1437 28.8841 79.0977 29.0076ZM78.1156 28.915C78.1924 28.9767 78.2998 29.0076 78.4225 28.9921C78.5453 28.9921 78.6527 28.9304 78.7141 28.8533C78.7908 28.7761 78.8061 28.6835 78.8061 28.5755C78.8061 28.4675 78.7448 28.3749 78.668 28.3132C78.5913 28.2515 78.4839 28.2207 78.3612 28.2361C78.2384 28.2361 78.131 28.2978 78.0696 28.3749C77.9929 28.4521 77.9776 28.5447 77.9776 28.6527C77.9776 28.7607 78.0236 28.8378 78.1156 28.915Z" fill="#EC4860"./>
<path d="M78.7447 33.0812L77.3638 32.2788L77.4405 31.8623L78.4071 31.6925L77.5479 31.1833L77.6246 30.7667L79.1897 30.489L79.1283 30.8902L78.0696 31.0599L79.0056 31.5999L78.9442 31.9703L77.8855 32.14L78.8214 32.68L78.7447 33.0812Z" fill="#EC4860"./>
<path d="M77.2871 34.4857L77.6707 33.421C77.5786 33.4056 77.4865 33.421 77.4098 33.4828C77.3331 33.5291 77.2717 33.6216 77.241 33.7142C77.2103 33.7914 77.195 33.8531 77.195 33.9148C77.195 33.9765 77.2103 34.0537 77.241 34.1154L76.9341 34.2388C76.8267 34.0537 76.8267 33.8376 76.9188 33.5753C76.9802 33.421 77.0569 33.2822 77.1643 33.1896C77.2717 33.097 77.3945 33.0353 77.5326 33.0044C77.6707 32.9736 77.8087 32.989 77.9315 33.0507C78.0696 33.097 78.177 33.1896 78.2691 33.2822C78.3458 33.3902 78.4072 33.5136 78.4379 33.6525C78.4532 33.7913 78.4378 33.9302 78.3918 34.0691C78.3458 34.208 78.2691 34.316 78.177 34.4085C78.0849 34.5011 77.9622 34.5628 77.8241 34.5783C77.686 34.5937 77.5479 34.5937 77.4098 34.532C77.3791 34.5165 77.3484 34.5011 77.2871 34.4857ZM78.0849 33.6988C78.0542 33.6216 78.0082 33.5445 77.9162 33.4982L77.6553 34.1925C77.7474 34.2079 77.8394 34.1925 77.9008 34.1617C77.9775 34.1154 78.0389 34.0537 78.0696 33.9611C78.1003 33.8685 78.1156 33.7759 78.0849 33.6988Z" fill="#EC4860"./>
<path d="M77.2257 36.2752C77.1183 36.3524 76.9955 36.3832 76.8574 36.3832C76.7193 36.3832 76.5966 36.3524 76.4585 36.2752C76.3204 36.1981 76.2283 36.1055 76.1516 35.9975C76.0749 35.8895 76.0442 35.7661 76.0442 35.6272C76.0442 35.4883 76.0749 35.3649 76.1363 35.2414C76.2283 35.0563 76.3664 34.9483 76.5352 34.9174L76.3818 34.8403L76.5812 34.47L78.3765 35.4729L78.1616 35.8586L77.5325 35.5037C77.5786 35.658 77.5632 35.8123 77.4712 35.9821C77.4251 36.1055 77.3484 36.1981 77.2257 36.2752ZM76.4738 35.6272C76.5045 35.7198 76.5659 35.8123 76.6886 35.8586C76.796 35.9204 76.9034 35.9358 76.9955 35.9204C77.0876 35.8895 77.1643 35.8432 77.2257 35.7352C77.287 35.6426 77.287 35.5346 77.2564 35.442C77.2257 35.3495 77.1643 35.2569 77.0415 35.2106C76.9341 35.1489 76.8267 35.1334 76.7347 35.1489C76.6426 35.1797 76.5659 35.226 76.5045 35.334C76.4431 35.442 76.4431 35.5346 76.4738 35.6272Z" fill="#EC4860"./>
<path d="M74.694 39.469L73.9882 38.034L74.2797 37.7254L75.185 38.1266L74.7554 37.2317L75.0469 36.9231L76.5045 37.5711L76.2284 37.8643L75.2617 37.4323L75.7374 38.4043L75.4919 38.6666L74.5098 38.2346L74.9855 39.2067L74.694 39.469Z" fill="#EC4860"./>
<path d="M72.7146 39.824L73.6199 39.1606C73.5432 39.0988 73.4665 39.068 73.3744 39.068C73.2824 39.068 73.1903 39.0988 73.0982 39.1606C73.0369 39.2069 72.9908 39.2531 72.9448 39.3149C72.9141 39.3766 72.8834 39.4383 72.8681 39.5L72.5305 39.4383C72.5459 39.2223 72.6686 39.0371 72.8834 38.8828C73.0215 38.7903 73.1596 38.7131 73.2977 38.6977C73.4511 38.6823 73.5739 38.6977 73.6966 38.744C73.8194 38.8057 73.9268 38.8828 74.0189 39.0063C74.0956 39.1297 74.157 39.2531 74.1723 39.392C74.1876 39.5309 74.1723 39.6543 74.1109 39.7778C74.0496 39.9012 73.9575 40.0092 73.8347 40.1018C73.712 40.1789 73.5892 40.2406 73.4511 40.2561C73.3131 40.2715 73.1903 40.2561 73.0676 40.1944C72.9448 40.1326 72.8374 40.0401 72.7453 39.9166C72.776 39.9012 72.7607 39.8703 72.7146 39.824ZM73.8194 39.608C73.8347 39.5309 73.8194 39.4383 73.7887 39.3457L73.1903 39.7778C73.267 39.8549 73.3437 39.8858 73.4205 39.8858C73.4972 39.8858 73.5892 39.8703 73.666 39.8086C73.7427 39.7623 73.8041 39.6852 73.8194 39.608Z" fill="#EC4860"./>
<path d="M71.6865 41.2756C71.5484 41.2756 71.441 41.2293 71.3183 41.1522C71.2109 41.075 71.1188 40.9825 71.0421 40.8436C70.9654 40.7047 70.9347 40.5659 70.95 40.4424C70.95 40.3036 70.996 40.1955 71.0574 40.0721C71.1188 39.9487 71.2262 39.8715 71.3489 39.8098C71.5331 39.7172 71.7019 39.7018 71.8553 39.7635L71.7786 39.6092L72.1468 39.4241L73.0981 41.2602L72.7145 41.4608L72.3923 40.8127C72.3463 40.967 72.2389 41.0905 72.0855 41.183C71.9474 41.2448 71.8246 41.2756 71.6865 41.2756ZM71.395 40.319C71.3643 40.4116 71.3796 40.5196 71.441 40.6276C71.5024 40.7356 71.5791 40.8127 71.6712 40.8436C71.7632 40.8745 71.8706 40.8745 71.9627 40.8127C72.0548 40.7664 72.1161 40.6893 72.1468 40.5813C72.1775 40.4887 72.1622 40.3807 72.1008 40.2727C72.0394 40.1647 71.9627 40.0875 71.8706 40.0567C71.7786 40.0258 71.6712 40.0258 71.5791 40.0875C71.5024 40.1493 71.441 40.2264 71.395 40.319Z" fill="#EC4860"./>
<path d="M67.8198 42.5395L68.004 40.9657L68.4029 40.8731L68.9399 41.7063L69.0627 40.7188L69.4616 40.6262L70.3209 41.9686L69.9219 42.0612L69.3542 41.1508L69.2315 42.2309L68.8785 42.3235L68.3108 41.4131L68.1881 42.4778L67.8198 42.5395Z" fill="#EC4860"./>
<path d="M65.9788 41.721L67.0989 41.6748C67.0835 41.5822 67.0221 41.5205 66.9454 41.4587C66.8687 41.4124 66.7766 41.3816 66.6539 41.397C66.5772 41.397 66.5004 41.4124 66.4544 41.4433C66.393 41.4742 66.347 41.505 66.301 41.5667L66.0555 41.3353C66.1936 41.1656 66.393 41.073 66.6692 41.073C66.838 41.073 66.9914 41.0884 67.1142 41.1501C67.2523 41.2119 67.3444 41.3044 67.4364 41.4125C67.5131 41.5205 67.5592 41.6593 67.5592 41.7982C67.5592 41.9525 67.5438 42.0759 67.4825 42.1994C67.4211 42.3228 67.329 42.4154 67.2063 42.4925C67.0835 42.5697 66.9608 42.6005 66.8073 42.616C66.6539 42.616 66.5311 42.6005 66.4084 42.5388C66.2856 42.4771 66.1936 42.3845 66.1168 42.2765C66.0401 42.1685 66.0094 42.0296 65.9941 41.8753C65.9788 41.829 65.9788 41.7982 65.9788 41.721ZM67.0221 42.1531C67.0835 42.0914 67.1295 42.0142 67.1295 41.9216L66.393 41.9525C66.4084 42.0451 66.4544 42.1222 66.5311 42.1839C66.6079 42.2456 66.6846 42.2611 66.7766 42.2611C66.8687 42.2456 66.9608 42.2148 67.0221 42.1531Z" fill="#EC4860"./>
<path d="M64.3215 42.3698C64.2141 42.2926 64.1373 42.2 64.076 42.0766C64.0299 41.9532 63.9992 41.8143 64.0299 41.66C64.0453 41.5057 64.0913 41.3823 64.168 41.2743C64.2447 41.1663 64.3368 41.0891 64.4596 41.0274C64.5823 40.9811 64.7051 40.9503 64.8432 40.9657C65.0426 40.9811 65.1961 41.0737 65.2881 41.2126L65.3035 41.0428L65.7178 41.0891L65.5029 43.1413L65.0733 43.095L65.15 42.3698C65.0273 42.4778 64.8738 42.5241 64.6897 42.5086C64.5516 42.4932 64.4289 42.4469 64.3215 42.3698ZM64.613 41.4131C64.5363 41.4903 64.4903 41.5674 64.4749 41.7063C64.4596 41.8297 64.4903 41.9377 64.5516 42.0149C64.613 42.092 64.7051 42.1538 64.8125 42.1538C64.9199 42.1692 65.0119 42.1383 65.104 42.0612C65.1807 41.984 65.2268 41.9069 65.2421 41.768C65.2574 41.6446 65.2421 41.5366 65.1654 41.4594C65.104 41.3823 65.0119 41.3206 64.9045 41.3206C64.7818 41.3206 64.6897 41.3514 64.613 41.4131Z" fill="#EC4860"./>
<path d="M60.4089 41.2589L61.4523 40.0554L61.8359 40.1943L61.8206 41.1818L62.4804 40.4412L62.864 40.58L62.8333 42.1693L62.4497 42.0304L62.4804 40.9503L61.7745 41.7681L61.437 41.6292L61.4677 40.5492L60.7772 41.3669L60.4089 41.2589Z" fill="#EC4860"./>
<path d="M59.3194 39.5623L60.2861 40.1486C60.3168 40.056 60.3168 39.9789 60.2708 39.8863C60.2247 39.7937 60.1633 39.732 60.0713 39.6703C59.9946 39.624 59.9332 39.6086 59.8718 39.5931C59.8104 39.5777 59.7337 39.5931 59.6723 39.5931L59.5956 39.2537C59.7951 39.192 60.0099 39.2228 60.2401 39.3617C60.3935 39.4389 60.4856 39.5469 60.5776 39.6703C60.6544 39.7937 60.7004 39.9172 60.7004 40.056C60.7004 40.1949 60.6697 40.3183 60.593 40.4418C60.5163 40.5652 60.4242 40.6732 60.3014 40.7349C60.1787 40.7967 60.0559 40.8275 59.9178 40.8275C59.7798 40.8275 59.6417 40.7812 59.5189 40.7041C59.3962 40.6269 59.2887 40.5344 59.2274 40.4109C59.1507 40.3029 59.12 40.1795 59.1353 40.0252C59.1353 39.8863 59.1813 39.7474 59.2581 39.624C59.2581 39.6549 59.2734 39.624 59.3194 39.5623ZM59.9485 40.5035C60.0253 40.4881 60.102 40.4418 60.1787 40.3646L59.5496 39.9943C59.5189 40.0869 59.5036 40.164 59.5343 40.2566C59.5649 40.3338 59.611 40.4109 59.703 40.4572C59.7644 40.5035 59.8565 40.5189 59.9485 40.5035Z" fill="#EC4860"./>
<path d="M57.5854 39.1751C57.5393 39.0516 57.524 38.9282 57.5547 38.7893C57.5853 38.6505 57.6314 38.5425 57.7388 38.419C57.8462 38.2956 57.9536 38.2184 58.0764 38.1722C58.1991 38.1259 58.3219 38.1104 58.46 38.1413C58.5827 38.1567 58.7055 38.2184 58.8129 38.311C58.9663 38.4499 59.0584 38.5888 59.0584 38.7585L59.1658 38.6196L59.488 38.8819L58.1684 40.4712L57.8308 40.1934L58.2912 39.638C58.1377 39.6534 57.9843 39.6071 57.8308 39.4991C57.7081 39.4065 57.6314 39.2985 57.5854 39.1751ZM58.3372 38.5425C58.2298 38.5579 58.1377 38.6042 58.061 38.7122C57.9843 38.8048 57.9383 38.9128 57.9536 39.0208C57.9536 39.1288 58.015 39.2059 58.0917 39.2831C58.1684 39.3602 58.2758 39.3757 58.3679 39.3757C58.4753 39.3602 58.5674 39.3139 58.6441 39.2059C58.7208 39.1134 58.7668 39.0054 58.7515 38.8973C58.7515 38.7893 58.6901 38.7122 58.6134 38.635C58.5367 38.5579 58.4446 38.527 58.3372 38.5425Z" fill="#EC4860"./>
<path d="M57.4016 25.5674L58.2762 26.3543L58.1534 26.6475L57.4323 26.6166L57.9693 27.1103L57.8466 27.4035L56.6804 27.3572L56.7878 27.0795L57.5857 27.1258L57.0026 26.5857L57.1101 26.3389L57.9079 26.3852L57.3249 25.8451L57.4016 25.5674Z" fill="#EC4860"./>
<path d="M58.675 24.7803L58.2301 25.4901C58.2914 25.521 58.3528 25.5055 58.4295 25.4901C58.4909 25.4592 58.5523 25.4129 58.583 25.3512C58.6137 25.3049 58.629 25.2587 58.6444 25.2124C58.6597 25.1661 58.6597 25.1198 58.6444 25.0581L58.8899 25.0118C58.9359 25.1661 58.9052 25.3204 58.7978 25.4901C58.7364 25.5981 58.6597 25.6752 58.5676 25.737C58.4756 25.7833 58.3835 25.8141 58.2761 25.8141C58.184 25.8141 58.0766 25.7833 57.9846 25.7215C57.8925 25.6598 57.8311 25.5827 57.7698 25.5055C57.7237 25.4129 57.7084 25.3204 57.7084 25.2124C57.7084 25.1044 57.7544 25.0118 57.8004 24.9192C57.8618 24.8266 57.9232 24.7649 58.0153 24.7032C58.1073 24.6569 58.1994 24.626 58.2914 24.6415C58.3835 24.6415 58.4909 24.6723 58.583 24.734C58.5983 24.734 58.629 24.7495 58.675 24.7803ZM57.9692 25.2278C57.9846 25.2895 58.0152 25.3512 58.0613 25.3975L58.3528 24.9346C58.2914 24.9038 58.2301 24.9038 58.1687 24.9192C58.1073 24.9346 58.0613 24.9809 58.0153 25.0426C57.9846 25.1044 57.9692 25.1661 57.9692 25.2278Z" fill="#EC4860"./>
<path d="M58.9818 23.4982C59.0738 23.4674 59.1659 23.4674 59.258 23.4828C59.35 23.4982 59.4421 23.5445 59.5341 23.6217C59.6262 23.6988 59.6722 23.776 59.7029 23.8685C59.7336 23.9611 59.749 24.0537 59.7183 24.1463C59.7029 24.2388 59.6569 24.3314 59.5955 24.4086C59.5034 24.5166 59.3807 24.5783 59.258 24.5783L59.35 24.6554L59.1505 24.8869L57.9998 23.884L58.2146 23.6371L58.6135 23.992C58.5982 23.8685 58.6442 23.7605 58.7363 23.6525C58.813 23.5908 58.8897 23.5291 58.9818 23.4982ZM59.4421 24.0691C59.4421 23.992 59.396 23.9302 59.3347 23.8685C59.258 23.8068 59.1966 23.776 59.1199 23.776C59.0431 23.776 58.9818 23.8068 58.9204 23.8685C58.859 23.9302 58.8437 23.992 58.8437 24.0691C58.8437 24.1463 58.8897 24.208 58.9511 24.2697C59.0278 24.3314 59.0892 24.3623 59.1659 24.3623C59.2426 24.3623 59.304 24.3314 59.3654 24.2697C59.4267 24.2234 59.4421 24.1463 59.4421 24.0691Z" fill="#EC4860"./>
<path d="M61.3145 21.5703L61.606 22.7121L61.3605 22.8818L60.7774 22.4498L60.9462 23.1596L60.7007 23.3293L59.7494 22.635L59.9949 22.4652L60.6393 22.9435L60.4399 22.1721L60.6547 22.0178L61.2991 22.4961L61.0997 21.7246L61.3145 21.5703Z" fill="#EC4860"./>
<path d="M62.8022 21.6332L62.035 21.9727C62.0811 22.0344 62.1271 22.0653 62.2038 22.0807C62.2652 22.0961 62.3419 22.0807 62.4186 22.0498C62.4647 22.019 62.5107 22.0036 62.5414 21.9573C62.5721 21.9264 62.6028 21.8801 62.6181 21.8338L62.8483 21.9264C62.8022 22.0807 62.6948 22.2041 62.4953 22.2813C62.3879 22.3276 62.2805 22.3584 62.1578 22.343C62.0504 22.343 61.9583 22.3121 61.8663 22.2504C61.7895 22.1887 61.7281 22.1116 61.6668 22.019C61.6207 21.9264 61.6054 21.8184 61.6207 21.7104C61.6361 21.6178 61.6668 21.5252 61.7282 21.4327C61.7895 21.3555 61.8662 21.2938 61.9737 21.2475C62.0657 21.2012 62.1731 21.1858 62.2652 21.1858C62.3573 21.1858 62.4493 21.2321 62.5414 21.2784C62.6181 21.3401 62.6795 21.4172 62.7408 21.5252C62.7715 21.5561 62.7869 21.587 62.8022 21.6332ZM61.9737 21.6178C61.943 21.6795 61.943 21.7413 61.9583 21.803L62.4493 21.5715C62.4186 21.5098 62.3573 21.479 62.2959 21.4481C62.2345 21.4327 62.1731 21.4327 62.1117 21.4635C62.0504 21.5098 62.0043 21.5561 61.9737 21.6178Z" fill="#EC4860"./>
<path d="M63.7691 20.7373C63.8611 20.7682 63.9379 20.8144 64.0146 20.8762C64.076 20.9533 64.1373 21.0305 64.168 21.1385C64.1987 21.2465 64.1987 21.3545 64.1834 21.4471C64.1527 21.5396 64.1066 21.6168 64.0453 21.6939C63.9839 21.7557 63.8918 21.8019 63.7998 21.8328C63.6617 21.8791 63.5236 21.8637 63.4315 21.7865L63.4622 21.91L63.1707 21.9871L62.7717 20.5059L63.0786 20.4287L63.2167 20.9533C63.2781 20.8453 63.3701 20.7682 63.4929 20.7373C63.585 20.7219 63.677 20.7219 63.7691 20.7373ZM63.8305 21.4779C63.8611 21.4162 63.8765 21.3391 63.8458 21.2465C63.8151 21.1539 63.7844 21.0922 63.7077 21.0459C63.6463 20.9996 63.5696 20.9996 63.4929 21.015C63.4162 21.0305 63.3548 21.0768 63.3241 21.1539C63.2934 21.2156 63.2781 21.2928 63.3088 21.3853C63.3395 21.4779 63.3701 21.5396 63.4469 21.5859C63.5082 21.6322 63.585 21.6322 63.6617 21.6168C63.7384 21.5859 63.7998 21.5396 63.8305 21.4779Z" fill="#EC4860"./>
<path d="M66.7611 20.4288L66.3775 21.5397H66.0706L65.8098 20.8608L65.5643 21.5551H65.2574L64.8431 20.4442H65.15L65.4262 21.1848L65.6871 20.4288H65.9632L66.2394 21.1694L66.5003 20.4133L66.7611 20.4288Z" fill="#EC4860"./>
<path d="M67.9734 21.3083L67.1448 21.1694C67.1448 21.2466 67.1755 21.2928 67.2215 21.3391C67.2676 21.3854 67.3289 21.4163 67.421 21.4317C67.4824 21.4471 67.5284 21.4471 67.5744 21.4317C67.6205 21.4163 67.6665 21.4009 67.7125 21.37L67.8506 21.586C67.7279 21.6786 67.5591 21.7249 67.375 21.6786C67.2522 21.6632 67.1448 21.6169 67.0527 21.5551C66.9607 21.4934 66.8993 21.4163 66.8686 21.3237C66.8379 21.2311 66.8226 21.1231 66.8379 21.0151C66.8533 20.9071 66.8993 20.8145 66.9607 20.7374C67.0221 20.6602 67.0988 20.5985 67.2062 20.5677C67.2982 20.5368 67.4057 20.5214 67.5131 20.5522C67.6205 20.5677 67.7125 20.6139 67.7892 20.6757C67.866 20.7374 67.9273 20.8145 67.958 20.9071C67.9887 20.9997 68.0041 21.1077 67.9734 21.2157C67.9887 21.2311 67.9887 21.262 67.9734 21.3083ZM67.2982 20.83C67.2369 20.8608 67.2062 20.9071 67.1755 20.9843L67.7125 21.0768C67.7125 20.9997 67.6972 20.9534 67.6512 20.8917C67.6051 20.8454 67.5591 20.8145 67.4824 20.7991C67.421 20.7837 67.3596 20.7991 67.2982 20.83Z" fill="#EC4860"./>
<path d="M69.2775 21.1083C69.3389 21.1854 69.3849 21.2626 69.4003 21.3552C69.4156 21.4477 69.4156 21.5558 69.3696 21.6638C69.3389 21.7718 69.2775 21.8643 69.2008 21.9261C69.1241 21.9878 69.0474 22.0341 68.9553 22.0495C68.8632 22.0649 68.7712 22.0649 68.6638 22.0341C68.5257 21.9878 68.4183 21.9106 68.3722 21.7872L68.3262 21.9106L68.0347 21.8181L68.5103 20.3677L68.8172 20.4757L68.6484 20.9849C68.7558 20.9231 68.8632 20.9231 69.0013 20.9694C69.1241 20.9849 69.2162 21.0311 69.2775 21.1083ZM68.9246 21.7409C68.986 21.71 69.032 21.6483 69.0627 21.5558C69.0934 21.4632 69.0934 21.386 69.0627 21.3243C69.032 21.2626 68.9706 21.2009 68.8939 21.1854C68.8172 21.1546 68.7405 21.17 68.6791 21.2009C68.6177 21.2317 68.5717 21.2934 68.541 21.386C68.5103 21.4786 68.5103 21.5557 68.541 21.6175C68.5717 21.6792 68.6331 21.7409 68.7098 21.7563C68.7865 21.7872 68.8479 21.7872 68.9246 21.7409Z" fill="#EC4860"./>
<path d="M71.9476 22.5116L71.0117 23.2214L70.7508 23.0517L70.9196 22.3419L70.3365 22.7739L70.0757 22.6042L70.3365 21.4624L70.5974 21.6321L70.4132 22.4036L71.0423 21.9253L71.2725 22.0796L71.0884 22.8511L71.7175 22.3728L71.9476 22.5116Z" fill="#EC4860"./>
<path d="M72.4693 23.9168L71.8555 23.3459C71.8248 23.4076 71.8095 23.4693 71.8248 23.531C71.8402 23.5928 71.8709 23.6545 71.9322 23.7162C71.9783 23.7625 72.0089 23.7779 72.055 23.8088C72.101 23.8242 72.147 23.8396 72.1931 23.8396V24.1019C72.0396 24.1174 71.8862 24.0557 71.7328 23.9168C71.6407 23.8396 71.5793 23.7316 71.5333 23.639C71.5026 23.5465 71.4873 23.4385 71.5179 23.3305C71.5333 23.2379 71.5793 23.1453 71.656 23.0527C71.7328 22.9756 71.8095 22.9139 71.9169 22.8984C72.0243 22.883 72.1164 22.8676 72.2084 22.8984C72.3005 22.9293 72.3925 22.9756 72.4846 23.0527C72.5613 23.1299 72.6227 23.207 72.6534 23.2996C72.6841 23.3922 72.6841 23.4848 72.6687 23.5928C72.6534 23.6853 72.592 23.7779 72.5153 23.8705C72.5306 23.8551 72.5153 23.8705 72.4693 23.9168ZM72.1624 23.1453C72.101 23.1453 72.0396 23.1607 71.9783 23.207L72.3772 23.5773C72.4232 23.5156 72.4386 23.4539 72.4232 23.3922C72.4079 23.3305 72.3925 23.2687 72.3312 23.2225C72.2851 23.1762 72.2238 23.1453 72.1624 23.1453Z" fill="#EC4860"./>
<path d="M73.666 24.4557C73.6814 24.5482 73.666 24.6408 73.6353 24.7334C73.5893 24.826 73.5279 24.9031 73.4512 24.9803C73.3591 25.0574 73.2671 25.0883 73.175 25.1037C73.0829 25.1191 72.9909 25.1037 72.8988 25.0728C72.8068 25.042 72.73 24.9803 72.6687 24.9031C72.5766 24.7797 72.5459 24.6562 72.5766 24.5328L72.4845 24.61L72.3004 24.3631L73.4972 23.4219L73.6967 23.6687L73.2671 24.0082C73.3898 24.0236 73.4819 24.0699 73.574 24.1934C73.6046 24.2859 73.6507 24.3631 73.666 24.4557ZM73.0216 24.8105C73.0983 24.8105 73.175 24.7951 73.2364 24.7334C73.3131 24.6717 73.3438 24.61 73.3591 24.5328C73.3745 24.4557 73.3438 24.3939 73.2978 24.3168C73.2517 24.2551 73.1904 24.2088 73.1136 24.2088C73.0369 24.2088 72.9602 24.2242 72.8988 24.2859C72.8221 24.3477 72.7914 24.4094 72.7761 24.4865C72.7607 24.5637 72.7914 24.6254 72.8375 24.7025C72.8835 24.7642 72.9448 24.7951 73.0216 24.8105Z" fill="#EC4860"./>
<path d="M75.1082 27.1256L73.9421 27.2027L73.8193 26.9096L74.3564 26.4004L73.6352 26.4312L73.5125 26.1381L74.3564 25.3203L74.4791 25.598L73.896 26.1381L74.6939 26.0918L74.8013 26.3387L74.2183 26.8787L75.0161 26.8324L75.1082 27.1256Z" fill="#EC4860"./>
<path d="M74.7708 28.5761L74.5714 27.7584C74.51 27.7892 74.464 27.8355 74.4333 27.8972C74.4026 27.959 74.4026 28.0361 74.4179 28.1133C74.4333 28.175 74.4486 28.2213 74.4793 28.2521C74.51 28.2984 74.5407 28.3293 74.5867 28.3601L74.4486 28.5607C74.3105 28.4836 74.2185 28.3601 74.1724 28.1595C74.1417 28.0361 74.1417 27.9281 74.1724 27.8201C74.2031 27.7121 74.2492 27.6349 74.3105 27.5578C74.3872 27.4806 74.464 27.4343 74.5714 27.4189C74.6788 27.3881 74.7708 27.4035 74.8783 27.4344C74.9703 27.4652 75.0624 27.5115 75.1238 27.5886C75.1851 27.6658 75.2312 27.7584 75.2618 27.8664C75.2925 27.9744 75.2925 28.067 75.2618 28.175C75.2312 28.2675 75.1851 28.3447 75.1084 28.4218C75.0317 28.4836 74.9396 28.5298 74.8322 28.5607C74.8629 28.5607 74.8322 28.5761 74.7708 28.5761ZM74.955 27.7738C74.9089 27.7429 74.8476 27.7121 74.7708 27.7275L74.8936 28.2521C74.955 28.2213 75.001 28.1904 75.0317 28.1287C75.0624 28.067 75.0624 28.0052 75.047 27.9435C75.0317 27.8664 75.001 27.8047 74.955 27.7738Z" fill="#EC4860"./>
<path d="M75.4769 29.7028C75.4308 29.7954 75.3695 29.8571 75.2928 29.9188C75.216 29.9805 75.1086 30.0114 75.0012 30.0114C74.8938 30.0268 74.7864 30.0114 74.6943 29.9651C74.6023 29.9188 74.5409 29.8571 74.4795 29.7799C74.4335 29.7028 74.4028 29.6102 74.3875 29.5022C74.3721 29.3479 74.4181 29.2245 74.4949 29.1473L74.3721 29.1627L74.3414 28.8542L75.8605 28.7307L75.8912 29.0547L75.3541 29.101C75.4462 29.1782 75.5076 29.2862 75.5076 29.425C75.5382 29.5176 75.5076 29.6102 75.4769 29.7028ZM74.7404 29.6256C74.8017 29.6719 74.8785 29.6873 74.9705 29.6873C75.0626 29.6873 75.1393 29.6411 75.1853 29.5948C75.2314 29.5331 75.2621 29.4713 75.2467 29.3942C75.2467 29.317 75.2007 29.2553 75.1547 29.1936C75.0933 29.1473 75.0166 29.1319 74.9245 29.1319C74.8324 29.1319 74.7557 29.1782 74.7097 29.2245C74.6636 29.2862 74.633 29.3479 74.6483 29.425C74.6483 29.5176 74.679 29.5793 74.7404 29.6256Z" fill="#EC4860"./>
<path d="M75.2155 32.7264L74.2028 32.1401L74.2641 31.8315L74.9853 31.7081L74.3562 31.3378L74.4176 31.0292L75.5684 30.8286L75.5223 31.1218L74.7398 31.2452L75.4303 31.6464L75.3842 31.9241L74.6017 32.0475L75.2922 32.4487L75.2155 32.7264Z" fill="#EC4860"./>
<path d="M74.1262 33.7601L74.4177 32.9731C74.3563 32.9577 74.2796 32.9731 74.2336 33.0194C74.1875 33.0657 74.1415 33.112 74.1108 33.1892C74.0955 33.2354 74.0801 33.2972 74.0801 33.3435C74.0801 33.3897 74.0955 33.436 74.1108 33.4823L73.8807 33.5749C73.8039 33.436 73.8039 33.2663 73.8653 33.0812C73.9113 32.9577 73.9727 32.8651 74.0494 32.788C74.1262 32.7108 74.2182 32.6645 74.3103 32.6491C74.4024 32.6337 74.5098 32.6337 74.6172 32.68C74.7246 32.7108 74.8013 32.7726 74.8627 32.8497C74.924 32.9269 74.9701 33.0194 74.9854 33.112C75.0008 33.22 74.9854 33.3126 74.9547 33.4206C74.924 33.5286 74.8627 33.6058 74.7859 33.6829C74.7092 33.7446 74.6325 33.7909 74.5251 33.8063C74.433 33.8218 74.3256 33.8063 74.2182 33.7755C74.2029 33.7909 74.1875 33.7755 74.1262 33.7601ZM74.7246 33.1737C74.7092 33.112 74.6632 33.0657 74.6018 33.0349L74.4177 33.544C74.4791 33.5595 74.5558 33.544 74.6018 33.5132C74.6632 33.4823 74.6939 33.436 74.7246 33.3589C74.7399 33.2972 74.7399 33.2354 74.7246 33.1737Z" fill="#EC4860"./>
<path d="M74.0957 35.087C74.0189 35.1332 73.9269 35.1641 73.8195 35.1641C73.7274 35.1641 73.62 35.1332 73.5279 35.087C73.4359 35.0252 73.3592 34.9635 73.2978 34.8864C73.2518 34.8092 73.2211 34.7166 73.2211 34.6086C73.2211 34.5161 73.2518 34.4235 73.2978 34.3309C73.3745 34.192 73.4666 34.1149 73.5893 34.0995L73.4819 34.0377L73.6353 33.76L74.9703 34.5006L74.8168 34.7784L74.3412 34.5161C74.3719 34.6241 74.3719 34.7475 74.2951 34.8709C74.2491 34.9481 74.1724 35.0252 74.0957 35.087ZM73.5279 34.6086C73.5433 34.6858 73.6047 34.7475 73.6814 34.7784C73.7581 34.8247 73.8348 34.8401 73.9115 34.8247C73.9883 34.8092 74.0343 34.7629 74.0803 34.6858C74.1264 34.6086 74.1264 34.5469 74.111 34.4698C74.0957 34.3926 74.0343 34.3309 73.9576 34.3C73.8809 34.2538 73.8041 34.2383 73.7274 34.2538C73.6507 34.2692 73.6047 34.3155 73.5586 34.3926C73.5126 34.4698 73.5126 34.5315 73.5279 34.6086Z" fill="#EC4860"./>
<path d="M72.2238 37.4484L71.7021 36.3837L71.917 36.1523L72.5921 36.4455L72.2699 35.782L72.4847 35.5505L73.5588 36.0289L73.3593 36.2449L72.6381 35.9208L72.991 36.6306L72.8069 36.8312L72.0857 36.5072L72.4387 37.2169L72.2238 37.4484Z" fill="#EC4860"./>
<path d="M70.7506 37.7096L71.4257 37.2159C71.3797 37.1696 71.3183 37.1541 71.2416 37.1541C71.1802 37.1541 71.1035 37.185 71.0421 37.2313C70.9961 37.2622 70.9654 37.3084 70.9347 37.3393C70.904 37.3856 70.8887 37.4319 70.8887 37.4782L70.6432 37.4319C70.6585 37.2776 70.7506 37.1387 70.904 37.0153C70.9961 36.9381 71.1035 36.8918 71.2109 36.8764C71.3183 36.861 71.4104 36.8764 71.5178 36.9073C71.6099 36.9536 71.6866 37.0153 71.7633 37.0924C71.8247 37.185 71.8554 37.2776 71.8707 37.3856C71.886 37.4782 71.8707 37.5862 71.8247 37.6788C71.7786 37.7713 71.7173 37.8485 71.6252 37.9256C71.5331 37.9873 71.4411 38.0336 71.349 38.0336C71.2569 38.0491 71.1649 38.0336 71.0575 37.9873C70.9654 37.9411 70.8887 37.8793 70.812 37.7868C70.7966 37.7713 70.7813 37.7559 70.7506 37.7096ZM71.5638 37.5553C71.5792 37.4936 71.5638 37.4319 71.5331 37.3702L71.0882 37.6942C71.1342 37.7405 71.1956 37.7713 71.2569 37.7713C71.3183 37.7713 71.3797 37.7559 71.4411 37.7096C71.5178 37.6633 71.5485 37.617 71.5638 37.5553Z" fill="#EC4860"./>
<path d="M69.9834 38.7897C69.8913 38.7897 69.7993 38.7589 69.7072 38.6972C69.6305 38.6509 69.5538 38.5737 69.5077 38.4657C69.4617 38.3577 69.431 38.2651 69.431 38.1571C69.431 38.0645 69.4617 37.972 69.5077 37.8794C69.5538 37.8022 69.6305 37.7405 69.7226 37.6942C69.8607 37.6325 69.9834 37.6171 70.0908 37.6634L70.0294 37.5554L70.3056 37.4165L71.0114 38.7743L70.7199 38.9132L70.4744 38.4349C70.4437 38.5429 70.367 38.6354 70.2443 38.7126C70.1829 38.7743 70.0908 38.7897 69.9834 38.7897ZM69.7686 38.08C69.7533 38.1571 69.7532 38.2343 69.7993 38.3114C69.8453 38.3886 69.8913 38.4503 69.9681 38.4657C70.0448 38.4966 70.1062 38.4811 70.1829 38.4503C70.2596 38.4194 70.3056 38.3577 70.321 38.2806C70.3363 38.2034 70.3363 38.1263 70.2903 38.0491C70.2443 37.972 70.1982 37.9102 70.1215 37.8948C70.0448 37.864 69.9834 37.8794 69.9067 37.9102C69.8453 37.9565 69.7993 38.0028 69.7686 38.08Z" fill="#EC4860"./>
<path d="M67.1295 39.732L67.2676 38.5593L67.5745 38.4976L67.9734 39.1148L68.0655 38.3896L68.3724 38.3279L69.0015 39.3154L68.7099 39.3771L68.2956 38.6982L68.2036 39.5005L67.9427 39.5622L67.5285 38.8833L67.4364 39.6703L67.1295 39.732Z" fill="#EC4860"./>
<path d="M65.7639 39.1136L66.5925 39.0827C66.5771 39.021 66.5311 38.9593 66.4851 38.9284C66.4237 38.8976 66.3623 38.8821 66.2703 38.8821C66.2089 38.8821 66.1629 38.8976 66.1168 38.913C66.0708 38.9284 66.0401 38.9593 65.9941 39.0056L65.8253 38.8358C65.9174 38.7124 66.0708 38.6353 66.2703 38.6353C66.393 38.6353 66.5004 38.6507 66.6078 38.697C66.6999 38.7433 66.7766 38.805 66.838 38.8821C66.8994 38.9593 66.9301 39.0673 66.9301 39.1753C66.9301 39.2833 66.9147 39.3759 66.8687 39.4685C66.8226 39.561 66.7613 39.6227 66.6692 39.6845C66.5771 39.7308 66.4851 39.7616 66.3623 39.777C66.2549 39.777 66.1629 39.7616 66.0708 39.7153C65.9787 39.669 65.9174 39.6073 65.856 39.5302C65.81 39.453 65.7793 39.345 65.7639 39.2216C65.7639 39.2061 65.7639 39.1753 65.7639 39.1136ZM66.5311 39.4376C66.5771 39.3913 66.6078 39.345 66.6078 39.2679L66.0708 39.2987C66.0861 39.3604 66.1168 39.4222 66.1629 39.4685C66.2089 39.5147 66.2703 39.5302 66.347 39.5302C66.4237 39.5147 66.4851 39.4839 66.5311 39.4376Z" fill="#EC4860"./>
<path d="M64.5362 39.6082C64.4595 39.5465 64.3981 39.4848 64.3674 39.3922C64.3367 39.2997 64.3214 39.2071 64.3367 39.0836C64.3521 38.9756 64.3827 38.8831 64.4441 38.7905C64.5055 38.7133 64.5669 38.6516 64.6589 38.6207C64.751 38.5899 64.8431 38.5745 64.9505 38.5745C65.1039 38.5899 65.2113 38.6516 65.288 38.7596L65.3034 38.6362L65.6102 38.667L65.4415 40.1946L65.1192 40.1637L65.1806 39.6237C65.0886 39.7008 64.9812 39.7317 64.8277 39.7163C64.705 39.6854 64.6129 39.6545 64.5362 39.6082ZM64.7356 38.8985C64.6743 38.9448 64.6436 39.0219 64.6282 39.1145C64.6129 39.2071 64.6436 39.2842 64.6743 39.3459C64.7203 39.4077 64.7817 39.4385 64.8584 39.4539C64.9351 39.4694 65.0118 39.4385 65.0732 39.3922C65.1346 39.3459 65.1653 39.2688 65.1806 39.1762C65.196 39.0836 65.1806 39.0065 65.1346 38.9448C65.0886 38.8831 65.0272 38.8522 64.9505 38.8368C64.8737 38.8213 64.797 38.8368 64.7356 38.8985Z" fill="#EC4860"./>
<path d="M61.6362 38.7753L62.4034 37.8804L62.695 37.9884L62.6796 38.7136L63.1706 38.1581L63.4621 38.2661L63.4468 39.4388L63.1553 39.3308L63.186 38.5284L62.6643 39.1302L62.4034 39.0376L62.4188 38.2352L61.8971 38.837L61.6362 38.7753Z" fill="#EC4860"./>
<path d="M60.8231 37.5254L61.5443 37.9574C61.5597 37.8957 61.5597 37.834 61.529 37.7569C61.4983 37.6951 61.4523 37.6489 61.3755 37.6026C61.3295 37.5717 61.2835 37.5563 61.2374 37.5408C61.1914 37.5254 61.1454 37.5408 61.084 37.5408L61.038 37.294C61.1914 37.2477 61.3448 37.2785 61.5136 37.3711C61.621 37.4328 61.6978 37.51 61.7591 37.6026C61.8205 37.6951 61.8512 37.7877 61.8512 37.8957C61.8512 37.9883 61.8205 38.0963 61.7745 38.1889C61.7131 38.2815 61.6517 38.3586 61.5597 38.4049C61.4676 38.4512 61.3755 38.4666 61.2681 38.4666C61.1607 38.4666 61.0686 38.4358 60.9766 38.374C60.8845 38.3123 60.8078 38.2506 60.7618 38.158C60.7157 38.0809 60.6851 37.9883 60.6851 37.8803C60.6851 37.7877 60.7157 37.6797 60.7771 37.5717C60.7771 37.5871 60.7925 37.5717 60.8231 37.5254ZM61.2835 38.2197C61.3448 38.2043 61.4062 38.1735 61.4523 38.1272L60.9919 37.8494C60.9612 37.9112 60.9612 37.9729 60.9766 38.0346C60.9919 38.0963 61.038 38.1426 61.0993 38.1735C61.1607 38.2197 61.2221 38.2352 61.2835 38.2197Z" fill="#EC4860"./>
<path d="M59.5344 37.2324C59.5037 37.1398 59.4884 37.0472 59.5037 36.9546C59.519 36.8621 59.5651 36.7695 59.6418 36.6769C59.7185 36.5843 59.7952 36.5226 59.8873 36.4917C59.9794 36.4609 60.0714 36.4455 60.1635 36.4609C60.2555 36.4763 60.3476 36.5226 60.4243 36.5843C60.5471 36.6769 60.5931 36.7849 60.6085 36.9238L60.6852 36.8312L60.9153 37.0318L59.9487 38.2044L59.7032 38.0038L60.0407 37.5872C59.918 37.6027 59.8106 37.5718 59.7032 37.4792C59.6264 37.4175 59.5804 37.3249 59.5344 37.2324ZM60.1021 36.7695C60.0254 36.7849 59.964 36.8158 59.9026 36.8929C59.8413 36.9701 59.8106 37.0318 59.8259 37.1089C59.8259 37.1861 59.872 37.2478 59.9333 37.2941C59.9947 37.3404 60.0714 37.3712 60.1328 37.3558C60.2095 37.3404 60.2709 37.3095 60.3323 37.2324C60.3936 37.1552 60.4243 37.0935 60.409 37.0164C60.409 36.9392 60.363 36.8775 60.3016 36.8312C60.2402 36.7849 60.1788 36.754 60.1021 36.7695Z" fill="#EC4860"./>
<path d="M42.81 12.9907C42.6251 12.8674 42.3477 12.6671 42.0087 12.436C40.2211 11.2494 38.2486 10.032 37.0466 9.52344C34.396 8.3831 31.5451 7.81292 28.5092 7.81292C25.5658 7.81292 22.8228 8.30605 20.2647 9.3077C17.7065 10.294 15.4874 11.7117 13.6228 13.5301C11.7427 15.3485 10.2787 17.5059 9.21541 19.9869C8.15209 22.4679 7.61273 25.2109 7.61273 28.1851C7.61273 31.0205 8.18291 33.6557 9.32328 36.1059C10.4637 38.5407 12.0047 40.6364 13.9464 42.3932C15.8881 44.1499 18.1226 45.5214 20.6345 46.5077C23.1464 47.4939 25.797 48.0025 28.6017 48.0025C31.2985 48.0025 33.8412 47.5556 36.2144 46.6618C38.5876 45.768 40.6988 44.5198 42.5481 42.9171V33.2858H35.7213L32.3926 25.6116H50.2687V46.2303C47.5564 49.2199 44.3511 51.5622 40.6218 53.2727C36.8924 54.9832 32.8703 55.8308 28.5554 55.8308C24.5179 55.8308 20.7732 55.0911 17.3059 53.6272C13.8385 52.1632 10.8181 50.1445 8.25996 47.5864C5.70184 45.0283 3.68308 42.0079 2.20369 38.5253C0.724288 35.0426 0 31.3133 0 27.3221C0 23.4388 0.770519 19.8174 2.31156 16.4734C3.8526 13.1294 5.933 10.2323 8.56817 7.79751C11.2033 5.36272 14.2392 3.45186 17.7065 2.06496C21.1739 0.693456 24.7953 0 28.5863 0C32.6084 0 36.3685 0.739685 39.8512 2.23446C40.7605 2.61972 43.4419 3.8063 46.4161 6.1024C47.1712 6.68799 47.7722 7.21193 48.2037 7.59718C46.4007 9.40016 44.6131 11.1877 42.81 12.9907Z" fill="#90DBDF"./>
</svg>
