<svg width="1920" height="5245" viewBox="0 0 1920 5245" fill="none" xmlns="http://www.w3.org/2000/svg">
<g clip-path="url(#clip0_221_13)">
<path d="M1167 0C1167 0 679.78 197.502 473 444C205.951 762.343 157 1460 157 1460C157 1460 763.796 1446.3 1079 1633C1387.85 1815.94 1667 2339.5 1667 2339.5C1667 2339.5 987.838 2541.12 676.5 2843.5C416.065 3096.44 190.5 3636 190.5 3636C190.5 3636 838.943 3587.57 1174.5 3783.5C1486.76 3965.82 1764 4497.5 1764 4497.5C1764 4497.5 1089.15 4497.12 736.5 4705C477.072 4857.93 186 5245 186 5245" stroke="black" stroke-width="3" stroke-dasharray="22 22"./>
</g>
<defs>
<clipPath id="clip0_221_13">
<rect width="1920" height="5245" fill="white"./>
</clipPath>
</defs>
</svg>
