<svg width="1612" height="5248" viewBox="0 0 1612 5248" fill="none" xmlns="http://www.w3.org/2000/svg">
<path d="M1012 1.5C1012 1.5 524.78 199.002 318 445.5C50.9511 763.843 2 1461.5 2 1461.5C2 1461.5 608.796 1447.8 924 1634.5C1232.85 1817.44 1512 2341 1512 2341C1512 2341 832.838 2542.62 521.5 2845C261.065 3097.94 35.5 3637.5 35.5 3637.5C35.5 3637.5 683.943 3589.07 1019.5 3785C1331.76 3967.32 1609 4499 1609 4499C1609 4499 934.153 4498.62 581.5 4706.5C322.072 4859.43 31 5246.5 31 5246.5" stroke="black" stroke-width="3" stroke-dasharray="22 22"./>
</svg>
