<svg width="24" height="25" viewBox="0 0 24 25" fill="none" xmlns="http://www.w3.org/2000/svg">
<g clip-path="url(#clip0_57_5736)">
<path d="M10.0993 10.2492C10.0993 9.33081 9.47432 9.33081 9.47432 9.33081H9.14322H6.90331H6.90234V11.302H9.31481C9.73196 11.302 10.0993 11.169 10.0993 10.2492V10.2492Z" fill="#383838"./>
<path d="M16.0579 11.3025C14.6944 11.3025 14.5039 12.6627 14.5039 12.6627H17.4051C17.4051 12.6636 17.4229 11.3025 16.0579 11.3025Z" fill="#383838"./>
<path d="M9.47483 12.6638H6.9043V15.0255H9.18143C9.22009 15.0255 9.27713 15.0275 9.34529 15.0255C9.71119 15.0164 10.4068 14.9119 10.4068 13.878C10.4068 12.6522 9.47483 12.6638 9.47483 12.6638Z" fill="#383838"./>
<path d="M12 0.250732C5.38323 0.250732 0 5.63396 0 12.2507C0 18.867 5.38323 24.2507 12 24.2507C18.6163 24.2507 24 18.867 24 12.2507C24 5.63396 18.6173 0.250732 12 0.250732ZM14.1234 8.28183H17.7675V9.36988H14.1234V8.28183ZM12.2808 13.9875C12.2808 16.6832 9.47442 16.5952 9.47442 16.5952H6.90389H6.82849H4.87859V7.76173H6.82849H6.90389H9.47442C10.8718 7.76173 11.9744 8.53366 11.9744 10.1143C11.9744 11.6944 10.6268 11.7949 10.6268 11.7949C12.4031 11.7944 12.2808 13.9875 12.2808 13.9875ZM19.0987 13.8424H14.5207C14.5207 15.484 16.0757 15.3805 16.0757 15.3805C17.5432 15.3805 17.492 14.4302 17.492 14.4302H19.0479C19.0479 16.9524 16.025 16.7789 16.025 16.7789C12.3983 16.7789 12.6313 13.4026 12.6313 13.4026C12.6313 13.4026 12.6279 10.0084 16.025 10.0084C19.5999 10.0084 19.0977 13.8424 19.0987 13.8424V13.8424Z" fill="#383838"./>
</g>
<defs>
<clipPath id="clip0_57_5736">
<rect width="24" height="24" fill="white" transform="translate(0 0.250732)"./>
</clipPath>
</defs>
</svg>
