<svg width="24" height="25" viewBox="0 0 24 25" fill="none" xmlns="http://www.w3.org/2000/svg">
<g clip-path="url(#clip0_57_5756)">
<path d="M14.2969 12.2507C14.2969 13.5193 13.2686 14.5476 12 14.5476C10.7314 14.5476 9.70312 13.5193 9.70312 12.2507C9.70312 10.9822 10.7314 9.95386 12 9.95386C13.2686 9.95386 14.2969 10.9822 14.2969 12.2507Z" fill="#383838"./>
<path d="M17.3713 8.18646C17.2609 7.88727 17.0848 7.61646 16.8559 7.39417C16.6336 7.16528 16.363 6.98914 16.0636 6.87872C15.8208 6.78442 15.4561 6.67218 14.7842 6.6416C14.0575 6.60846 13.8396 6.60132 11.9998 6.60132C10.1597 6.60132 9.94183 6.60828 9.21527 6.64142C8.54346 6.67218 8.17853 6.78442 7.93591 6.87872C7.63654 6.98914 7.36572 7.16528 7.14362 7.39417C6.91473 7.61646 6.73859 7.88709 6.62799 8.18646C6.53369 8.42926 6.42145 8.79419 6.39087 9.466C6.35773 10.1926 6.35059 10.4105 6.35059 12.2505C6.35059 14.0903 6.35773 14.3082 6.39087 15.035C6.42145 15.7068 6.53369 16.0715 6.62799 16.3143C6.73859 16.6137 6.91455 16.8843 7.14343 17.1066C7.36572 17.3355 7.63635 17.5117 7.93573 17.6221C8.17853 17.7166 8.54346 17.8288 9.21527 17.8594C9.94183 17.8925 10.1595 17.8995 11.9996 17.8995C13.8398 17.8995 14.0577 17.8925 14.7841 17.8594C15.4559 17.8288 15.8208 17.7166 16.0636 17.6221C16.6646 17.3903 17.1395 16.9153 17.3713 16.3143C17.4656 16.0715 17.5779 15.7068 17.6086 15.035C17.6418 14.3082 17.6487 14.0903 17.6487 12.2505C17.6487 10.4105 17.6418 10.1926 17.6086 9.466C17.5781 8.79419 17.4658 8.42926 17.3713 8.18646V8.18646ZM11.9998 15.7886C10.0455 15.7886 8.46124 14.2046 8.46124 12.2503C8.46124 10.296 10.0455 8.71198 11.9998 8.71198C13.9539 8.71198 15.5381 10.296 15.5381 12.2503C15.5381 14.2046 13.9539 15.7886 11.9998 15.7886ZM15.678 9.39899C15.2213 9.39899 14.8511 9.02875 14.8511 8.57208C14.8511 8.11542 15.2213 7.74518 15.678 7.74518C16.1346 7.74518 16.5049 8.11542 16.5049 8.57208C16.5047 9.02875 16.1346 9.39899 15.678 9.39899Z" fill="#383838"./>
<path d="M12 0.250732C5.3736 0.250732 0 5.62433 0 12.2507C0 18.8771 5.3736 24.2507 12 24.2507C18.6264 24.2507 24 18.8771 24 12.2507C24 5.62433 18.6264 0.250732 12 0.250732ZM18.8491 15.0916C18.8157 15.8251 18.6991 16.3259 18.5288 16.7643C18.1708 17.6899 17.4391 18.4216 16.5135 18.7795C16.0754 18.9498 15.5744 19.0663 14.8411 19.0998C14.1063 19.1333 13.8715 19.1414 12.0002 19.1414C10.1287 19.1414 9.8941 19.1333 9.15912 19.0998C8.42578 19.0663 7.9248 18.9498 7.48663 18.7795C7.02667 18.6065 6.61029 18.3353 6.26605 17.9847C5.91559 17.6406 5.64441 17.2241 5.47137 16.7643C5.30109 16.3261 5.18445 15.8251 5.15112 15.0918C5.11725 14.3568 5.10938 14.1221 5.10938 12.2507C5.10938 10.3794 5.11725 10.1447 5.15094 9.40985C5.18427 8.67633 5.30072 8.17554 5.47101 7.73718C5.64404 7.2774 5.91541 6.86084 6.26605 6.51678C6.61011 6.16614 7.02667 5.89496 7.48645 5.72192C7.9248 5.55164 8.4256 5.43518 9.15912 5.40167C9.89392 5.36816 10.1287 5.36011 12 5.36011C13.8713 5.36011 14.1061 5.36816 14.8409 5.40186C15.5744 5.43518 16.0752 5.55164 16.5135 5.72174C16.9733 5.89478 17.3899 6.16614 17.7341 6.51678C18.0846 6.86102 18.356 7.2774 18.5288 7.73718C18.6993 8.17554 18.8157 8.67633 18.8492 9.40985C18.8828 10.1447 18.8906 10.3794 18.8906 12.2507C18.8906 14.1221 18.8828 14.3568 18.8491 15.0916V15.0916Z" fill="#383838"./>
</g>
<defs>
<clipPath id="clip0_57_5756">
<rect width="24" height="24" fill="white" transform="translate(0 0.250732)"./>
</clipPath>
</defs>
</svg>
