<svg width="24" height="25" viewBox="0 0 24 25" fill="none" xmlns="http://www.w3.org/2000/svg">
<g clip-path="url(#clip0_57_5751)">
<path d="M12 0.250732C5.3736 0.250732 0 5.62433 0 12.2507C0 18.8771 5.3736 24.2507 12 24.2507C18.6264 24.2507 24 18.8771 24 12.2507C24 5.62433 18.6264 0.250732 12 0.250732ZM18.8491 15.0916C18.8157 15.8251 18.6991 16.3259 18.5288 16.7643C18.1708 17.6899 17.4391 18.4216 16.5135 18.7795C16.0754 18.9498 15.5744 19.0663 14.8411 19.0998C14.1063 19.1333 13.8715 19.1414 12.0002 19.1414C10.1287 19.1414 9.8941 19.1333 9.15912 19.0998C8.42578 19.0663 7.9248 18.9498 7.48663 18.7795C7.02667 18.6065 6.61029 18.3353 6.26605 17.9847C5.91559 17.6406 5.64441 17.2241 5.47137 16.7643C5.30109 16.3261 5.18445 15.8251 5.15112 15.0918C5.11725 14.3568 5.10938 14.1221 5.10938 12.2507C5.10938 10.3794 5.11725 10.1447 5.15094 9.40985C5.18427 8.67633 5.30072 8.17554 5.47101 7.73718C5.64404 7.2774 5.91541 6.86084 6.26605 6.51678C6.61011 6.16614 7.02667 5.89496 7.48645 5.72192C7.9248 5.55164 8.4256 5.43518 9.15912 5.40167C9.89392 5.36816 10.1287 5.36011 12 5.36011C13.8713 5.36011 14.1061 5.36816 14.8409 5.40186C15.5744 5.43518 16.0752 5.55164 16.5135 5.72174C16.9733 5.89478 17.3899 6.16614 17.7341 6.51678C18.0846 6.86102 18.356 7.2774 18.5288 7.73718C18.6993 8.17554 18.8157 8.67633 18.8492 9.40985C18.8828 10.1447 18.8906 10.3794 18.8906 12.2507C18.8906 14.1221 18.8828 14.3568 18.8491 15.0916Z" fill="#383838"/>
<path d="M18.8491 15.0916C18.8157 15.8251 18.6991 16.3259 18.5288 16.7643C18.1708 17.6899 17.4391 18.4216 16.5135 18.7795C16.0754 18.9498 15.5744 19.0663 14.8411 19.0998C14.1063 19.1333 13.8715 19.1414 12.0002 19.1414C10.1287 19.1414 9.8941 19.1333 9.15912 19.0998C8.42578 19.0663 7.9248 18.9498 7.48663 18.7795C7.02667 18.6065 6.61029 18.3353 6.26605 17.9847C5.91559 17.6406 5.64441 17.2241 5.47137 16.7643C5.30109 16.3261 5.18445 15.8251 5.15112 15.0918C5.11725 14.3568 5.10938 14.1221 5.10938 12.2507C5.10938 10.3794 5.11725 10.1447 5.15094 9.40985C5.18427 8.67633 5.30072 8.17554 5.47101 7.73718C5.64404 7.2774 5.91541 6.86084 6.26605 6.51678C6.61011 6.16614 7.02667 5.89496 7.48645 5.72192C7.9248 5.55164 8.4256 5.43518 9.15912 5.40167C9.89392 5.36816 10.1287 5.36011 12 5.36011C13.8713 5.36011 14.1061 5.36816 14.8409 5.40186C15.5744 5.43518 16.0752 5.55164 16.5135 5.72174C16.9733 5.89478 17.3899 6.16614 17.7341 6.51678C18.0846 6.86102 18.356 7.2774 18.5288 7.73718C18.6993 8.17554 18.8157 8.67633 18.8492 9.40985C18.8828 10.1447 18.8906 10.3794 18.8906 12.2507C18.8906 14.1221 18.8828 14.3568 18.8491 15.0916Z" fill="#383838"/>
<g clip-path="url(#clip1_57_5751)">
<path d="M19.9152 15.9305C19.8958 15.8888 19.8777 15.8541 19.861 15.8264C19.5834 15.3264 19.0529 14.7127 18.2698 13.9852L18.2533 13.9685L18.245 13.9604L18.2366 13.952H18.2282C17.8728 13.6132 17.6478 13.3854 17.5535 13.2688C17.3811 13.0466 17.3425 12.8217 17.4367 12.5939C17.5033 12.4217 17.7534 12.0582 18.1865 11.5027C18.4143 11.2083 18.5947 10.9724 18.7279 10.7947C19.6888 9.51725 20.1053 8.70096 19.9775 8.34549L19.9279 8.26242C19.8946 8.21241 19.8085 8.16666 19.6698 8.12493C19.5308 8.08329 19.3531 8.07641 19.1365 8.10416L16.7373 8.12073C16.6985 8.10696 16.643 8.10824 16.5707 8.12493C16.4985 8.14162 16.4623 8.14999 16.4623 8.14999L16.4206 8.17086L16.3874 8.19592C16.3597 8.21249 16.3291 8.24164 16.2958 8.28331C16.2626 8.32483 16.2348 8.37356 16.2127 8.42908C15.9515 9.10108 15.6545 9.72587 15.3212 10.3034C15.1157 10.6478 14.927 10.9463 14.7546 11.199C14.5825 11.4516 14.4381 11.6377 14.3215 11.757C14.2048 11.8765 14.0995 11.9721 14.0049 12.0444C13.9105 12.1167 13.8384 12.1473 13.7884 12.1361C13.7384 12.1249 13.6913 12.1138 13.6467 12.1027C13.569 12.0527 13.5065 11.9847 13.4593 11.8986C13.412 11.8126 13.3802 11.7042 13.3635 11.5737C13.3469 11.4431 13.3371 11.3308 13.3343 11.2363C13.3317 11.142 13.3329 11.0086 13.3385 10.8364C13.3443 10.6642 13.3469 10.5476 13.3469 10.4865C13.3469 10.2755 13.351 10.0464 13.3593 9.79925C13.3677 9.55211 13.3745 9.3563 13.3802 9.21205C13.3858 9.06764 13.3885 8.91487 13.3885 8.7538C13.3885 8.59274 13.3787 8.46643 13.3593 8.37475C13.3401 8.28319 13.3108 8.19432 13.272 8.10815C13.2331 8.02208 13.1761 7.95549 13.1013 7.90823C13.0263 7.86102 12.9331 7.82355 12.8222 7.79572C12.5278 7.7291 12.153 7.69307 11.6975 7.68746C10.6646 7.67638 10.0008 7.74308 9.70649 7.88748C9.58987 7.94849 9.48433 8.03185 9.38997 8.1373C9.28998 8.25953 9.27603 8.32623 9.34821 8.3372C9.68149 8.38712 9.91742 8.50655 10.0563 8.69536L10.1063 8.79541C10.1452 8.8676 10.1841 8.9954 10.223 9.17864C10.2618 9.36187 10.2869 9.56457 10.2979 9.78662C10.3256 10.1921 10.3256 10.5392 10.2979 10.828C10.2701 11.1168 10.2439 11.3417 10.2188 11.5028C10.1937 11.6638 10.1563 11.7943 10.1063 11.8943C10.0563 11.9942 10.023 12.0553 10.0063 12.0775C9.98964 12.0997 9.97575 12.1137 9.96472 12.1191C9.89253 12.1468 9.81746 12.1609 9.73975 12.1609C9.66194 12.1609 9.56757 12.122 9.45652 12.0442C9.3455 11.9664 9.23028 11.8595 9.11085 11.7235C8.99143 11.5873 8.85674 11.3971 8.70674 11.1528C8.55685 10.9085 8.40133 10.6197 8.24027 10.2865L8.10701 10.0448C8.02371 9.88935 7.90991 9.66299 7.76551 9.36593C7.62102 9.06875 7.49331 8.78129 7.38229 8.5036C7.33791 8.38698 7.27124 8.29819 7.18239 8.23709L7.14069 8.21203C7.11297 8.18985 7.06848 8.1663 7.00744 8.14121C6.94631 8.11615 6.88253 8.09817 6.81582 8.08712L4.53326 8.10369C4.30001 8.10369 4.14175 8.15653 4.05841 8.26207L4.02506 8.31199C4.0084 8.3398 4 8.38421 4 8.44533C4 8.50643 4.01666 8.58142 4.05001 8.67021C4.38322 9.45335 4.74559 10.2086 5.1371 10.9361C5.52861 11.6637 5.86882 12.2497 6.15754 12.6937C6.44631 13.1381 6.74066 13.5575 7.04058 13.9517C7.3405 14.346 7.53903 14.5987 7.63617 14.7097C7.73342 14.821 7.8098 14.9041 7.86533 14.9596L8.07363 15.1595C8.20692 15.2929 8.40264 15.4525 8.6609 15.6385C8.91921 15.8247 9.20518 16.0079 9.51896 16.1885C9.8328 16.3689 10.1979 16.5161 10.6145 16.6299C11.031 16.7438 11.4364 16.7895 11.8307 16.7675H12.7888C12.9831 16.7507 13.1303 16.6896 13.2303 16.5842L13.2635 16.5424C13.2858 16.5093 13.3066 16.4578 13.3259 16.3885C13.3454 16.3191 13.3551 16.2426 13.3551 16.1594C13.3494 15.9206 13.3675 15.7054 13.4091 15.5139C13.4506 15.3223 13.4979 15.1779 13.5509 15.0807C13.6038 14.9835 13.6635 14.9015 13.7299 14.8351C13.7965 14.7684 13.8439 14.7281 13.8718 14.7142C13.8994 14.7002 13.9215 14.6907 13.9382 14.6851C14.0715 14.6406 14.2283 14.6837 14.409 14.8143C14.5895 14.9448 14.7588 15.1059 14.9172 15.2975C15.0755 15.4892 15.2657 15.7042 15.4878 15.943C15.71 16.1819 15.9044 16.3594 16.0709 16.4762L16.2375 16.5762C16.3487 16.6429 16.4931 16.704 16.6708 16.7595C16.8483 16.815 17.0037 16.8289 17.1372 16.8011L19.2698 16.7679C19.4807 16.7679 19.6448 16.7329 19.7612 16.6636C19.8779 16.5942 19.9472 16.5178 19.9695 16.4346C19.9918 16.3513 19.993 16.2568 19.9738 16.1512C19.954 16.0458 19.9346 15.9722 19.9152 15.9305Z" fill="white"/>
</g>
</g>
<defs>
<clipPath id="clip0_57_5751">
<rect width="24" height="24" fill="white" transform="translate(0 0.250732)"/>
</clipPath>
<clipPath id="clip1_57_5751">
<rect width="16" height="16" fill="white" transform="translate(4 4.25073)"/>
</clipPath>
</defs>
</svg>
