<svg width="24" height="25" viewBox="0 0 24 25" fill="none" xmlns="http://www.w3.org/2000/svg">
<g clip-path="url(#clip0_57_5744)">
<path d="M10.5049 14.499L14.4083 12.2509L10.5049 10.0027V14.499Z" fill="#383838"/>
<path d="M12 0.250732C5.3736 0.250732 0 5.62433 0 12.2507C0 18.8771 5.3736 24.2507 12 24.2507C18.6264 24.2507 24 18.8771 24 12.2507C24 5.62433 18.6264 0.250732 12 0.250732ZM19.4982 12.263C19.4982 12.263 19.4982 14.6967 19.1895 15.8702C19.0164 16.5125 18.5099 17.019 17.8676 17.1918C16.6941 17.5007 12 17.5007 12 17.5007C12 17.5007 7.31818 17.5007 6.13239 17.1796C5.49005 17.0067 4.98358 16.5001 4.81055 15.8577C4.50165 14.6967 4.50165 12.2507 4.50165 12.2507C4.50165 12.2507 4.50165 9.81726 4.81055 8.64374C4.9834 8.0014 5.50232 7.48248 6.13239 7.30963C7.30591 7.00073 12 7.00073 12 7.00073C12 7.00073 16.6941 7.00073 17.8676 7.3219C18.5099 7.49475 19.0164 8.0014 19.1895 8.64374C19.5106 9.81726 19.4982 12.263 19.4982 12.263V12.263Z" fill="#383838"/>
</g>
<defs>
<clipPath id="clip0_57_5744">
<rect width="24" height="24" fill="white" transform="translate(0 0.250732)"/>
</clipPath>
</defs>
</svg>
