<svg width="1074" height="1075" viewBox="0 0 1074 1075" fill="none" xmlns="http://www.w3.org/2000/svg">
<path d="M1071.99 535.995C1071.99 240.525 832.464 1 536.995 1C241.525 1 2 240.525 2 535.995C2 831.464 241.525 1070.99 536.995 1070.99C832.464 1070.99 1071.99 831.464 1071.99 535.995Z" stroke="#90DBDF" stroke-width="2"/>
<path d="M536.995 85.9944C832.877 85.9944 1071.99 288.405 1071.99 537.24C1071.99 786.075 832.877 988.486 536.995 988.486C241.113 988.486 2.00002 786.075 2 537.24C2 288.405 241.113 85.9944 536.995 85.9944Z" stroke="#90DBDF" stroke-width="2"/>
<path d="M537.006 148.498C684.959 148.498 818.803 192.154 915.599 262.612C1012.4 333.074 1072 430.2 1072 537.244C1072 644.288 1012.4 741.415 915.599 811.877C818.803 882.334 684.959 925.991 537.006 925.991C389.052 925.991 255.206 882.334 158.41 811.877C61.6115 741.415 2.00977 644.288 2.00977 537.244C2.00977 430.2 61.6115 333.074 158.41 262.612C255.206 192.154 389.052 148.498 537.006 148.498Z" stroke="#90DBDF" stroke-width="2"/>
<path d="M925.743 537.242C925.743 685.195 882.086 819.042 811.627 915.836C741.168 1012.63 644.041 1072.24 536.997 1072.24C429.953 1072.24 332.824 1012.63 262.365 915.836C191.906 819.042 148.25 685.195 148.25 537.242C148.25 389.288 191.906 255.442 262.365 158.647C332.824 61.8485 429.953 2.24683 536.997 2.24683C644.041 2.24683 741.168 61.8485 811.627 158.647C882.086 255.442 925.743 389.288 925.743 537.242Z" stroke="#90DBDF" stroke-width="2"/>
<path d="M988.245 537.241C988.245 833.126 785.837 1072.24 536.999 1072.24C288.164 1072.24 85.7539 833.126 85.7539 537.241C85.7539 241.359 288.164 2.24683 536.999 2.24683C785.837 2.24683 988.245 241.359 988.245 537.241Z" stroke="#90DBDF" stroke-width="2"/>
<path d="M536.995 235.998C685.069 235.998 819 270.059 915.826 325.003C1012.73 379.988 1071.99 455.565 1071.99 538.494C1071.99 621.423 1012.73 697 915.826 751.987C819 806.929 685.069 840.991 536.995 840.991C388.921 840.991 254.99 806.929 158.163 751.987C61.2617 697 2.00002 621.423 2 538.494C2 455.565 61.2617 379.988 158.163 325.003C254.99 270.059 388.921 235.998 536.995 235.998Z" stroke="#90DBDF" stroke-width="2"/>
<path d="M536.994 298.497C685.15 298.497 819.159 325.594 916.033 369.301C1013.14 413.113 1071.99 473.123 1071.99 538.494C1071.99 603.866 1013.14 663.876 916.033 707.688C819.159 751.395 685.15 778.492 536.994 778.492C388.84 778.492 254.831 751.395 157.957 707.688C60.8487 663.876 2.00002 603.866 2 538.494C2 473.123 60.8487 413.113 157.957 369.301C254.831 325.594 388.84 298.497 536.994 298.497Z" stroke="#90DBDF" stroke-width="2"/>
<path d="M776.997 538.492C776.997 686.646 749.898 820.655 706.193 917.531C662.381 1014.64 602.369 1073.49 537 1073.49C471.628 1073.49 411.618 1014.64 367.806 917.531C324.099 820.655 297.002 686.646 297.002 538.492C297.002 390.339 324.099 256.33 367.806 159.454C411.618 62.346 471.628 3.49731 537 3.49731C602.369 3.49731 662.381 62.346 706.193 159.454C749.898 256.33 776.997 390.339 776.997 538.492Z" stroke="#90DBDF" stroke-width="2"/>
<path d="M839.49 538.492C839.49 686.565 805.428 820.499 750.484 917.326C695.499 1014.22 619.922 1073.49 536.993 1073.49C454.064 1073.49 378.487 1014.22 323.503 917.326C268.558 820.499 234.496 686.565 234.496 538.492C234.496 390.418 268.558 256.487 323.503 159.66C378.487 62.7591 454.064 3.49731 536.993 3.49731C619.922 3.49731 695.499 62.7591 750.484 159.66C805.428 256.487 839.49 390.418 839.49 538.492Z" stroke="#90DBDF" stroke-width="2"/>
<path d="M536.995 378.494C685.246 378.494 819.367 396.526 916.344 425.618C964.846 440.168 1003.92 457.445 1030.81 476.518C1057.76 495.635 1071.99 516.19 1071.99 537.242C1071.99 558.294 1057.76 578.852 1030.81 597.969C1003.92 617.039 964.846 634.316 916.344 648.869C819.367 677.961 685.246 695.991 536.995 695.991C388.744 695.991 254.623 677.961 157.647 648.869C109.143 634.316 70.0734 617.039 43.1854 597.969C16.2324 578.852 2 558.294 2 537.242C2 516.19 16.2324 495.635 43.1854 476.518C70.0734 457.445 109.143 440.168 157.647 425.618C254.623 396.526 388.744 378.494 536.995 378.494Z" stroke="#90DBDF" stroke-width="2"/>
<path d="M536.994 443.494C685.32 443.494 819.539 454.261 916.62 471.646C965.182 480.341 1004.33 490.671 1031.28 502.081C1044.76 507.788 1055.05 513.711 1061.92 519.726C1068.81 525.756 1071.99 531.616 1071.99 537.243C1071.99 542.871 1068.81 548.731 1061.92 554.76C1055.05 560.775 1044.76 566.698 1031.28 572.405C1004.33 583.815 965.182 594.145 916.62 602.84C819.539 620.225 685.32 630.992 536.994 630.992C388.67 630.992 254.451 620.225 157.369 602.84C108.808 594.145 69.6612 583.815 42.7136 572.405C29.2298 566.698 18.9424 560.775 12.0664 554.76C5.17694 548.731 2 542.871 2 537.243C2 531.616 5.17694 525.756 12.0664 519.726C18.9424 513.711 29.2298 507.788 42.7136 502.081C69.6612 490.671 108.808 480.341 157.369 471.646C254.451 454.261 388.67 443.494 536.994 443.494Z" stroke="#90DBDF" stroke-width="2"/>
<path d="M536.993 505.994C685.384 505.994 819.703 509.771 916.904 515.873C965.514 518.926 1004.79 522.556 1031.88 526.578C1045.45 528.593 1055.86 530.691 1062.84 532.831C1066.34 533.908 1068.84 534.951 1070.4 535.918C1071.54 536.626 1071.87 537.083 1071.96 537.243C1071.87 537.403 1071.54 537.861 1070.4 538.568C1068.84 539.536 1066.34 540.578 1062.84 541.656C1055.86 543.796 1045.45 545.893 1031.88 547.908C1004.79 551.931 965.514 555.561 916.904 558.613C819.703 564.715 685.384 568.493 536.993 568.493C388.604 568.493 254.286 564.715 157.084 558.613C108.474 555.561 69.1993 551.931 42.1053 547.908C28.5407 545.893 18.1295 543.796 11.1525 541.656C7.64562 540.578 5.15399 539.536 3.58888 538.568C2.44747 537.861 2.1199 537.403 2.0293 537.243C2.1199 537.083 2.44747 536.626 3.58888 535.918C5.15399 534.951 7.64562 533.908 11.1525 532.831C18.1295 530.691 28.5407 528.593 42.1053 526.578C69.1993 522.556 108.474 518.926 157.084 515.873C254.286 509.771 388.604 505.994 536.993 505.994Z" stroke="#90DBDF" stroke-width="2"/>
<path d="M568.246 537.243C568.246 685.634 564.471 819.953 558.366 917.152C555.313 965.764 551.683 1005.04 547.661 1032.13C545.648 1045.7 543.551 1056.11 541.408 1063.09C540.333 1066.59 539.288 1069.08 538.321 1070.65C537.616 1071.79 537.156 1072.12 536.996 1072.21C536.838 1072.12 536.378 1071.79 535.673 1070.65C534.706 1069.08 533.661 1066.59 532.586 1063.09C530.443 1056.11 528.346 1045.7 526.333 1032.13C522.311 1005.04 518.681 965.764 515.629 917.152C509.524 819.953 505.746 685.634 505.746 537.243C505.746 388.852 509.524 254.533 515.629 157.333C518.681 108.723 522.311 69.448 526.333 42.354C528.346 28.7894 530.443 18.3783 532.586 11.4013C533.661 7.89442 534.706 5.40277 535.673 3.83766C536.378 2.69625 536.838 2.36868 536.996 2.27808C537.156 2.36868 537.616 2.69625 538.321 3.83766C539.288 5.40277 540.333 7.89442 541.408 11.4013C543.551 18.3783 545.648 28.7894 547.661 42.354C551.683 69.448 555.313 108.723 558.366 157.333C564.471 254.533 568.246 388.852 568.246 537.243Z" stroke="#90DBDF" stroke-width="2"/>
<path d="M630.746 537.242C630.746 685.565 619.981 819.784 602.597 916.868C593.899 965.428 583.569 1004.57 572.162 1031.52C566.452 1045.01 560.532 1055.29 554.515 1062.17C548.485 1069.06 542.627 1072.24 536.997 1072.24C531.37 1072.24 525.512 1069.06 519.482 1062.17C513.465 1055.29 507.545 1045.01 501.835 1031.52C490.428 1004.57 480.098 965.428 471.4 916.868C454.015 819.784 443.248 685.565 443.248 537.242C443.248 388.918 454.015 254.699 471.4 157.616C480.098 109.055 490.428 69.9079 501.835 42.9604C507.545 29.4766 513.465 19.1892 519.482 12.3132C525.512 5.4238 531.37 2.24683 536.997 2.24683C542.627 2.24683 548.485 5.4238 554.515 12.3132C560.532 19.1892 566.452 29.4766 572.162 42.9604C583.569 69.9079 593.899 109.055 602.597 157.616C619.981 254.699 630.746 388.918 630.746 537.242Z" stroke="#90DBDF" stroke-width="2"/>
<path d="M695.743 537.241C695.743 685.495 677.713 819.614 648.621 916.59C634.069 965.095 616.791 1004.16 597.722 1031.05C578.604 1058 558.047 1072.24 536.995 1072.24C515.942 1072.24 495.388 1058 476.27 1031.05C457.198 1004.16 439.921 965.095 425.371 916.59C396.276 819.614 378.246 685.495 378.246 537.241C378.246 388.99 396.276 254.869 425.371 157.894C439.921 109.39 457.198 70.3203 476.27 43.4323C495.388 16.479 515.942 2.24683 536.995 2.24683C558.047 2.24683 578.604 16.479 597.722 43.4323C616.791 70.3203 634.069 109.39 648.621 157.894C677.713 254.869 695.743 388.99 695.743 537.241Z" stroke="#90DBDF" stroke-width="2"/>
</svg>
